<svg xmlns="http://www.w3.org/2000/svg" xmlns:xlink="http://www.w3.org/1999/xlink" width="52px" height="52px" viewBox="0 0 52 51" version="1.1"><g id="surface1"><path d="M 38.203125 2.300781 C 40.488281 4.140625 42.039062 6.367188 42.667969 9.253906 C 42.695312 9.578125 42.714844 9.898438 42.726562 10.222656 C 42.734375 10.414062 42.742188 10.601562 42.75 10.796875 C 42.757812 11.003906 42.765625 11.207031 42.773438 11.414062 C 42.78125 11.628906 42.789062 11.839844 42.796875 12.058594 C 42.867188 14.023438 42.886719 15.980469 42.855469 17.945312 C 42.855469 18.1875 42.851562 18.429688 42.851562 18.675781 C 42.84375 19.351562 42.832031 20.027344 42.816406 20.703125 C 42.8125 20.96875 42.808594 21.238281 42.804688 21.503906 C 42.789062 23.054688 42.714844 24.335938 41.90625 25.6875 C 42.074219 25.71875 42.246094 25.75 42.421875 25.78125 C 44.367188 26.152344 46.101562 26.597656 47.429688 28.144531 C 47.554688 28.285156 47.679688 28.429688 47.8125 28.578125 C 48.214844 29.121094 48.386719 29.554688 48.574219 30.203125 C 48.640625 30.417969 48.703125 30.636719 48.765625 30.859375 C 49.078125 32.011719 49.367188 33.167969 49.644531 34.328125 C 49.707031 34.585938 49.769531 34.847656 49.832031 35.105469 C 49.960938 35.644531 50.089844 36.183594 50.21875 36.71875 C 50.382812 37.40625 50.550781 38.09375 50.714844 38.777344 C 50.84375 39.3125 50.972656 39.84375 51.101562 40.378906 C 51.160156 40.628906 51.222656 40.882812 51.285156 41.136719 C 52.246094 45.105469 52.246094 45.105469 51.429688 46.464844 C 50.46875 47.4375 49.4375 47.753906 48.144531 48.132812 C 47.855469 48.21875 47.855469 48.21875 47.5625 48.308594 C 46.164062 48.734375 46.164062 48.734375 45.714844 48.734375 C 45.726562 48.96875 45.738281 49.199219 45.75 49.441406 C 45.773438 49.945312 45.742188 50.195312 45.496094 50.640625 C 45.144531 51 45.144531 51 44.644531 51.09375 C 44.445312 51.097656 44.242188 51.097656 44.035156 51.097656 C 43.804688 51.101562 43.574219 51.101562 43.335938 51.105469 C 43.082031 51.101562 42.824219 51.101562 42.570312 51.101562 C 42.300781 51.101562 42.03125 51.105469 41.761719 51.105469 C 41.027344 51.109375 40.296875 51.109375 39.566406 51.109375 C 38.953125 51.105469 38.34375 51.109375 37.734375 51.109375 C 36.292969 51.113281 34.851562 51.113281 33.414062 51.109375 C 31.925781 51.105469 30.4375 51.109375 28.953125 51.113281 C 27.675781 51.121094 26.398438 51.121094 25.125 51.121094 C 24.363281 51.117188 23.597656 51.117188 22.835938 51.121094 C 22.121094 51.125 21.402344 51.125 20.6875 51.121094 C 20.421875 51.121094 20.160156 51.121094 19.898438 51.121094 C 19.539062 51.125 19.179688 51.121094 18.820312 51.117188 C 18.621094 51.117188 18.417969 51.117188 18.210938 51.117188 C 17.714844 51 17.714844 51 17.367188 50.566406 C 17.097656 49.957031 17.019531 49.394531 16.953125 48.734375 C 16.8125 48.691406 16.675781 48.652344 16.53125 48.609375 C 15.894531 48.421875 15.261719 48.230469 14.632812 48.035156 C 14.410156 47.972656 14.191406 47.910156 13.96875 47.84375 C 11.925781 47.214844 11.925781 47.214844 11.238281 46.277344 C 10.648438 44.527344 11.210938 42.65625 11.640625 40.925781 C 11.699219 40.667969 11.761719 40.414062 11.824219 40.15625 C 11.953125 39.621094 12.085938 39.082031 12.214844 38.546875 C 12.382812 37.871094 12.546875 37.191406 12.707031 36.511719 C 12.835938 35.984375 12.964844 35.453125 13.09375 34.921875 C 13.183594 34.554688 13.273438 34.183594 13.359375 33.816406 C 14.722656 28.308594 14.722656 28.308594 16.808594 26.914062 C 18.101562 26.214844 19.535156 25.863281 20.953125 25.5 C 20.898438 25.398438 20.84375 25.300781 20.789062 25.195312 C 20.054688 23.648438 20.082031 22.15625 20.097656 20.488281 C 20.097656 20.1875 20.09375 19.886719 20.09375 19.585938 C 20.09375 18.957031 20.097656 18.332031 20.101562 17.703125 C 20.105469 16.902344 20.105469 16.101562 20.105469 15.304688 C 20.101562 14.683594 20.105469 14.0625 20.105469 13.441406 C 20.109375 13.148438 20.109375 12.851562 20.105469 12.558594 C 20.101562 8.984375 20.914062 5.917969 23.492188 3.289062 C 27.519531 -0.3125 33.746094 -1.039062 38.203125 2.300781 Z M 23.617188 5.667969 C 22.644531 6.972656 22.074219 8.183594 22.09375 9.820312 C 26.292969 9.730469 29.972656 8.976562 33.292969 6.261719 C 33.714844 6.042969 33.714844 6.042969 34.296875 6.054688 C 34.957031 6.265625 35.113281 6.445312 35.488281 7.011719 C 36.613281 8.546875 37.910156 9.476562 39.808594 9.820312 C 40.460938 9.871094 40.460938 9.871094 40.953125 9.820312 C 40.488281 7.238281 39.21875 5.328125 37.132812 3.707031 C 32.582031 0.558594 27.230469 1.761719 23.617188 5.667969 Z M 32.773438 8.535156 C 30.226562 10.164062 27.542969 10.871094 24.570312 11.332031 C 24.554688 12.113281 24.542969 12.890625 24.535156 13.671875 C 24.53125 13.890625 24.527344 14.109375 24.519531 14.332031 C 24.5 16.671875 25.003906 18.476562 26.636719 20.207031 C 28.234375 21.6875 29.960938 22.175781 32.105469 22.152344 C 33.972656 22.007812 35.464844 21.148438 36.761719 19.832031 C 38.191406 17.957031 38.386719 16.179688 38.453125 13.882812 C 38.480469 13.515625 38.480469 13.515625 38.503906 13.144531 C 38.523438 12.414062 38.507812 11.84375 38.285156 11.144531 C 37.75 10.660156 37.246094 10.382812 36.585938 10.089844 C 35.738281 9.703125 35.097656 9.1875 34.535156 8.453125 C 34.390625 8.28125 34.246094 8.109375 34.09375 7.933594 C 33.53125 7.933594 33.238281 8.226562 32.773438 8.535156 Z M 40 11.332031 C 40 11.957031 40 12.578125 40 13.222656 C 40.753906 13.121094 40.753906 13.121094 41.023438 12.691406 C 41.183594 12.277344 41.183594 12.277344 41.023438 11.863281 C 40.753906 11.4375 40.753906 11.4375 40 11.332031 Z M 21.90625 11.898438 C 21.808594 12.378906 21.808594 12.378906 21.90625 12.84375 C 22.03125 12.96875 22.15625 13.09375 22.285156 13.222656 C 22.472656 13.222656 22.664062 13.222656 22.855469 13.222656 C 22.855469 12.597656 22.855469 11.976562 22.855469 11.332031 C 22.441406 11.332031 22.191406 11.632812 21.90625 11.898438 Z M 21.90625 14.734375 C 21.886719 15.972656 21.871094 17.214844 21.863281 18.453125 C 21.859375 18.875 21.855469 19.296875 21.847656 19.71875 C 21.839844 20.324219 21.832031 20.933594 21.832031 21.539062 C 21.828125 21.726562 21.824219 21.914062 21.820312 22.109375 C 21.816406 23.28125 21.976562 23.96875 22.667969 24.933594 C 22.875 25.179688 22.875 25.179688 23.394531 25.167969 C 24.535156 25.15625 25.835938 24.875 26.855469 24.367188 C 27.152344 23.78125 27.199219 23.300781 27.046875 22.667969 C 26.707031 22.300781 26.386719 22 26 21.6875 C 23.820312 19.894531 23.226562 17.597656 22.855469 14.921875 C 22.542969 14.859375 22.230469 14.796875 21.90625 14.734375 Z M 40 14.921875 C 39.984375 15.085938 39.96875 15.25 39.949219 15.421875 C 39.621094 18.179688 38.789062 20.164062 36.628906 21.996094 C 36.261719 22.308594 36.023438 22.566406 35.910156 23.039062 C 35.859375 23.5 35.859375 23.5 36 24.179688 C 36.847656 25.019531 38.355469 25.058594 39.5 25.203125 C 40.035156 25.164062 40.035156 25.164062 40.429688 24.734375 C 41.160156 23.515625 41.195312 22.371094 41.179688 20.992188 C 41.179688 20.730469 41.179688 20.730469 41.179688 20.464844 C 41.175781 19.910156 41.171875 19.359375 41.167969 18.804688 C 41.164062 18.429688 41.164062 18.054688 41.160156 17.675781 C 41.15625 16.757812 41.152344 15.839844 41.144531 14.921875 C 40.765625 14.921875 40.386719 14.921875 40 14.921875 Z M 28.761719 23.421875 C 28.632812 23.71875 28.507812 24.019531 28.382812 24.320312 C 28.308594 24.484375 28.238281 24.652344 28.167969 24.824219 C 27.960938 25.34375 27.960938 25.34375 28 26.066406 C 29.191406 27.074219 30.574219 27.285156 32.089844 27.246094 C 33.433594 27.117188 34.371094 26.714844 35.238281 25.6875 C 35.054688 25.390625 35.054688 25.390625 34.867188 25.085938 C 34.550781 24.535156 34.363281 24.0625 34.285156 23.421875 C 33.984375 23.46875 33.984375 23.46875 33.679688 23.515625 C 32.042969 23.71875 30.386719 23.675781 28.761719 23.421875 Z M 22.566406 26.96875 C 22.148438 27.058594 21.730469 27.144531 21.3125 27.230469 C 19.152344 27.6875 17.46875 28.121094 16.191406 30.035156 C 15.929688 30.59375 15.78125 31.15625 15.644531 31.757812 C 15.578125 32.011719 15.578125 32.011719 15.511719 32.273438 C 15.414062 32.671875 15.316406 33.070312 15.21875 33.46875 C 15.054688 34.164062 14.882812 34.855469 14.710938 35.550781 C 14.546875 36.203125 14.386719 36.855469 14.226562 37.511719 C 14.148438 37.835938 14.066406 38.164062 13.984375 38.492188 C 13.871094 38.957031 13.761719 39.421875 13.648438 39.886719 C 13.613281 40.027344 13.578125 40.167969 13.542969 40.3125 C 13.351562 41.125 13.351562 41.125 13.523438 41.933594 C 13.984375 42.027344 14.445312 42.121094 14.90625 42.214844 C 15.035156 42.242188 15.164062 42.269531 15.296875 42.296875 C 15.933594 42.425781 16.492188 42.5 17.144531 42.5 C 17.144531 42.375 17.144531 42.25 17.144531 42.121094 C 17.152344 40.824219 17.167969 39.523438 17.183594 38.226562 C 17.1875 37.742188 17.191406 37.257812 17.195312 36.773438 C 17.199219 36.074219 17.207031 35.375 17.21875 34.679688 C 17.21875 34.464844 17.21875 34.25 17.21875 34.027344 C 17.246094 32.527344 17.449219 31.464844 18.523438 30.339844 C 19.847656 29.5625 21.289062 29.597656 22.785156 29.597656 C 22.992188 29.597656 23.199219 29.597656 23.414062 29.597656 C 23.851562 29.59375 24.289062 29.59375 24.722656 29.597656 C 25.394531 29.597656 26.0625 29.59375 26.734375 29.585938 C 27.160156 29.585938 27.585938 29.585938 28.007812 29.585938 C 28.3125 29.585938 28.3125 29.585938 28.617188 29.582031 C 28.804688 29.582031 28.988281 29.585938 29.179688 29.585938 C 29.34375 29.585938 29.507812 29.585938 29.675781 29.585938 C 30.09375 29.65625 30.09375 29.65625 30.449219 29.894531 C 30.667969 30.222656 30.667969 30.222656 30.605469 30.636719 C 30.5625 30.75 30.519531 30.863281 30.476562 30.976562 C 30.351562 30.980469 30.226562 30.980469 30.101562 30.980469 C 28.808594 30.992188 27.515625 31.007812 26.226562 31.027344 C 25.742188 31.035156 25.261719 31.039062 24.78125 31.042969 C 24.085938 31.050781 23.394531 31.058594 22.699219 31.070312 C 22.378906 31.070312 22.378906 31.070312 22.050781 31.074219 C 20.558594 31.09375 20.558594 31.09375 19.238281 31.734375 C 18.800781 32.386719 18.808594 32.964844 18.800781 33.734375 C 18.800781 33.859375 18.800781 33.984375 18.796875 34.109375 C 18.792969 34.519531 18.792969 34.925781 18.792969 35.332031 C 18.792969 35.617188 18.789062 35.902344 18.789062 36.183594 C 18.785156 36.78125 18.785156 37.375 18.785156 37.972656 C 18.785156 38.734375 18.78125 39.492188 18.773438 40.253906 C 18.769531 40.84375 18.769531 41.429688 18.769531 42.015625 C 18.769531 42.296875 18.769531 42.578125 18.765625 42.859375 C 18.761719 43.25 18.761719 43.644531 18.765625 44.039062 C 18.765625 44.371094 18.765625 44.371094 18.761719 44.714844 C 18.878906 45.46875 19.132812 45.878906 19.617188 46.464844 C 20.171875 46.648438 20.527344 46.679688 21.105469 46.683594 C 21.292969 46.683594 21.484375 46.683594 21.675781 46.683594 C 21.882812 46.6875 22.089844 46.6875 22.304688 46.6875 C 22.519531 46.6875 22.738281 46.6875 22.964844 46.6875 C 23.683594 46.691406 24.40625 46.691406 25.128906 46.695312 C 25.628906 46.695312 26.132812 46.695312 26.632812 46.695312 C 27.546875 46.699219 28.464844 46.699219 29.382812 46.699219 C 30.730469 46.703125 32.078125 46.703125 33.425781 46.710938 C 34.59375 46.714844 35.761719 46.714844 36.929688 46.714844 C 37.425781 46.71875 37.925781 46.71875 38.421875 46.722656 C 39.117188 46.722656 39.808594 46.722656 40.503906 46.722656 C 40.710938 46.726562 40.917969 46.726562 41.128906 46.726562 C 42.472656 46.738281 42.472656 46.738281 43.617188 46.089844 C 44.082031 45.402344 44.050781 45.078125 44.054688 44.257812 C 44.054688 44.132812 44.058594 44.003906 44.058594 43.871094 C 44.0625 43.449219 44.0625 43.03125 44.0625 42.609375 C 44.066406 42.3125 44.066406 42.019531 44.066406 41.726562 C 44.070312 41.113281 44.070312 40.496094 44.070312 39.882812 C 44.070312 39.09375 44.074219 38.308594 44.082031 37.519531 C 44.085938 36.914062 44.085938 36.308594 44.085938 35.703125 C 44.085938 35.410156 44.089844 35.121094 44.09375 34.832031 C 44.097656 34.425781 44.09375 34.019531 44.09375 33.613281 C 44.09375 33.382812 44.09375 33.148438 44.09375 32.910156 C 43.980469 32.179688 43.765625 31.871094 43.238281 31.355469 C 42.683594 31.171875 42.308594 31.136719 41.726562 31.128906 C 41.441406 31.121094 41.441406 31.121094 41.148438 31.117188 C 40.945312 31.113281 40.738281 31.109375 40.527344 31.105469 C 40.210938 31.101562 40.210938 31.101562 39.890625 31.09375 C 39.214844 31.082031 38.542969 31.070312 37.867188 31.058594 C 37.414062 31.050781 36.957031 31.042969 36.5 31.035156 C 35.382812 31.015625 34.261719 30.996094 33.144531 30.976562 C 32.953125 30.605469 32.953125 30.605469 32.761719 30.222656 C 33.074219 29.84375 33.246094 29.671875 33.738281 29.582031 C 33.894531 29.582031 34.050781 29.582031 34.210938 29.582031 C 34.386719 29.582031 34.566406 29.578125 34.75 29.578125 C 35.035156 29.578125 35.035156 29.578125 35.328125 29.582031 C 35.527344 29.578125 35.726562 29.578125 35.929688 29.578125 C 36.347656 29.578125 36.769531 29.578125 37.1875 29.582031 C 37.828125 29.585938 38.464844 29.582031 39.101562 29.578125 C 39.511719 29.578125 39.921875 29.578125 40.328125 29.582031 C 40.519531 29.578125 40.707031 29.578125 40.902344 29.578125 C 42.339844 29.589844 43.609375 29.757812 44.75 30.671875 C 45.386719 31.476562 45.570312 32.15625 45.585938 33.171875 C 45.589844 33.484375 45.589844 33.484375 45.597656 33.800781 C 45.597656 34.136719 45.597656 34.136719 45.601562 34.476562 C 45.609375 34.820312 45.609375 34.820312 45.613281 35.171875 C 45.625 35.902344 45.632812 36.632812 45.644531 37.363281 C 45.648438 37.859375 45.65625 38.355469 45.664062 38.851562 C 45.683594 40.070312 45.699219 41.285156 45.714844 42.5 C 45.988281 42.472656 46.257812 42.441406 46.53125 42.410156 C 46.761719 42.386719 46.761719 42.386719 46.992188 42.363281 C 47.527344 42.300781 48.054688 42.210938 48.582031 42.109375 C 48.851562 42.058594 48.851562 42.058594 49.125 42.007812 C 49.257812 41.984375 49.386719 41.960938 49.523438 41.933594 C 49.394531 40.6875 49.140625 39.492188 48.847656 38.273438 C 48.800781 38.070312 48.75 37.867188 48.703125 37.660156 C 48.601562 37.230469 48.496094 36.804688 48.394531 36.375 C 48.238281 35.726562 48.085938 35.078125 47.933594 34.425781 C 47.835938 34.011719 47.734375 33.59375 47.632812 33.175781 C 47.589844 32.984375 47.546875 32.789062 47.5 32.59375 C 47.152344 31.167969 46.691406 29.75 45.691406 28.640625 C 44.0625 27.726562 42.214844 27.351562 40.40625 26.964844 C 40.175781 26.914062 39.949219 26.863281 39.714844 26.808594 C 38.347656 26.492188 38.347656 26.492188 36.953125 26.445312 C 36.539062 26.703125 36.539062 26.703125 36.15625 27.058594 C 34.523438 28.394531 32.570312 28.90625 30.476562 28.710938 C 28.835938 28.394531 27.636719 27.800781 26.351562 26.75 C 25.3125 26.039062 23.730469 26.71875 22.566406 26.96875 Z M 12.761719 44.011719 C 12.554688 44.449219 12.554688 44.449219 12.570312 44.957031 C 13.09375 45.882812 13.738281 46.105469 14.71875 46.394531 C 14.976562 46.464844 14.976562 46.464844 15.238281 46.539062 C 15.496094 46.613281 15.496094 46.613281 15.757812 46.691406 C 16.828125 47.015625 16.828125 47.015625 17.90625 46.84375 C 17.816406 46.652344 17.730469 46.460938 17.644531 46.265625 C 17.347656 45.589844 17.144531 44.910156 16.953125 44.199219 C 14.808594 43.492188 14.808594 43.492188 12.761719 44.011719 Z M 45.714844 44.390625 C 45.644531 44.691406 45.582031 44.992188 45.523438 45.296875 C 45.414062 45.882812 45.292969 46.457031 45.144531 47.035156 C 46.230469 46.914062 47.214844 46.644531 48.25 46.300781 C 48.40625 46.253906 48.558594 46.203125 48.71875 46.15625 C 48.863281 46.105469 49.011719 46.058594 49.164062 46.007812 C 49.363281 45.941406 49.363281 45.941406 49.566406 45.875 C 49.972656 45.710938 49.972656 45.710938 50.285156 45.144531 C 50.21875 44.292969 50.21875 44.292969 49.714844 43.632812 C 48.632812 43.515625 46.5 43.609375 45.714844 44.390625 Z M 18.855469 48.542969 C 18.824219 49.015625 18.824219 49.015625 18.855469 49.488281 C 19.050781 49.722656 19.050781 49.722656 19.460938 49.699219 C 19.644531 49.699219 19.828125 49.699219 20.019531 49.699219 C 20.332031 49.699219 20.332031 49.699219 20.65625 49.703125 C 21.003906 49.699219 21.003906 49.699219 21.359375 49.699219 C 21.601562 49.699219 21.847656 49.699219 22.097656 49.699219 C 22.765625 49.699219 23.4375 49.699219 24.105469 49.695312 C 24.804688 49.695312 25.503906 49.695312 26.203125 49.695312 C 27.527344 49.695312 28.851562 49.691406 30.175781 49.691406 C 31.683594 49.6875 33.1875 49.6875 34.695312 49.6875 C 37.796875 49.683594 40.898438 49.683594 44 49.679688 C 44 49.242188 44 48.804688 44 48.355469 C 40.75 48.351562 37.5 48.347656 34.25 48.347656 C 32.742188 48.34375 31.230469 48.34375 29.722656 48.339844 C 28.40625 48.339844 27.09375 48.339844 25.777344 48.335938 C 25.082031 48.335938 24.386719 48.335938 23.6875 48.335938 C 22.914062 48.335938 22.136719 48.335938 21.359375 48.335938 C 21.128906 48.332031 20.894531 48.332031 20.65625 48.332031 C 20.445312 48.332031 20.234375 48.332031 20.019531 48.332031 C 19.832031 48.332031 19.648438 48.332031 19.460938 48.332031 C 19.050781 48.308594 19.050781 48.308594 18.855469 48.542969 Z M 18.855469 48.542969 " style="stroke: none; fill-rule: nonzero; fill: rgb(25, 49, 91); fill-opacity: 1;"></path><path d="M 6.667969 11.144531 C 6.761719 11.332031 6.761719 11.332031 6.855469 11.523438 C 7.132812 11.539062 7.414062 11.546875 7.691406 11.558594 C 7.921875 11.566406 7.921875 11.566406 8.160156 11.578125 C 8.296875 11.558594 8.429688 11.542969 8.570312 11.523438 C 8.695312 11.335938 8.824219 11.148438 8.953125 10.957031 C 10.882812 10.457031 14.09375 10.398438 15.894531 11.273438 C 16.589844 11.898438 17.035156 12.527344 17.332031 13.410156 C 17.359375 13.949219 17.375 14.484375 17.378906 15.023438 C 17.378906 15.183594 17.382812 15.34375 17.382812 15.507812 C 17.386719 15.84375 17.386719 16.179688 17.390625 16.519531 C 17.390625 16.863281 17.394531 17.203125 17.402344 17.546875 C 17.410156 18.042969 17.414062 18.542969 17.414062 19.039062 C 17.417969 19.191406 17.421875 19.339844 17.425781 19.496094 C 17.417969 20.796875 17.054688 21.808594 16.117188 22.738281 C 15.195312 23.304688 14.414062 23.472656 13.332031 23.421875 C 13.339844 23.628906 13.347656 23.835938 13.355469 24.046875 C 13.332031 24.746094 13.332031 24.746094 12.953125 25.3125 C 12.453125 25.523438 12.453125 25.523438 11.808594 25.5 C 11.03125 24.984375 10.421875 24.382812 9.90625 23.609375 C 9.382812 23.554688 8.902344 23.53125 8.378906 23.535156 C 8.152344 23.53125 8.152344 23.53125 7.917969 23.527344 C 7.429688 23.523438 6.941406 23.519531 6.453125 23.515625 C 5.8125 23.515625 5.171875 23.507812 4.535156 23.5 C 4.316406 23.5 4.316406 23.5 4.09375 23.5 C 2.9375 23.484375 1.855469 23.289062 0.941406 22.53125 C 0.855469 22.417969 0.769531 22.308594 0.679688 22.195312 C 0.589844 22.082031 0.5 21.972656 0.40625 21.859375 C 0.0429688 21.3125 -0.0234375 20.828125 -0.0351562 20.191406 C -0.0351562 20.035156 -0.0390625 19.882812 -0.0429688 19.722656 C -0.0429688 19.554688 -0.0429688 19.386719 -0.046875 19.214844 C -0.046875 19.042969 -0.046875 18.871094 -0.0507812 18.691406 C -0.0507812 18.328125 -0.0546875 17.960938 -0.0546875 17.597656 C -0.0585938 17.039062 -0.0664062 16.484375 -0.078125 15.925781 C -0.078125 15.570312 -0.078125 15.214844 -0.0820312 14.859375 C -0.0859375 14.695312 -0.0859375 14.527344 -0.0898438 14.355469 C -0.0859375 13.082031 0.273438 12.398438 1.179688 11.476562 C 2.574219 10.613281 5.246094 10.210938 6.667969 11.144531 Z M 6.667969 11.144531 " style="stroke: none; fill-rule: nonzero; fill: rgb(66, 144, 236); fill-opacity: 1;"></path><path d="M 6.667969 11.144531 C 6.761719 11.425781 6.761719 11.425781 6.855469 11.710938 C 6.53125 12.164062 6.265625 12.433594 5.703125 12.542969 C 5.226562 12.578125 4.75 12.589844 4.273438 12.597656 C 3.949219 12.605469 3.621094 12.613281 3.296875 12.621094 C 3.152344 12.625 3.007812 12.625 2.859375 12.628906 C 2.4375 12.640625 2.4375 12.640625 1.90625 12.84375 C 1.628906 13.589844 1.675781 14.386719 1.667969 15.167969 C 1.667969 15.320312 1.664062 15.472656 1.664062 15.628906 C 1.660156 15.949219 1.660156 16.269531 1.65625 16.589844 C 1.65625 16.917969 1.652344 17.246094 1.644531 17.574219 C 1.636719 18.046875 1.636719 18.519531 1.632812 18.996094 C 1.628906 19.140625 1.625 19.285156 1.625 19.4375 C 1.625 20.09375 1.699219 20.558594 1.996094 21.152344 C 2.675781 21.691406 3.300781 21.660156 4.136719 21.648438 C 4.378906 21.648438 4.378906 21.648438 4.625 21.652344 C 5.136719 21.65625 5.652344 21.652344 6.167969 21.652344 C 6.679688 21.652344 7.191406 21.652344 7.707031 21.65625 C 8.023438 21.65625 8.34375 21.65625 8.664062 21.652344 C 9.597656 21.65625 10.238281 21.773438 11.046875 22.289062 C 11.308594 22.703125 11.308594 22.703125 11.429688 23.042969 C 11.554688 23.042969 11.679688 23.042969 11.808594 23.042969 C 11.839844 22.824219 11.839844 22.824219 11.867188 22.597656 C 12 22.101562 12 22.101562 12.570312 21.722656 C 13.101562 21.667969 13.621094 21.652344 14.152344 21.636719 C 14.832031 21.5 15.015625 21.328125 15.429688 20.777344 C 15.496094 20.214844 15.523438 19.722656 15.507812 19.160156 C 15.507812 19.003906 15.507812 18.847656 15.507812 18.6875 C 15.503906 18.1875 15.496094 17.6875 15.488281 17.1875 C 15.484375 16.851562 15.484375 16.515625 15.484375 16.179688 C 15.480469 15.859375 15.476562 15.539062 15.472656 15.21875 C 15.472656 15.066406 15.472656 14.914062 15.46875 14.761719 C 15.457031 14.09375 15.417969 13.488281 15.238281 12.84375 C 14.585938 12.648438 13.984375 12.628906 13.304688 12.621094 C 13.078125 12.617188 12.851562 12.613281 12.617188 12.609375 C 12.144531 12.601562 11.667969 12.59375 11.191406 12.589844 C 10.964844 12.585938 10.738281 12.582031 10.507812 12.574219 C 10.300781 12.574219 10.09375 12.570312 9.878906 12.566406 C 9.21875 12.445312 8.992188 12.21875 8.570312 11.710938 C 8.710938 11.34375 8.710938 11.34375 8.953125 10.957031 C 9.324219 10.839844 9.324219 10.839844 9.785156 10.8125 C 9.957031 10.804688 10.128906 10.792969 10.304688 10.78125 C 15.183594 10.640625 15.183594 10.640625 16.382812 11.710938 C 17.230469 12.824219 17.367188 13.660156 17.378906 15.023438 C 17.378906 15.183594 17.382812 15.34375 17.382812 15.507812 C 17.386719 15.84375 17.386719 16.179688 17.390625 16.519531 C 17.390625 16.863281 17.394531 17.203125 17.402344 17.546875 C 17.410156 18.042969 17.414062 18.542969 17.414062 19.039062 C 17.417969 19.191406 17.421875 19.339844 17.425781 19.496094 C 17.417969 20.796875 17.054688 21.808594 16.117188 22.738281 C 15.195312 23.304688 14.414062 23.472656 13.332031 23.421875 C 13.339844 23.628906 13.347656 23.835938 13.355469 24.046875 C 13.332031 24.746094 13.332031 24.746094 12.953125 25.3125 C 12.453125 25.523438 12.453125 25.523438 11.808594 25.5 C 11.03125 24.984375 10.421875 24.382812 9.90625 23.609375 C 9.382812 23.554688 8.902344 23.53125 8.378906 23.535156 C 8.152344 23.53125 8.152344 23.53125 7.917969 23.527344 C 7.429688 23.523438 6.941406 23.519531 6.453125 23.515625 C 5.8125 23.515625 5.171875 23.507812 4.535156 23.5 C 4.316406 23.5 4.316406 23.5 4.09375 23.5 C 2.9375 23.484375 1.855469 23.289062 0.941406 22.53125 C 0.855469 22.417969 0.769531 22.308594 0.679688 22.195312 C 0.589844 22.082031 0.5 21.972656 0.40625 21.859375 C 0.0429688 21.3125 -0.0234375 20.828125 -0.0351562 20.191406 C -0.0351562 20.035156 -0.0390625 19.882812 -0.0429688 19.722656 C -0.0429688 19.554688 -0.0429688 19.386719 -0.046875 19.214844 C -0.046875 19.042969 -0.046875 18.871094 -0.0507812 18.691406 C -0.0507812 18.328125 -0.0546875 17.960938 -0.0546875 17.597656 C -0.0585938 17.039062 -0.0664062 16.484375 -0.078125 15.925781 C -0.078125 15.570312 -0.078125 15.214844 -0.0820312 14.859375 C -0.0859375 14.695312 -0.0859375 14.527344 -0.0898438 14.355469 C -0.0859375 13.082031 0.273438 12.398438 1.179688 11.476562 C 2.550781 10.628906 5.285156 10.1875 6.667969 11.144531 Z M 6.667969 11.144531 " style="stroke: none; fill-rule: nonzero; fill: rgb(25, 51, 94); fill-opacity: 1;"></path><path d="M 33.988281 36.492188 C 34.847656 37.324219 35.1875 38.089844 35.320312 39.277344 C 35.273438 40.3125 34.867188 41.148438 34.148438 41.894531 C 33.101562 42.820312 32.265625 42.957031 30.871094 42.945312 C 29.738281 42.816406 29.054688 42.246094 28.296875 41.4375 C 27.628906 40.433594 27.703125 39.320312 27.808594 38.15625 C 28.128906 37.144531 28.84375 36.46875 29.714844 35.890625 C 31.191406 35.226562 32.742188 35.484375 33.988281 36.492188 Z M 29.761719 38.027344 C 29.402344 38.507812 29.355469 38.878906 29.332031 39.476562 C 29.597656 40.140625 29.871094 40.769531 30.476562 41.179688 C 31.28125 41.40625 31.800781 41.433594 32.535156 41.046875 C 33.222656 40.574219 33.222656 40.574219 33.523438 39.855469 C 33.621094 39.117188 33.550781 38.777344 33.203125 38.109375 C 32.742188 37.5625 32.496094 37.382812 31.808594 37.210938 C 30.878906 37.210938 30.488281 37.488281 29.761719 38.027344 Z M 29.761719 38.027344 " style="stroke: none; fill-rule: nonzero; fill: rgb(26, 49, 92); fill-opacity: 1;"></path><path d="M 5.011719 14.898438 C 5.273438 14.898438 5.273438 14.898438 5.539062 14.894531 C 5.824219 14.898438 5.824219 14.898438 6.113281 14.898438 C 6.304688 14.898438 6.5 14.898438 6.699219 14.898438 C 7.109375 14.894531 7.519531 14.898438 7.925781 14.898438 C 8.554688 14.898438 9.183594 14.898438 9.8125 14.894531 C 10.210938 14.898438 10.609375 14.898438 11.003906 14.898438 C 11.195312 14.898438 11.382812 14.894531 11.578125 14.894531 C 11.753906 14.898438 11.929688 14.898438 12.109375 14.898438 C 12.261719 14.898438 12.417969 14.898438 12.574219 14.898438 C 12.953125 14.921875 12.953125 14.921875 13.332031 15.109375 C 13.332031 15.421875 13.332031 15.734375 13.332031 16.054688 C 12.332031 16.460938 11.449219 16.488281 10.382812 16.484375 C 10.214844 16.484375 10.042969 16.484375 9.867188 16.484375 C 9.507812 16.484375 9.148438 16.484375 8.789062 16.484375 C 8.238281 16.480469 7.6875 16.484375 7.132812 16.484375 C 6.785156 16.484375 6.4375 16.484375 6.085938 16.484375 C 5.839844 16.484375 5.839844 16.484375 5.585938 16.484375 C 4.425781 16.476562 4.425781 16.476562 4 16.054688 C 3.964844 15.570312 3.964844 15.570312 4 15.109375 C 4.300781 14.8125 4.59375 14.898438 5.011719 14.898438 Z M 5.011719 14.898438 " style="stroke: none; fill-rule: nonzero; fill: rgb(27, 51, 91); fill-opacity: 1;"></path><path d="M 4 17.945312 C 5.269531 17.933594 6.535156 17.929688 7.804688 17.921875 C 8.234375 17.921875 8.667969 17.917969 9.097656 17.914062 C 9.71875 17.910156 10.335938 17.910156 10.957031 17.90625 C 11.246094 17.90625 11.246094 17.90625 11.542969 17.902344 C 11.722656 17.902344 11.902344 17.902344 12.085938 17.902344 C 12.246094 17.902344 12.402344 17.898438 12.566406 17.898438 C 12.953125 17.945312 12.953125 17.945312 13.332031 18.320312 C 13.230469 18.988281 13.230469 18.988281 12.953125 19.265625 C 12.679688 19.285156 12.402344 19.289062 12.128906 19.292969 C 11.953125 19.292969 11.78125 19.292969 11.601562 19.292969 C 11.410156 19.292969 11.21875 19.292969 11.023438 19.292969 C 10.828125 19.292969 10.636719 19.292969 10.4375 19.292969 C 10.027344 19.292969 9.617188 19.292969 9.203125 19.292969 C 8.574219 19.289062 7.941406 19.292969 7.3125 19.292969 C 6.914062 19.292969 6.515625 19.292969 6.117188 19.292969 C 5.832031 19.292969 5.832031 19.292969 5.542969 19.292969 C 5.367188 19.292969 5.195312 19.292969 5.011719 19.292969 C 4.859375 19.289062 4.703125 19.289062 4.542969 19.289062 C 4.191406 19.265625 4.191406 19.265625 4 19.078125 C 3.992188 18.699219 3.992188 18.320312 4 17.945312 Z M 4 17.945312 " style="stroke: none; fill-rule: nonzero; fill: rgb(23, 52, 103); fill-opacity: 1;"></path><path d="M 33.367188 18.5 C 33.539062 18.597656 33.539062 18.597656 33.714844 18.699219 C 33.714844 19.074219 33.714844 19.449219 33.714844 19.832031 C 32.300781 20.476562 31.398438 20.707031 29.894531 20.191406 C 29.523438 20.023438 29.523438 20.023438 29.144531 19.644531 C 29.214844 19.054688 29.214844 19.054688 29.332031 18.511719 C 29.546875 18.511719 29.761719 18.515625 29.980469 18.519531 C 30.261719 18.519531 30.539062 18.519531 30.820312 18.523438 C 30.960938 18.523438 31.101562 18.527344 31.246094 18.527344 C 31.960938 18.53125 32.75 18.234375 33.367188 18.5 Z M 33.367188 18.5 " style="stroke: none; fill-rule: nonzero; fill: rgb(26, 49, 89); fill-opacity: 1;"></path><path d="M 35.355469 11.945312 C 35.808594 12.089844 35.808594 12.089844 36 12.277344 C 36.015625 12.691406 36.015625 13.105469 36.011719 13.515625 C 36.011719 13.742188 36.007812 13.96875 36.007812 14.203125 C 36.003906 14.378906 36.003906 14.554688 36 14.734375 C 35.570312 14.957031 35.570312 14.957031 35.046875 15.109375 C 34.613281 14.917969 34.613281 14.917969 34.285156 14.542969 C 34.191406 14.054688 34.191406 14.054688 34.203125 13.503906 C 34.203125 13.324219 34.203125 13.144531 34.203125 12.957031 C 34.285156 12.464844 34.285156 12.464844 34.546875 12.117188 C 34.855469 11.898438 34.855469 11.898438 35.355469 11.945312 Z M 35.355469 11.945312 " style="stroke: none; fill-rule: nonzero; fill: rgb(24, 49, 87); fill-opacity: 1;"></path><path d="M 27.238281 11.898438 C 27.714844 11.839844 27.714844 11.839844 28.191406 11.898438 C 28.570312 12.277344 28.570312 12.277344 28.617188 12.796875 C 28.609375 13.101562 28.609375 13.101562 28.605469 13.410156 C 28.605469 13.714844 28.605469 13.714844 28.601562 14.023438 C 28.570312 14.542969 28.570312 14.542969 28.382812 14.921875 C 28.035156 15.085938 28.035156 15.085938 27.617188 15.109375 C 27.191406 14.863281 27.191406 14.863281 26.855469 14.355469 C 26.730469 13.417969 26.699219 12.699219 27.238281 11.898438 Z M 27.238281 11.898438 " style="stroke: none; fill-rule: nonzero; fill: rgb(25, 48, 90); fill-opacity: 1;"></path><path d="M 4.191406 14.921875 C 4.316406 14.984375 4.441406 15.046875 4.570312 15.109375 C 4.382812 15.390625 4.382812 15.390625 4.191406 15.679688 C 4.710938 15.851562 5.039062 15.894531 5.578125 15.90625 C 5.742188 15.910156 5.90625 15.914062 6.074219 15.917969 C 6.25 15.921875 6.429688 15.921875 6.609375 15.925781 C 6.789062 15.929688 6.972656 15.933594 7.15625 15.9375 C 7.734375 15.949219 8.316406 15.960938 8.894531 15.972656 C 9.285156 15.980469 9.675781 15.988281 10.070312 15.996094 C 11.03125 16.019531 11.992188 16.035156 12.953125 16.054688 C 12.40625 16.359375 12.015625 16.480469 11.394531 16.480469 C 11.238281 16.484375 11.082031 16.484375 10.921875 16.484375 C 10.757812 16.484375 10.59375 16.484375 10.421875 16.484375 C 10.25 16.484375 10.078125 16.484375 9.902344 16.484375 C 9.539062 16.484375 9.179688 16.484375 8.816406 16.484375 C 8.261719 16.480469 7.707031 16.484375 7.152344 16.484375 C 6.800781 16.484375 6.449219 16.484375 6.101562 16.484375 C 5.933594 16.484375 5.765625 16.484375 5.59375 16.484375 C 4.425781 16.476562 4.425781 16.476562 4 16.054688 C 3.964844 15.570312 3.964844 15.570312 4 15.109375 C 4.0625 15.046875 4.125 14.988281 4.191406 14.921875 Z M 4.191406 14.921875 " style="stroke: none; fill-rule: nonzero; fill: rgb(22, 73, 133); fill-opacity: 1;"></path><path d="M 4.570312 14.921875 C 5.757812 14.917969 6.945312 14.914062 8.132812 14.910156 C 8.535156 14.910156 8.9375 14.910156 9.34375 14.90625 C 9.921875 14.90625 10.503906 14.90625 11.082031 14.902344 C 11.261719 14.902344 11.445312 14.902344 11.632812 14.902344 C 11.800781 14.902344 11.96875 14.902344 12.140625 14.902344 C 12.363281 14.898438 12.363281 14.898438 12.589844 14.898438 C 12.953125 14.921875 12.953125 14.921875 13.332031 15.109375 C 13.332031 15.421875 13.332031 15.734375 13.332031 16.054688 C 13.238281 15.679688 13.238281 15.679688 13.144531 15.300781 C 12.988281 15.332031 12.835938 15.363281 12.679688 15.394531 C 11.863281 15.507812 11.085938 15.492188 10.261719 15.464844 C 10.101562 15.460938 9.9375 15.457031 9.769531 15.453125 C 9.25 15.4375 8.730469 15.421875 8.214844 15.40625 C 7.863281 15.394531 7.507812 15.386719 7.15625 15.375 C 6.292969 15.351562 5.433594 15.328125 4.570312 15.300781 C 4.570312 15.175781 4.570312 15.050781 4.570312 14.921875 Z M 4.570312 14.921875 " style="stroke: none; fill-rule: nonzero; fill: rgb(18, 54, 109); fill-opacity: 1;"></path><path d="M 1.90625 21.15625 C 2.1875 21.34375 2.1875 21.34375 2.476562 21.535156 C 3.039062 21.574219 3.582031 21.59375 4.144531 21.597656 C 4.386719 21.601562 4.386719 21.601562 4.636719 21.605469 C 5.335938 21.617188 6.035156 21.625 6.734375 21.632812 C 7.242188 21.640625 7.753906 21.648438 8.261719 21.65625 C 8.5 21.660156 8.5 21.660156 8.742188 21.660156 C 9.863281 21.679688 9.863281 21.679688 10.285156 22.101562 C 7.644531 22.101562 5.003906 22.101562 2.285156 22.101562 C 2.160156 21.789062 2.035156 21.476562 1.90625 21.15625 Z M 1.90625 21.15625 " style="stroke: none; fill-rule: nonzero; fill: rgb(20, 70, 139); fill-opacity: 1;"></path><path d="M 12.191406 21.910156 C 12.316406 21.972656 12.441406 22.035156 12.570312 22.101562 C 12.382812 22.472656 12.195312 22.847656 12 23.234375 C 11.546875 23.257812 11.546875 23.257812 11.046875 23.234375 C 10.921875 23.109375 10.796875 22.984375 10.667969 22.855469 C 10.667969 22.667969 10.667969 22.480469 10.667969 22.289062 C 7.964844 22.289062 5.261719 22.289062 2.476562 22.289062 C 2.476562 22.226562 2.476562 22.164062 2.476562 22.101562 C 3.660156 22.085938 4.84375 22.074219 6.027344 22.070312 C 6.429688 22.066406 6.832031 22.0625 7.234375 22.058594 C 7.8125 22.050781 8.390625 22.046875 8.96875 22.042969 C 9.238281 22.039062 9.238281 22.039062 9.515625 22.035156 C 9.765625 22.035156 9.765625 22.035156 10.023438 22.035156 C 10.171875 22.035156 10.316406 22.03125 10.46875 22.03125 C 10.960938 22.117188 11.128906 22.28125 11.429688 22.667969 C 11.429688 22.792969 11.429688 22.914062 11.429688 23.042969 C 11.554688 23.042969 11.679688 23.042969 11.808594 23.042969 C 11.835938 22.890625 11.863281 22.742188 11.894531 22.585938 C 12 22.101562 12 22.101562 12.191406 21.910156 Z M 12.191406 21.910156 " style="stroke: none; fill-rule: nonzero; fill: rgb(20, 50, 98); fill-opacity: 1;"></path><path d="M 15.238281 21.34375 C 14.5 21.832031 13.933594 21.792969 13.066406 21.828125 C 12.503906 21.921875 12.335938 22.027344 12 22.476562 C 11.9375 22.664062 11.875 22.851562 11.808594 23.042969 C 11.683594 23.042969 11.558594 23.042969 11.429688 23.042969 C 11.234375 22.792969 11.046875 22.542969 10.855469 22.289062 C 10.667969 22.164062 10.480469 22.039062 10.285156 21.910156 C 10.5625 21.875 10.5625 21.875 10.84375 21.839844 C 11.394531 21.761719 11.933594 21.65625 12.476562 21.535156 C 14.460938 21.085938 14.460938 21.085938 15.238281 21.34375 Z M 15.238281 21.34375 " style="stroke: none; fill-rule: nonzero; fill: rgb(79, 144, 225); fill-opacity: 1;"></path><path d="M 8.761719 11.898438 C 8.925781 11.929688 9.09375 11.957031 9.261719 11.988281 C 10.417969 12.152344 11.585938 12.160156 12.75 12.195312 C 12.988281 12.203125 13.230469 12.210938 13.476562 12.21875 C 14.0625 12.238281 14.652344 12.257812 15.238281 12.277344 C 15.332031 12.746094 15.332031 12.746094 15.429688 13.222656 C 15.335938 13.035156 15.335938 13.035156 15.238281 12.84375 C 14.605469 12.613281 13.964844 12.625 13.296875 12.617188 C 12.957031 12.609375 12.957031 12.609375 12.609375 12.597656 C 12.128906 12.589844 11.652344 12.582031 11.175781 12.574219 C 10.949219 12.570312 10.722656 12.5625 10.488281 12.558594 C 10.175781 12.550781 10.175781 12.550781 9.859375 12.546875 C 9.28125 12.460938 9.109375 12.351562 8.761719 11.898438 Z M 8.761719 11.898438 " style="stroke: none; fill-rule: nonzero; fill: rgb(21, 71, 130); fill-opacity: 1;"></path><path d="M 6.667969 11.710938 C 6.667969 11.835938 6.667969 11.960938 6.667969 12.089844 C 6.082031 12.476562 5.925781 12.515625 5.261719 12.539062 C 5.101562 12.542969 4.941406 12.550781 4.777344 12.558594 C 4.527344 12.566406 4.527344 12.566406 4.273438 12.574219 C 3.945312 12.585938 3.613281 12.597656 3.285156 12.609375 C 3.140625 12.613281 2.992188 12.617188 2.84375 12.621094 C 2.460938 12.632812 2.460938 12.632812 2.09375 12.84375 C 2.15625 12.65625 2.222656 12.46875 2.285156 12.277344 C 2.578125 12.265625 2.578125 12.265625 2.878906 12.25 C 3.136719 12.234375 3.394531 12.222656 3.65625 12.207031 C 3.78125 12.199219 3.910156 12.195312 4.042969 12.1875 C 4.972656 12.136719 5.769531 11.710938 6.667969 11.710938 Z M 6.667969 11.710938 " style="stroke: none; fill-rule: nonzero; fill: rgb(12, 63, 119); fill-opacity: 1;"></path><path d="M 12.191406 21.910156 C 12.316406 21.972656 12.441406 22.035156 12.570312 22.101562 C 12.382812 22.472656 12.195312 22.847656 12 23.234375 C 11.558594 23.292969 11.558594 23.292969 11.046875 23.234375 C 10.703125 22.761719 10.703125 22.761719 10.476562 22.289062 C 10.664062 22.289062 10.851562 22.289062 11.046875 22.289062 C 11.171875 22.539062 11.300781 22.789062 11.429688 23.042969 C 11.554688 23.042969 11.679688 23.042969 11.808594 23.042969 C 11.835938 22.890625 11.863281 22.742188 11.894531 22.585938 C 12 22.101562 12 22.101562 12.191406 21.910156 Z M 12.191406 21.910156 " style="stroke: none; fill-rule: nonzero; fill: rgb(20, 67, 114); fill-opacity: 1;"></path><path d="M 10.285156 21.910156 C 10.726562 21.910156 11.164062 21.910156 11.617188 21.910156 C 11.617188 22.035156 11.617188 22.160156 11.617188 22.289062 C 11.746094 22.351562 11.871094 22.414062 12 22.476562 C 11.9375 22.664062 11.875 22.851562 11.808594 23.042969 C 11.683594 23.042969 11.558594 23.042969 11.429688 23.042969 C 11.234375 22.792969 11.046875 22.542969 10.855469 22.289062 C 10.667969 22.164062 10.480469 22.039062 10.285156 21.910156 Z M 10.285156 21.910156 " style="stroke: none; fill-rule: nonzero; fill: rgb(77, 128, 202); fill-opacity: 1;"></path><path d="M 13.714844 12.277344 C 14.21875 12.277344 14.71875 12.277344 15.238281 12.277344 C 15.300781 12.589844 15.363281 12.902344 15.429688 13.222656 C 15.367188 13.097656 15.304688 12.972656 15.238281 12.84375 C 14.878906 12.714844 14.878906 12.714844 14.464844 12.632812 C 14.324219 12.601562 14.183594 12.570312 14.039062 12.535156 C 13.933594 12.511719 13.824219 12.492188 13.714844 12.464844 C 13.714844 12.40625 13.714844 12.34375 13.714844 12.277344 Z M 13.714844 12.277344 " style="stroke: none; fill-rule: nonzero; fill: rgb(13, 65, 121); fill-opacity: 1;"></path><path d="M 4.191406 14.921875 C 4.316406 14.984375 4.441406 15.046875 4.570312 15.109375 C 4.382812 15.390625 4.382812 15.390625 4.191406 15.679688 C 4.441406 15.800781 4.691406 15.925781 4.953125 16.054688 C 4.582031 16.160156 4.582031 16.160156 4.191406 16.246094 C 4 16.054688 4 16.054688 3.976562 15.582031 C 4 15.109375 4 15.109375 4.191406 14.921875 Z M 4.191406 14.921875 " style="stroke: none; fill-rule: nonzero; fill: rgb(11, 63, 124); fill-opacity: 1;"></path></g></svg>