<svg xmlns="http://www.w3.org/2000/svg" height="50px" width="50px" viewBox="0 0 285 361" fill="none"><g clip-path="url(#clip0_2421_1714)"><path fill-rule="evenodd" clip-rule="evenodd" d="M18.9863 330.72V291.16H265.839V330.72C265.839 337.641 261.684 341.797 254.763 341.797H30.0625C23.1418 341.797 18.9863 337.641 18.9863 330.72ZM79.1181 18.9898H205.707C204.573 23.8576 200.279 29.7355 198.336 33.7714C197.327 35.8693 197.038 37.9796 194.631 37.9796H90.1943C87.6199 37.9796 86.7708 34.1804 83.9004 29.2407L79.1181 18.9898ZM-0.00117196 25.3196V335.467C-0.00117196 346.928 12.4624 360.786 26.8972 360.786H257.927C271.96 360.786 284.826 347.918 284.826 333.885V280.875C284.826 276.734 281.293 272.172 276.915 272.172H18.9859V30.066C18.9859 23.1448 23.1414 18.9898 30.0622 18.9898C61.7667 18.9898 55.6666 16.3896 61.7093 28.4845C63.5466 32.1591 65.4628 35.3072 67.2595 38.7592C70.0249 44.0704 74.283 56.9667 81.4909 56.9667H203.334C210.403 56.9667 214.52 44.7637 217.3 39.2857L225.475 23.724C226.396 21.7863 227.01 18.9898 229.443 18.9898C271.769 18.9898 265.839 11.7409 265.839 70.4161V226.281C265.839 233.348 264.374 243.489 268.054 247.802C273.274 253.926 284.826 250.709 284.826 242.106V26.9007C284.826 12.4654 270.968 -0.000488281 259.509 -0.000488281H25.3154C13.4377 -0.000488281 -0.00195312 13.4419 -0.00195312 25.3192L-0.00117196 25.3196Z" fill="#1A325D"></path><path fill-rule="evenodd" clip-rule="evenodd" d="M94.1486 177.228C97.9857 179.256 101.643 180.962 105.763 183.02C112.853 186.563 138.018 200.964 142.412 200.964C146.455 200.964 151.62 197.553 154.615 195.758C158.529 193.416 162.512 191.705 166.675 189.624L190.676 177.228V200.172C176.785 209.476 162.213 219.953 142.412 219.953C123.461 219.953 96.6557 205.124 94.5239 199.799C93.5385 197.337 94.1486 181.187 94.1486 177.228V177.228ZM212.037 144.789C207.757 145.787 183.464 159.078 177.224 162.195C173.069 164.272 143.761 180.039 142.407 180.042C140.563 180.042 100.33 158.341 90.995 153.483C87.2825 151.55 76.3906 145.629 72.7875 144.79L76.7277 142.402C78.1654 141.689 79.3091 141.163 80.9741 140.318C84.3136 138.624 86.156 137.299 89.665 135.557L142.412 108.755C144.13 108.755 188.877 132.419 194.63 135.294C197.812 136.885 200.448 138.309 203.369 140.007C205.948 141.505 209.761 142.811 212.036 144.79L212.037 144.789ZM41.9301 143.997C41.9301 152.241 50.5491 154.638 56.1708 157.449C62.3596 160.542 68.245 163.702 74.3689 166.944C74.3689 178.46 74.0865 190.316 74.3381 201.787C74.5318 210.768 80.505 214.873 89.8736 221.063C130.819 248.12 166.072 243.857 204.826 213.533C208.594 210.585 210.463 208.468 210.494 201.794C210.544 190.189 210.455 178.551 210.455 166.943C212.879 165.659 221.029 161.171 223.115 160.613C223.115 171.816 219.869 189.096 233.4 189.096C238.153 189.096 242.894 184.355 242.894 179.601V143.997C242.894 138.029 238.084 136.074 233.916 133.986C231.297 132.672 230.223 131.761 227.871 130.539C217.785 125.287 146.388 87.8247 143.204 87.8247C137.008 87.8247 122.432 97.0253 115.511 100.482C106.736 104.867 98.8465 109.212 89.9306 113.669C80.9308 118.168 73.3952 122.333 64.3477 126.857L45.2766 137.058C43.8459 138.289 41.9297 141.818 41.9297 143.997H41.9301Z" fill="#1A325D"></path><path fill-rule="evenodd" clip-rule="evenodd" d="M113.932 315.688C113.932 321.69 117.192 325.972 122.634 325.972H162.193C173.791 325.972 173.791 306.985 162.193 306.985H122.634C118.01 306.985 113.932 311.064 113.932 315.688Z" fill="#1A325D"></path></g><defs><clipPath id="clip0_2421_1714"><rect width="284.827" height="360.787" fill="white"></rect></clipPath></defs></svg>