<svg xmlns="http://www.w3.org/2000/svg" xmlns:xlink="http://www.w3.org/1999/xlink" width="52px" height="52px" viewBox="0 0 52 45" version="1.1"><g id="surface1"><path d="M 19.875 -0.03125 C 20.070312 -0.0351562 20.265625 -0.0351562 20.464844 -0.0390625 C 20.671875 -0.0390625 20.882812 -0.0390625 21.097656 -0.0390625 C 21.3125 -0.0429688 21.527344 -0.0429688 21.753906 -0.0429688 C 22.210938 -0.046875 22.667969 -0.046875 23.128906 -0.046875 C 23.824219 -0.0507812 24.519531 -0.0546875 25.214844 -0.0625 C 25.660156 -0.0625 26.109375 -0.0625 26.554688 -0.0664062 C 26.863281 -0.0664062 26.863281 -0.0664062 27.179688 -0.0703125 C 29.113281 -0.0664062 30.757812 0.246094 32.183594 1.578125 C 33.390625 2.949219 33.5625 4.394531 33.542969 6.152344 C 33.539062 6.296875 33.539062 6.445312 33.539062 6.59375 C 33.535156 6.949219 33.53125 7.308594 33.527344 7.664062 C 33.652344 7.660156 33.777344 7.660156 33.90625 7.660156 C 35.207031 7.640625 36.503906 7.628906 37.804688 7.621094 C 38.289062 7.617188 38.773438 7.609375 39.257812 7.605469 C 39.957031 7.59375 40.652344 7.589844 41.351562 7.585938 C 41.675781 7.582031 41.675781 7.582031 42.003906 7.574219 C 43.859375 7.574219 45.296875 8.054688 46.679688 9.292969 C 47.632812 10.351562 48 11.585938 47.984375 12.976562 C 47.972656 14.878906 48.121094 15.953125 49.519531 17.378906 C 50.816406 18.761719 51.394531 20.601562 51.800781 22.402344 C 51.84375 22.59375 51.890625 22.78125 51.9375 22.980469 C 52.269531 26.152344 51.523438 29.136719 49.792969 31.835938 C 49.507812 32.132812 49.214844 32.421875 48.914062 32.707031 C 47.980469 33.648438 48.042969 34.554688 48.023438 35.816406 C 47.941406 37.394531 47.355469 38.8125 46.175781 39.890625 C 44.816406 40.78125 43.703125 41.09375 42.0625 41.101562 C 41.675781 41.105469 41.675781 41.105469 41.277344 41.105469 C 40.996094 41.109375 40.714844 41.109375 40.433594 41.109375 C 40.144531 41.109375 39.855469 41.113281 39.566406 41.113281 C 38.960938 41.117188 38.355469 41.117188 37.75 41.117188 C 36.972656 41.117188 36.195312 41.121094 35.417969 41.128906 C 34.820312 41.132812 34.222656 41.132812 33.625 41.132812 C 33.339844 41.132812 33.054688 41.136719 32.765625 41.136719 C 32.367188 41.140625 31.96875 41.140625 31.566406 41.140625 C 31.226562 41.140625 31.226562 41.140625 30.878906 41.140625 C 30.316406 41.070312 30.316406 41.070312 29.933594 40.804688 C 29.714844 40.480469 29.714844 40.480469 29.777344 39.953125 C 29.84375 39.726562 29.84375 39.726562 29.914062 39.496094 C 30.574219 39.28125 31.0625 39.277344 31.757812 39.273438 C 32.140625 39.269531 32.140625 39.269531 32.535156 39.269531 C 32.738281 39.269531 32.738281 39.269531 32.949219 39.269531 C 33.378906 39.265625 33.808594 39.265625 34.238281 39.261719 C 35.460938 39.25 36.683594 39.242188 37.902344 39.238281 C 38.652344 39.234375 39.398438 39.230469 40.148438 39.222656 C 40.429688 39.21875 40.714844 39.21875 41 39.21875 C 42.601562 39.21875 43.816406 39.191406 45.171875 38.320312 C 45.511719 37.96875 45.511719 37.96875 45.664062 37.570312 C 45.722656 37.445312 45.777344 37.324219 45.839844 37.199219 C 46.023438 36.597656 46.097656 35.992188 46.175781 35.371094 C 45.992188 35.449219 45.804688 35.527344 45.609375 35.609375 C 41.8125 37.167969 38.265625 37.714844 34.335938 36.199219 C 33.585938 35.886719 32.851562 35.539062 32.125 35.175781 C 31.84375 35.410156 31.84375 35.410156 31.558594 35.652344 C 31.453125 35.742188 31.347656 35.832031 31.242188 35.921875 C 30.910156 36.367188 30.824219 36.648438 30.683594 37.171875 C 30.335938 38.222656 29.746094 38.84375 28.945312 39.601562 C 28.8125 39.730469 28.679688 39.863281 28.539062 39.996094 C 28.257812 40.269531 27.972656 40.542969 27.6875 40.816406 C 27.253906 41.230469 26.828125 41.648438 26.398438 42.066406 C 26.125 42.332031 25.847656 42.601562 25.570312 42.867188 C 25.441406 42.992188 25.316406 43.113281 25.183594 43.242188 C 24.152344 44.222656 23.097656 45.113281 21.582031 45.109375 C 20.496094 45.066406 19.8125 44.796875 19.074219 44.015625 C 18.417969 43.105469 18.28125 42.15625 18.472656 41.070312 C 18.9375 39.929688 19.699219 39.183594 20.570312 38.328125 C 20.789062 38.109375 20.789062 38.109375 21.015625 37.886719 C 21.324219 37.578125 21.636719 37.273438 21.945312 36.96875 C 22.421875 36.503906 22.890625 36.03125 23.363281 35.5625 C 23.664062 35.261719 23.96875 34.964844 24.269531 34.667969 C 24.410156 34.527344 24.550781 34.386719 24.691406 34.242188 C 25.609375 33.355469 26.242188 33.050781 27.503906 32.816406 C 28.101562 32.332031 28.101562 32.332031 28.507812 31.835938 C 28.316406 31.339844 28.113281 30.863281 27.871094 30.394531 C 26.972656 28.652344 26.5 26.714844 26.5 24.761719 C 22.394531 24.761719 18.285156 24.761719 14.054688 24.761719 C 14.054688 25.863281 14.054688 26.964844 14.054688 28.101562 C 13.355469 29.464844 13.355469 29.464844 12.449219 30.066406 C 11.5 30.375 10.734375 30.375 9.800781 30.015625 C 9.015625 29.539062 8.527344 29.164062 8.230469 28.296875 C 8.214844 28.019531 8.210938 27.742188 8.210938 27.464844 C 8.210938 27.308594 8.214844 27.148438 8.214844 26.988281 C 8.214844 26.742188 8.214844 26.742188 8.21875 26.492188 C 8.21875 26.324219 8.222656 26.160156 8.222656 25.988281 C 8.222656 25.578125 8.226562 25.167969 8.230469 24.761719 C 8.035156 24.738281 8.035156 24.738281 7.832031 24.714844 C 5.5625 24.394531 3.589844 23.457031 2.007812 21.8125 C 1.941406 21.683594 1.875 21.554688 1.808594 21.417969 C 1.789062 23.363281 1.773438 25.308594 1.765625 27.257812 C 1.761719 28.160156 1.753906 29.0625 1.746094 29.96875 C 1.738281 30.839844 1.734375 31.710938 1.730469 32.585938 C 1.730469 32.917969 1.726562 33.25 1.722656 33.582031 C 1.652344 35.972656 1.652344 35.972656 2.609375 38.121094 C 3.503906 38.953125 4.167969 39.128906 5.378906 39.140625 C 5.734375 39.144531 5.734375 39.144531 6.101562 39.148438 C 6.359375 39.148438 6.617188 39.152344 6.882812 39.152344 C 7.285156 39.15625 7.691406 39.164062 8.09375 39.167969 C 9.09375 39.179688 10.089844 39.191406 11.089844 39.199219 C 11.648438 39.203125 12.207031 39.210938 12.769531 39.214844 C 13.296875 39.222656 13.824219 39.226562 14.351562 39.230469 C 14.589844 39.234375 14.828125 39.238281 15.074219 39.242188 C 15.285156 39.242188 15.496094 39.246094 15.710938 39.246094 C 16.261719 39.300781 16.597656 39.417969 17.066406 39.695312 C 17.101562 40.160156 17.101562 40.160156 17.066406 40.675781 C 16.382812 41.121094 16.140625 41.121094 15.339844 41.125 C 14.992188 41.125 14.992188 41.125 14.640625 41.128906 C 14.265625 41.128906 14.265625 41.128906 13.882812 41.128906 C 13.496094 41.128906 13.496094 41.128906 13.105469 41.132812 C 12.558594 41.132812 12.011719 41.132812 11.46875 41.132812 C 10.773438 41.128906 10.078125 41.132812 9.386719 41.136719 C 8.71875 41.140625 8.050781 41.140625 7.382812 41.140625 C 7.136719 41.144531 6.890625 41.144531 6.636719 41.148438 C 4.832031 41.136719 3.019531 41.015625 1.632812 39.769531 C 1.492188 39.648438 1.351562 39.527344 1.207031 39.402344 C 0.00390625 37.925781 -0.117188 36.460938 -0.105469 34.621094 C -0.105469 34.375 -0.105469 34.128906 -0.109375 33.875 C -0.109375 33.203125 -0.109375 32.53125 -0.109375 31.859375 C -0.105469 31.15625 -0.109375 30.449219 -0.109375 29.742188 C -0.109375 28.558594 -0.109375 27.375 -0.105469 26.1875 C -0.101562 24.824219 -0.101562 23.457031 -0.105469 22.089844 C -0.109375 20.914062 -0.109375 19.738281 -0.109375 18.5625 C -0.105469 17.859375 -0.105469 17.160156 -0.109375 16.457031 C -0.113281 15.675781 -0.109375 14.894531 -0.105469 14.113281 C -0.105469 13.882812 -0.105469 13.652344 -0.109375 13.414062 C -0.0898438 11.785156 0.277344 10.664062 1.140625 9.285156 C 2.300781 8.183594 3.648438 7.636719 5.246094 7.640625 C 5.453125 7.640625 5.65625 7.640625 5.867188 7.640625 C 6.089844 7.640625 6.308594 7.644531 6.535156 7.644531 C 6.875 7.644531 6.875 7.644531 7.21875 7.644531 C 7.941406 7.648438 8.664062 7.648438 9.386719 7.652344 C 9.875 7.652344 10.367188 7.652344 10.855469 7.652344 C 12.054688 7.65625 13.253906 7.660156 14.457031 7.664062 C 14.453125 7.296875 14.453125 7.296875 14.445312 6.925781 C 14.445312 6.605469 14.441406 6.28125 14.441406 5.960938 C 14.4375 5.800781 14.4375 5.640625 14.433594 5.476562 C 14.425781 3.996094 14.652344 2.964844 15.484375 1.71875 C 16.765625 0.519531 18.113281 -0.0195312 19.875 -0.03125 Z M 16.816406 3.035156 C 16.097656 4.058594 16.007812 4.929688 16.035156 6.152344 C 16.039062 6.296875 16.039062 6.445312 16.042969 6.59375 C 16.046875 6.949219 16.054688 7.308594 16.0625 7.664062 C 16.527344 7.664062 16.988281 7.664062 17.46875 7.664062 C 17.476562 7.476562 17.488281 7.289062 17.496094 7.097656 C 17.519531 6.726562 17.519531 6.726562 17.542969 6.351562 C 17.554688 6.105469 17.570312 5.863281 17.585938 5.609375 C 17.683594 4.78125 17.78125 4.1875 18.421875 3.613281 C 18.957031 3.289062 19.265625 3.265625 19.890625 3.261719 C 20.09375 3.257812 20.296875 3.257812 20.503906 3.253906 C 20.722656 3.253906 20.9375 3.253906 21.164062 3.253906 C 21.5 3.253906 21.5 3.253906 21.84375 3.253906 C 22.316406 3.25 22.789062 3.25 23.265625 3.253906 C 23.988281 3.253906 24.714844 3.25 25.441406 3.242188 C 25.902344 3.242188 26.363281 3.242188 26.820312 3.242188 C 27.039062 3.242188 27.257812 3.238281 27.480469 3.238281 C 27.683594 3.238281 27.886719 3.238281 28.09375 3.242188 C 28.269531 3.242188 28.449219 3.242188 28.632812 3.242188 C 29.265625 3.371094 29.507812 3.644531 29.914062 4.125 C 30.234375 4.75 30.191406 5.429688 30.230469 6.117188 C 30.238281 6.265625 30.246094 6.414062 30.253906 6.566406 C 30.277344 6.929688 30.296875 7.296875 30.316406 7.664062 C 30.78125 7.664062 31.246094 7.664062 31.722656 7.664062 C 31.910156 5.070312 31.910156 5.070312 30.917969 2.75 C 30.066406 1.960938 29.421875 1.746094 28.269531 1.734375 C 28.054688 1.730469 27.84375 1.730469 27.621094 1.726562 C 27.390625 1.726562 27.160156 1.722656 26.925781 1.722656 C 26.6875 1.71875 26.449219 1.71875 26.207031 1.71875 C 25.703125 1.714844 25.203125 1.710938 24.703125 1.710938 C 23.933594 1.707031 23.167969 1.699219 22.402344 1.691406 C 21.914062 1.6875 21.425781 1.6875 20.9375 1.683594 C 20.710938 1.679688 20.480469 1.679688 20.246094 1.675781 C 18.648438 1.679688 17.914062 1.871094 16.816406 3.035156 Z M 19.273438 4.914062 C 19.273438 5.820312 19.273438 6.726562 19.273438 7.664062 C 22.386719 7.664062 25.503906 7.664062 28.710938 7.664062 C 28.710938 6.820312 28.710938 5.976562 28.710938 5.109375 C 28.355469 4.683594 28.355469 4.683594 27.925781 4.667969 C 27.769531 4.667969 27.617188 4.667969 27.457031 4.667969 C 27.28125 4.667969 27.101562 4.667969 26.921875 4.667969 C 26.636719 4.667969 26.636719 4.667969 26.34375 4.671875 C 26.050781 4.671875 26.050781 4.671875 25.753906 4.671875 C 25.339844 4.671875 24.929688 4.671875 24.515625 4.675781 C 23.882812 4.679688 23.246094 4.679688 22.613281 4.679688 C 22.214844 4.679688 21.8125 4.683594 21.414062 4.683594 C 21.222656 4.683594 21.03125 4.683594 20.835938 4.683594 C 20.570312 4.6875 20.570312 4.6875 20.300781 4.6875 C 20.148438 4.6875 19.992188 4.6875 19.832031 4.691406 C 19.46875 4.679688 19.46875 4.679688 19.273438 4.914062 Z M 2.535156 10.378906 C 2.394531 10.511719 2.394531 10.511719 2.253906 10.652344 C 0.96875 12.488281 1.40625 15.777344 1.722656 17.875 C 2.308594 19.863281 3.839844 21.3125 5.609375 22.378906 C 6.488281 22.84375 7.234375 23.046875 8.230469 22.992188 C 8.25 22.875 8.269531 22.757812 8.292969 22.640625 C 8.480469 21.652344 8.664062 20.953125 9.4375 20.238281 C 10.234375 19.796875 10.941406 19.753906 11.84375 19.847656 C 12.667969 20.140625 13.148438 20.476562 13.628906 21.199219 C 13.851562 21.8125 13.851562 21.8125 14.054688 22.992188 C 18.226562 22.992188 22.402344 22.992188 26.703125 22.992188 C 26.96875 22.082031 27.234375 21.175781 27.503906 20.238281 C 29.042969 16.78125 31.359375 14.558594 34.945312 13.160156 C 38.621094 11.972656 42.324219 12.371094 45.777344 14.011719 C 45.976562 14.121094 46.171875 14.230469 46.378906 14.34375 C 46.339844 12.085938 46.339844 12.085938 45.171875 10.21875 C 43.988281 9.332031 42.878906 9.207031 41.429688 9.207031 C 41.199219 9.207031 41.199219 9.207031 40.960938 9.207031 C 40.441406 9.203125 39.917969 9.203125 39.398438 9.203125 C 39.023438 9.203125 38.652344 9.203125 38.277344 9.203125 C 37.261719 9.199219 36.25 9.199219 35.234375 9.195312 C 34.601562 9.195312 33.964844 9.195312 33.332031 9.195312 C 31.347656 9.191406 29.363281 9.191406 27.378906 9.1875 C 25.089844 9.1875 22.800781 9.183594 20.511719 9.179688 C 18.738281 9.175781 16.96875 9.171875 15.199219 9.171875 C 14.144531 9.171875 13.085938 9.171875 12.027344 9.167969 C 11.035156 9.164062 10.039062 9.164062 9.042969 9.164062 C 8.679688 9.164062 8.316406 9.164062 7.949219 9.164062 C 7.453125 9.160156 6.953125 9.160156 6.453125 9.164062 C 6.238281 9.160156 6.238281 9.160156 6.019531 9.160156 C 4.765625 9.171875 3.429688 9.457031 2.535156 10.378906 Z M 10.097656 21.730469 C 9.738281 22.382812 9.777344 22.894531 9.800781 23.628906 C 9.804688 23.878906 9.8125 24.125 9.816406 24.382812 C 9.824219 24.570312 9.832031 24.761719 9.835938 24.957031 C 10.699219 24.957031 11.558594 24.957031 12.449219 24.957031 C 12.464844 24.355469 12.464844 24.355469 12.484375 23.742188 C 12.492188 23.515625 12.5 23.289062 12.507812 23.054688 C 12.441406 22.339844 12.308594 21.976562 11.84375 21.417969 C 10.886719 21.261719 10.886719 21.261719 10.097656 21.730469 Z M 9.835938 26.726562 C 9.902344 27.710938 9.902344 27.710938 10.441406 28.492188 C 11.253906 28.5625 11.554688 28.550781 12.246094 28.101562 C 12.394531 27.398438 12.394531 27.398438 12.449219 26.726562 C 11.585938 26.726562 10.726562 26.726562 9.835938 26.726562 Z M 29.1875 33.699219 C 29.03125 33.863281 28.871094 34.023438 28.710938 34.191406 C 29.207031 34.582031 29.207031 34.582031 29.714844 34.976562 C 29.980469 34.71875 30.246094 34.460938 30.515625 34.191406 C 30.386719 33.867188 30.253906 33.542969 30.117188 33.210938 C 29.640625 33.164062 29.640625 33.164062 29.1875 33.699219 Z M 26.5 34.976562 C 26.304688 35.269531 26.304688 35.269531 26.101562 35.566406 C 26.761719 36.214844 27.425781 36.863281 28.109375 37.53125 C 28.375 37.273438 28.636719 37.015625 28.910156 36.746094 C 28.625 36.449219 28.335938 36.15625 28.046875 35.863281 C 27.882812 35.699219 27.722656 35.535156 27.558594 35.363281 C 27.128906 34.914062 27.128906 34.914062 26.5 34.976562 Z M 24.695312 36.746094 C 24.066406 37.335938 23.441406 37.933594 22.820312 38.527344 C 22.605469 38.730469 22.394531 38.933594 22.179688 39.132812 C 21.871094 39.421875 21.566406 39.714844 21.265625 40.007812 C 21.078125 40.183594 20.894531 40.359375 20.707031 40.539062 C 20.226562 41.136719 20.117188 41.496094 20.078125 42.25 C 20.300781 42.910156 20.46875 43.027344 21.082031 43.429688 C 22.265625 43.40625 22.78125 43.085938 23.589844 42.265625 C 23.6875 42.171875 23.78125 42.074219 23.882812 41.976562 C 24.183594 41.671875 24.484375 41.367188 24.78125 41.058594 C 24.988281 40.851562 25.195312 40.640625 25.402344 40.433594 C 25.90625 39.929688 26.40625 39.417969 26.902344 38.910156 C 26.726562 38.695312 26.542969 38.480469 26.363281 38.269531 C 26.265625 38.152344 26.164062 38.03125 26.058594 37.910156 C 25.640625 37.472656 25.179688 37.113281 24.695312 36.746094 Z M 24.695312 36.746094 " style="stroke: none; fill-rule: nonzero; fill: rgb(25, 49, 91); fill-opacity: 1;"></path><path d="M 43.769531 14.738281 C 43.96875 14.832031 44.171875 14.929688 44.375 15.027344 C 46.589844 16.183594 48.296875 17.828125 49.390625 20.042969 C 49.472656 20.207031 49.554688 20.371094 49.640625 20.539062 C 50.671875 22.984375 50.582031 26.269531 49.640625 28.738281 C 48.207031 31.808594 46.039062 33.847656 42.789062 35.0625 C 40.109375 35.917969 37.246094 35.808594 34.667969 34.6875 C 31.558594 33.140625 29.640625 30.9375 28.507812 27.707031 C 28.265625 26.675781 28.265625 25.679688 28.257812 24.625 C 28.253906 24.4375 28.25 24.253906 28.246094 24.0625 C 28.230469 21.101562 29.492188 18.9375 31.554688 16.847656 C 32.289062 16.152344 33.039062 15.613281 33.929688 15.132812 C 34.136719 15.015625 34.136719 15.015625 34.351562 14.902344 C 37.105469 13.472656 40.96875 13.378906 43.769531 14.738281 Z M 43.769531 14.738281 " style="stroke: none; fill-rule: nonzero; fill: rgb(252, 200, 11); fill-opacity: 1;"></path><path d="M 43.769531 14.738281 C 43.96875 14.832031 44.171875 14.929688 44.375 15.027344 C 45.871094 15.808594 47.105469 16.796875 48.183594 18.078125 C 48.183594 18.207031 48.183594 18.339844 48.183594 18.472656 C 48.082031 18.542969 47.976562 18.617188 47.871094 18.691406 C 47.453125 19.226562 47.578125 19.625 47.660156 20.273438 C 47.769531 20.710938 47.769531 20.710938 48.386719 21.027344 C 48.359375 21.414062 48.328125 21.804688 48.296875 22.191406 C 48.273438 22.519531 48.273438 22.519531 48.25 22.847656 C 48.183594 23.382812 48.183594 23.382812 47.984375 23.582031 C 47.648438 23.589844 47.316406 23.589844 46.980469 23.582031 C 46.863281 23.355469 46.75 23.125 46.628906 22.894531 C 46.554688 22.75 46.480469 22.605469 46.40625 22.457031 C 46.261719 22.175781 46.121094 21.890625 45.988281 21.601562 C 45.09375 19.726562 43.851562 18.574219 41.859375 17.832031 C 39.707031 17.175781 37.550781 17.246094 35.535156 18.273438 C 33.726562 19.359375 32.648438 20.859375 31.921875 22.792969 C 31.699219 24.898438 31.789062 27.15625 33.066406 28.9375 C 34.382812 30.488281 35.816406 31.5625 37.859375 31.980469 C 40.097656 32.140625 42.03125 31.8125 43.886719 30.476562 C 45.417969 29.167969 46.214844 27.84375 46.78125 25.9375 C 47.257812 25.816406 47.257812 25.816406 47.785156 25.742188 C 47.917969 25.871094 48.046875 26 48.183594 26.136719 C 48.144531 26.613281 48.078125 27.042969 47.984375 27.511719 C 47.949219 27.722656 47.949219 27.722656 47.914062 27.9375 C 47.707031 29.078125 47.265625 29.914062 46.578125 30.851562 C 46.777344 31.144531 46.777344 31.144531 46.980469 31.441406 C 47.113281 31.441406 47.246094 31.441406 47.382812 31.441406 C 47.464844 31.203125 47.464844 31.203125 47.546875 30.960938 C 47.625 30.796875 47.703125 30.628906 47.785156 30.457031 C 47.984375 30.394531 48.179688 30.328125 48.386719 30.261719 C 48.453125 30.132812 48.519531 30.003906 48.585938 29.867188 C 48.71875 29.933594 48.851562 30 48.988281 30.066406 C 47.050781 32.6875 44.820312 34.777344 41.445312 35.457031 C 37.984375 35.90625 35.050781 35.265625 32.210938 33.234375 C 30.1875 31.574219 28.757812 29.285156 28.308594 26.726562 C 28.261719 26.023438 28.261719 25.324219 28.257812 24.625 C 28.253906 24.4375 28.25 24.253906 28.246094 24.0625 C 28.230469 21.101562 29.492188 18.9375 31.554688 16.847656 C 32.289062 16.152344 33.039062 15.613281 33.929688 15.132812 C 34.136719 15.015625 34.136719 15.015625 34.351562 14.902344 C 37.105469 13.472656 40.96875 13.378906 43.769531 14.738281 Z M 43.769531 14.738281 " style="stroke: none; fill-rule: nonzero; fill: rgb(245, 198, 20); fill-opacity: 1;"></path><path d="M 45.171875 17.699219 C 46.644531 18.976562 48.070312 20.9375 48.25 22.894531 C 48.183594 23.382812 48.183594 23.382812 47.984375 23.582031 C 47.648438 23.589844 47.316406 23.589844 46.980469 23.582031 C 46.863281 23.355469 46.75 23.125 46.628906 22.894531 C 46.554688 22.75 46.480469 22.605469 46.40625 22.457031 C 46.261719 22.175781 46.121094 21.890625 45.988281 21.601562 C 45.09375 19.726562 43.851562 18.574219 41.859375 17.832031 C 39.707031 17.175781 37.550781 17.246094 35.535156 18.273438 C 33.726562 19.359375 32.648438 20.859375 31.921875 22.792969 C 31.699219 24.898438 31.789062 27.15625 33.066406 28.9375 C 34.382812 30.488281 35.816406 31.5625 37.859375 31.980469 C 40.097656 32.140625 42.03125 31.8125 43.886719 30.476562 C 45.417969 29.167969 46.214844 27.84375 46.78125 25.9375 C 47.257812 25.816406 47.257812 25.816406 47.785156 25.742188 C 47.917969 25.871094 48.046875 26 48.183594 26.136719 C 48.125 27.613281 47.449219 29.0625 46.578125 30.261719 C 46.445312 30.261719 46.3125 30.261719 46.175781 30.261719 C 46.132812 30.375 46.089844 30.484375 46.042969 30.601562 C 45.183594 32.039062 43.199219 33.042969 41.613281 33.488281 C 38.980469 33.949219 36.417969 33.632812 34.152344 32.179688 C 32.132812 30.78125 30.617188 28.859375 30.175781 26.433594 C 29.84375 23.625 30.367188 21.1875 32.132812 18.902344 C 32.789062 18.183594 33.519531 17.632812 34.332031 17.097656 C 34.542969 16.949219 34.753906 16.804688 34.972656 16.652344 C 38.328125 14.882812 42.179688 15.683594 45.171875 17.699219 Z M 45.171875 17.699219 " style="stroke: none; fill-rule: nonzero; fill: rgb(45, 56, 63); fill-opacity: 1;"></path><path d="M 45.777344 13.953125 C 45.511719 14.015625 45.246094 14.082031 44.972656 14.148438 C 45.027344 14.53125 45.027344 14.53125 45.171875 14.933594 C 45.371094 15.0625 45.570312 15.195312 45.777344 15.328125 C 45.777344 15.457031 45.777344 15.585938 45.777344 15.71875 C 46.171875 15.816406 46.171875 15.816406 46.578125 15.917969 C 46.578125 16.046875 46.578125 16.175781 46.578125 16.308594 C 46.777344 16.308594 46.976562 16.308594 47.179688 16.308594 C 47.179688 16.441406 47.179688 16.570312 47.179688 16.703125 C 47.3125 16.703125 47.445312 16.703125 47.582031 16.703125 C 47.683594 17.09375 47.683594 17.09375 47.785156 17.488281 C 48.429688 17.507812 48.96875 17.457031 49.589844 17.292969 C 49.792969 17.605469 49.992188 17.921875 50.191406 18.238281 C 50.304688 18.414062 50.417969 18.589844 50.53125 18.769531 C 50.796875 19.257812 50.796875 19.257812 50.796875 19.847656 C 50.664062 19.847656 50.53125 19.847656 50.394531 19.847656 C 50.429688 19.988281 50.46875 20.132812 50.507812 20.277344 C 50.601562 20.871094 50.515625 21.226562 50.394531 21.8125 C 50.375 22.402344 50.382812 22.992188 50.394531 23.582031 C 50.527344 23.582031 50.660156 23.582031 50.796875 23.582031 C 50.863281 25.648438 50.554688 27.429688 49.589844 29.28125 C 49.390625 28.886719 49.390625 28.886719 49.503906 28.527344 C 49.558594 28.371094 49.617188 28.214844 49.679688 28.050781 C 50.464844 25.332031 50.324219 22.167969 48.988281 19.652344 C 48.570312 18.945312 48.113281 18.3125 47.582031 17.6875 C 47.484375 17.5625 47.382812 17.441406 47.28125 17.316406 C 45.707031 15.589844 43.164062 14.34375 40.824219 14.089844 C 40.273438 14.0625 39.726562 14.054688 39.175781 14.0625 C 38.886719 14.066406 38.886719 14.066406 38.589844 14.066406 C 35.597656 14.136719 33.324219 15.367188 31.121094 17.292969 C 31.121094 17.03125 31.121094 16.773438 31.121094 16.507812 C 31.253906 16.507812 31.382812 16.507812 31.519531 16.507812 C 31.519531 16.375 31.519531 16.246094 31.519531 16.113281 C 31.71875 15.984375 31.917969 15.855469 32.125 15.71875 C 32.125 15.460938 32.125 15.203125 32.125 14.933594 C 32.257812 14.871094 32.386719 14.804688 32.523438 14.738281 C 32.394531 14.609375 32.261719 14.480469 32.125 14.34375 C 36.402344 12.113281 41.429688 11.210938 45.777344 13.953125 Z M 45.777344 13.953125 " style="stroke: none; fill-rule: nonzero; fill: rgb(29, 51, 86); fill-opacity: 1;"></path><path d="M 36.941406 14.34375 C 36.476562 14.539062 36.015625 14.734375 35.535156 14.933594 C 35.667969 15.195312 35.800781 15.453125 35.9375 15.71875 C 36.191406 15.6875 36.445312 15.65625 36.703125 15.621094 C 38.382812 15.453125 40.074219 15.507812 41.761719 15.523438 C 41.761719 15.652344 41.761719 15.785156 41.761719 15.917969 C 42.09375 15.917969 42.421875 15.917969 42.765625 15.917969 C 42.863281 16.207031 42.863281 16.207031 42.964844 16.507812 C 42.816406 16.464844 42.664062 16.421875 42.507812 16.378906 C 39.792969 15.65625 37.238281 15.800781 34.679688 17.011719 C 32.472656 18.324219 31.339844 20.089844 30.484375 22.457031 C 30.28125 23.335938 30.273438 24.144531 30.292969 25.042969 C 30.292969 25.203125 30.296875 25.367188 30.296875 25.535156 C 30.300781 25.929688 30.308594 26.328125 30.316406 26.726562 C 29.730469 26.152344 29.855469 25.664062 29.851562 24.878906 C 29.851562 24.59375 29.851562 24.59375 29.851562 24.304688 C 29.847656 24.117188 29.847656 23.933594 29.84375 23.738281 C 29.839844 22.722656 29.875 22.066406 30.515625 21.222656 C 30.660156 20.59375 30.660156 20.59375 30.71875 20.042969 C 30.519531 20.042969 30.320312 20.042969 30.117188 20.042969 C 30.117188 19.914062 30.117188 19.785156 30.117188 19.652344 C 29.984375 19.652344 29.851562 19.652344 29.714844 19.652344 C 29.648438 19.910156 29.582031 20.167969 29.511719 20.4375 C 29.382812 20.371094 29.25 20.308594 29.113281 20.238281 C 30.28125 17.40625 32.789062 15.597656 35.535156 14.34375 C 36.164062 14.140625 36.335938 14.160156 36.941406 14.34375 Z M 36.941406 14.34375 " style="stroke: none; fill-rule: nonzero; fill: rgb(242, 197, 27); fill-opacity: 1;"></path><path d="M 46.980469 25.742188 C 47.316406 25.796875 47.652344 25.863281 47.984375 25.9375 C 48.355469 27.226562 47.785156 28.34375 47.164062 29.484375 C 46.957031 29.808594 46.957031 29.808594 46.578125 30.261719 C 46.445312 30.261719 46.3125 30.261719 46.175781 30.261719 C 46.113281 30.429688 46.113281 30.429688 46.042969 30.601562 C 45.183594 32.039062 43.199219 33.042969 41.617188 33.488281 C 39.804688 33.804688 37.890625 33.78125 36.140625 33.210938 C 36.140625 33.144531 36.140625 33.078125 36.140625 33.011719 C 36.289062 33.015625 36.4375 33.019531 36.589844 33.027344 C 37.265625 33.042969 37.9375 33.050781 38.609375 33.0625 C 38.84375 33.070312 39.078125 33.074219 39.320312 33.082031 C 39.546875 33.085938 39.769531 33.085938 40 33.089844 C 40.207031 33.09375 40.414062 33.097656 40.628906 33.101562 C 41.1875 33.0625 41.1875 33.0625 41.53125 32.617188 C 41.605469 32.488281 41.683594 32.359375 41.761719 32.226562 C 41.628906 32.164062 41.496094 32.097656 41.359375 32.03125 C 41.359375 32.160156 41.359375 32.289062 41.359375 32.421875 C 40.832031 32.433594 40.304688 32.441406 39.777344 32.449219 C 39.628906 32.453125 39.476562 32.453125 39.324219 32.457031 C 38.929688 32.460938 38.539062 32.445312 38.148438 32.421875 C 38.015625 32.292969 37.882812 32.164062 37.746094 32.03125 C 37.894531 32.039062 38.046875 32.042969 38.203125 32.050781 C 40.898438 32.121094 42.914062 31.378906 44.90625 29.582031 C 45.886719 28.539062 46.359375 27.28125 46.78125 25.9375 C 46.847656 25.875 46.914062 25.808594 46.980469 25.742188 Z M 46.980469 25.742188 " style="stroke: none; fill-rule: nonzero; fill: rgb(55, 62, 64); fill-opacity: 1;"></path><path d="M 46.78125 32.621094 C 46.980469 33.210938 46.980469 33.210938 46.832031 33.699219 C 46.117188 34.476562 45.183594 34.574219 44.167969 34.78125 C 44.167969 34.976562 44.167969 35.171875 44.167969 35.371094 C 43.972656 35.371094 43.773438 35.371094 43.566406 35.371094 C 43.5 35.5 43.433594 35.628906 43.367188 35.765625 C 43.234375 35.765625 43.101562 35.765625 42.964844 35.765625 C 42.964844 35.894531 42.964844 36.023438 42.964844 36.15625 C 43.429688 36.09375 43.894531 36.027344 44.371094 35.960938 C 42.539062 37.15625 39.644531 37.457031 37.53125 37.0625 C 36.382812 36.816406 35.246094 36.519531 34.132812 36.15625 C 34.164062 36.039062 34.199219 35.921875 34.230469 35.800781 C 34.355469 35.347656 34.355469 35.347656 34.332031 34.78125 C 33.835938 34.585938 33.835938 34.585938 33.328125 34.386719 C 33.328125 34.257812 33.328125 34.128906 33.328125 33.996094 C 33.972656 34.195312 34.582031 34.410156 35.199219 34.683594 C 37.570312 35.628906 40.558594 35.796875 42.957031 34.816406 C 44.324219 34.210938 45.632812 33.585938 46.78125 32.621094 Z M 46.78125 32.621094 " style="stroke: none; fill-rule: nonzero; fill: rgb(25, 50, 91); fill-opacity: 1;"></path><path d="M 36.226562 16.359375 C 36.332031 16.40625 36.433594 16.457031 36.539062 16.507812 C 36.40625 16.765625 36.277344 17.023438 36.140625 17.292969 C 36.402344 17.421875 36.667969 17.550781 36.941406 17.6875 C 36.8125 17.742188 36.683594 17.800781 36.550781 17.859375 C 34.503906 18.808594 33.363281 19.824219 32.324219 21.8125 C 32.246094 21.953125 32.171875 22.09375 32.089844 22.238281 C 31.832031 23.09375 31.882812 23.933594 31.898438 24.820312 C 31.898438 25.003906 31.902344 25.1875 31.902344 25.375 C 31.90625 25.824219 31.914062 26.273438 31.921875 26.726562 C 31.789062 26.660156 31.65625 26.59375 31.519531 26.527344 C 31.453125 25.167969 31.390625 23.804688 31.320312 22.402344 C 31.121094 22.335938 30.921875 22.273438 30.71875 22.207031 C 30.652344 23.179688 30.585938 24.152344 30.515625 25.152344 C 30.648438 25.152344 30.78125 25.152344 30.917969 25.152344 C 30.917969 26.125 30.917969 27.097656 30.917969 28.101562 C 30.042969 27.246094 30.074219 25.777344 30.027344 24.625 C 30.070312 22.324219 30.960938 20.183594 32.523438 18.472656 C 33.09375 17.957031 33.6875 17.515625 34.332031 17.097656 C 34.464844 17.007812 34.59375 16.921875 34.730469 16.832031 C 35.253906 16.507812 35.597656 16.296875 36.226562 16.359375 Z M 36.226562 16.359375 " style="stroke: none; fill-rule: nonzero; fill: rgb(44, 58, 61); fill-opacity: 1;"></path><path d="M 41.359375 13.953125 C 42.347656 13.917969 43.066406 13.902344 43.96875 14.34375 C 43.96875 14.476562 43.96875 14.605469 43.96875 14.738281 C 44.234375 14.738281 44.5 14.738281 44.773438 14.738281 C 44.773438 14.867188 44.773438 14.996094 44.773438 15.132812 C 45.269531 15.226562 45.269531 15.226562 45.777344 15.328125 C 45.777344 15.457031 45.777344 15.585938 45.777344 15.71875 C 46.042969 15.785156 46.304688 15.851562 46.578125 15.917969 C 46.578125 16.046875 46.578125 16.175781 46.578125 16.308594 C 46.777344 16.308594 46.976562 16.308594 47.179688 16.308594 C 47.179688 16.441406 47.179688 16.570312 47.179688 16.703125 C 47.3125 16.703125 47.445312 16.703125 47.582031 16.703125 C 47.648438 16.960938 47.714844 17.222656 47.785156 17.488281 C 48.429688 17.507812 48.96875 17.457031 49.589844 17.292969 C 49.792969 17.605469 49.992188 17.921875 50.191406 18.238281 C 50.304688 18.414062 50.417969 18.589844 50.53125 18.769531 C 50.796875 19.257812 50.796875 19.257812 50.796875 19.847656 C 50.664062 19.847656 50.53125 19.847656 50.394531 19.847656 C 50.429688 19.988281 50.46875 20.132812 50.507812 20.277344 C 50.601562 20.871094 50.515625 21.226562 50.394531 21.8125 C 50.375 22.402344 50.382812 22.992188 50.394531 23.582031 C 50.527344 23.582031 50.660156 23.582031 50.796875 23.582031 C 50.863281 25.648438 50.554688 27.429688 49.589844 29.28125 C 49.390625 28.886719 49.390625 28.886719 49.503906 28.527344 C 49.558594 28.371094 49.617188 28.214844 49.679688 28.050781 C 50.464844 25.332031 50.324219 22.167969 48.988281 19.652344 C 48.570312 18.945312 48.113281 18.3125 47.582031 17.6875 C 47.484375 17.5625 47.382812 17.441406 47.28125 17.316406 C 45.796875 15.6875 43.503906 14.613281 41.359375 14.148438 C 41.359375 14.082031 41.359375 14.019531 41.359375 13.953125 Z M 41.359375 13.953125 " style="stroke: none; fill-rule: nonzero; fill: rgb(45, 58, 75); fill-opacity: 1;"></path><path d="M 36.941406 13.953125 C 37.664062 13.945312 38.390625 13.941406 39.113281 13.941406 C 39.320312 13.9375 39.523438 13.9375 39.734375 13.933594 C 40.03125 13.933594 40.03125 13.933594 40.335938 13.933594 C 40.515625 13.933594 40.699219 13.929688 40.886719 13.929688 C 41.359375 13.953125 41.359375 13.953125 41.960938 14.148438 C 42.414062 15.171875 42.414062 15.171875 42.164062 15.917969 C 42.03125 15.917969 41.898438 15.917969 41.761719 15.917969 C 41.761719 15.789062 41.761719 15.65625 41.761719 15.523438 C 41.152344 15.550781 40.546875 15.582031 39.941406 15.609375 C 39.769531 15.617188 39.601562 15.625 39.425781 15.632812 C 38.65625 15.671875 37.917969 15.726562 37.15625 15.839844 C 36.539062 15.917969 36.539062 15.917969 35.9375 15.71875 C 35.9375 15.589844 35.9375 15.460938 35.9375 15.328125 C 35.738281 15.261719 35.539062 15.199219 35.335938 15.132812 C 35.335938 15 35.335938 14.871094 35.335938 14.738281 C 35.917969 14.492188 36.296875 14.34375 36.941406 14.34375 C 36.941406 14.214844 36.941406 14.085938 36.941406 13.953125 Z M 36.941406 13.953125 " style="stroke: none; fill-rule: nonzero; fill: rgb(248, 199, 17); fill-opacity: 1;"></path><path d="M 39.078125 15.679688 C 40.355469 15.628906 41.355469 15.792969 42.351562 16.640625 C 42.457031 16.769531 42.457031 16.769531 42.5625 16.898438 C 41.355469 17.109375 40.183594 17.117188 38.960938 17.109375 C 38.769531 17.109375 38.574219 17.105469 38.371094 17.105469 C 37.894531 17.101562 37.417969 17.101562 36.941406 17.097656 C 36.941406 17.226562 36.941406 17.355469 36.941406 17.488281 C 36.609375 17.488281 36.28125 17.488281 35.9375 17.488281 C 36.089844 16.914062 36.179688 16.574219 36.539062 16.113281 C 37.351562 15.765625 38.203125 15.746094 39.078125 15.679688 Z M 39.078125 15.679688 " style="stroke: none; fill-rule: nonzero; fill: rgb(36, 57, 76); fill-opacity: 1;"></path><path d="M 35.109375 31.171875 C 35.832031 31.175781 36.296875 31.398438 36.929688 31.722656 C 38.355469 32.414062 39.796875 32.402344 41.359375 32.421875 C 41.359375 32.292969 41.359375 32.164062 41.359375 32.03125 C 41.558594 32.09375 41.757812 32.160156 41.960938 32.226562 C 41.664062 32.714844 41.664062 32.714844 41.160156 33.210938 C 40.5625 33.289062 40.09375 33.3125 39.5 33.285156 C 39.285156 33.277344 39.285156 33.277344 39.058594 33.273438 C 38.078125 33.25 37.109375 33.175781 36.140625 33.011719 C 36.074219 32.882812 36.007812 32.753906 35.9375 32.621094 C 35.589844 32.480469 35.589844 32.480469 35.234375 32.335938 C 34.886719 32.1875 34.886719 32.1875 34.53125 32.03125 C 34.464844 31.835938 34.398438 31.640625 34.332031 31.441406 C 34.53125 31.246094 34.53125 31.246094 35.109375 31.171875 Z M 35.109375 31.171875 " style="stroke: none; fill-rule: nonzero; fill: rgb(34, 50, 85); fill-opacity: 1;"></path><path d="M 45.375 15.71875 C 46.453125 16.355469 47.367188 17.140625 48.183594 18.078125 C 48.183594 18.207031 48.183594 18.339844 48.183594 18.472656 C 48.082031 18.542969 47.976562 18.617188 47.871094 18.691406 C 47.453125 19.226562 47.578125 19.625 47.660156 20.273438 C 47.769531 20.710938 47.769531 20.710938 48.386719 21.027344 C 48.320312 21.414062 48.253906 21.804688 48.183594 22.207031 C 47.753906 21.785156 47.585938 21.441406 47.332031 20.902344 C 46.628906 19.5 45.730469 18.359375 44.570312 17.292969 C 44.96875 17.292969 45.367188 17.292969 45.777344 17.292969 C 45.84375 17.03125 45.910156 16.773438 45.976562 16.507812 C 45.84375 16.507812 45.710938 16.507812 45.574219 16.507812 C 45.507812 16.246094 45.441406 15.988281 45.375 15.71875 Z M 45.375 15.71875 " style="stroke: none; fill-rule: nonzero; fill: rgb(236, 193, 31); fill-opacity: 1;"></path><path d="M 43.566406 30.65625 C 43.699219 30.71875 43.832031 30.785156 43.96875 30.851562 C 43.835938 30.980469 43.703125 31.109375 43.566406 31.246094 C 43.667969 31.535156 43.667969 31.535156 43.769531 31.835938 C 43.636719 31.835938 43.503906 31.835938 43.367188 31.835938 C 43.464844 32.222656 43.464844 32.222656 43.566406 32.621094 C 43.285156 32.746094 43 32.875 42.714844 33 C 42.554688 33.070312 42.398438 33.140625 42.234375 33.214844 C 41.285156 33.597656 40.421875 33.640625 39.402344 33.640625 C 39.1875 33.640625 39.1875 33.640625 38.96875 33.640625 C 37.957031 33.628906 37.09375 33.519531 36.140625 33.210938 C 36.140625 33.144531 36.140625 33.078125 36.140625 33.011719 C 36.289062 33.015625 36.4375 33.019531 36.589844 33.027344 C 37.265625 33.042969 37.9375 33.050781 38.609375 33.0625 C 38.84375 33.070312 39.078125 33.074219 39.320312 33.082031 C 39.546875 33.085938 39.769531 33.085938 40 33.089844 C 40.3125 33.097656 40.3125 33.097656 40.628906 33.101562 C 41.1875 33.0625 41.1875 33.0625 41.53125 32.617188 C 41.605469 32.488281 41.683594 32.359375 41.761719 32.226562 C 41.628906 32.164062 41.496094 32.097656 41.359375 32.03125 C 41.359375 32.160156 41.359375 32.289062 41.359375 32.421875 C 40.832031 32.433594 40.304688 32.441406 39.777344 32.449219 C 39.628906 32.453125 39.476562 32.453125 39.324219 32.457031 C 38.929688 32.460938 38.539062 32.445312 38.148438 32.421875 C 38.015625 32.292969 37.882812 32.164062 37.746094 32.03125 C 37.972656 32.039062 37.972656 32.039062 38.203125 32.050781 C 40.125 32.101562 41.683594 31.78125 43.367188 30.851562 C 43.433594 30.785156 43.5 30.722656 43.566406 30.65625 Z M 43.566406 30.65625 " style="stroke: none; fill-rule: nonzero; fill: rgb(48, 55, 52); fill-opacity: 1;"></path><path d="M 30.71875 22.207031 C 31.117188 22.300781 31.117188 22.300781 31.519531 22.402344 C 31.527344 22.527344 31.53125 22.648438 31.535156 22.777344 C 31.558594 23.335938 31.585938 23.894531 31.609375 24.453125 C 31.617188 24.648438 31.625 24.84375 31.632812 25.042969 C 31.640625 25.230469 31.648438 25.414062 31.660156 25.605469 C 31.664062 25.777344 31.671875 25.949219 31.679688 26.128906 C 31.679688 26.527344 31.679688 26.527344 31.921875 26.726562 C 31.929688 27.183594 31.929688 27.640625 31.921875 28.101562 C 31.65625 28.164062 31.394531 28.230469 31.121094 28.296875 C 30.609375 27.546875 30.65625 26.804688 30.71875 25.9375 C 30.820312 25.449219 30.820312 25.449219 30.917969 25.152344 C 30.785156 25.152344 30.652344 25.152344 30.515625 25.152344 C 30.5 24.140625 30.546875 23.203125 30.71875 22.207031 Z M 30.71875 22.207031 " style="stroke: none; fill-rule: nonzero; fill: rgb(27, 49, 90); fill-opacity: 1;"></path><path d="M 33.929688 13.363281 C 34.0625 13.425781 34.195312 13.492188 34.332031 13.558594 C 34.265625 13.882812 34.199219 14.207031 34.132812 14.542969 C 34.25 14.5 34.367188 14.457031 34.492188 14.414062 C 36.066406 13.867188 36.066406 13.867188 36.941406 13.953125 C 36.40625 14.21875 35.867188 14.460938 35.3125 14.6875 C 33.769531 15.355469 32.375 16.191406 31.121094 17.292969 C 31.121094 17.03125 31.121094 16.773438 31.121094 16.507812 C 31.253906 16.507812 31.382812 16.507812 31.519531 16.507812 C 31.519531 16.375 31.519531 16.246094 31.519531 16.113281 C 31.71875 15.984375 31.917969 15.855469 32.125 15.71875 C 32.125 15.460938 32.125 15.203125 32.125 14.933594 C 32.257812 14.871094 32.386719 14.804688 32.523438 14.738281 C 32.394531 14.609375 32.261719 14.480469 32.125 14.34375 C 32.414062 14.175781 32.707031 14.007812 33 13.839844 C 33.164062 13.746094 33.328125 13.65625 33.496094 13.558594 C 33.640625 13.492188 33.78125 13.429688 33.929688 13.363281 Z M 33.929688 13.363281 " style="stroke: none; fill-rule: nonzero; fill: rgb(26, 50, 87); fill-opacity: 1;"></path><path d="M 43.566406 32.421875 C 43.699219 32.488281 43.832031 32.554688 43.96875 32.621094 C 43.902344 32.734375 43.835938 32.847656 43.769531 32.964844 C 43.511719 33.445312 43.511719 33.445312 43.566406 34.191406 C 43.648438 34.09375 43.734375 33.996094 43.820312 33.898438 C 44.167969 33.601562 44.167969 33.601562 44.972656 33.601562 C 44.972656 33.40625 44.972656 33.214844 44.972656 33.011719 C 45.46875 33.109375 45.46875 33.109375 45.976562 33.210938 C 45.433594 33.84375 44.726562 34.164062 43.980469 34.523438 C 43.855469 34.585938 43.734375 34.648438 43.605469 34.714844 C 42.921875 35.046875 42.539062 35.175781 41.761719 35.175781 C 41.761719 35.046875 41.761719 34.914062 41.761719 34.78125 C 41.960938 34.652344 42.15625 34.523438 42.363281 34.386719 C 42.496094 34.195312 42.628906 34 42.765625 33.800781 C 42.539062 33.855469 42.539062 33.855469 42.3125 33.910156 C 41.769531 33.992188 41.46875 33.964844 40.957031 33.800781 C 40.957031 33.667969 40.957031 33.539062 40.957031 33.40625 C 41.128906 33.351562 41.300781 33.296875 41.476562 33.242188 C 41.699219 33.167969 41.921875 33.097656 42.148438 33.023438 C 42.371094 32.953125 42.59375 32.882812 42.820312 32.8125 C 43.34375 32.671875 43.34375 32.671875 43.566406 32.421875 Z M 43.566406 32.421875 " style="stroke: none; fill-rule: nonzero; fill: rgb(235, 194, 35); fill-opacity: 1;"></path><path d="M 30.71875 17.292969 C 30.851562 17.359375 30.984375 17.421875 31.121094 17.488281 C 30.984375 17.640625 30.984375 17.640625 30.847656 17.792969 C 29.96875 18.828125 29.410156 19.832031 28.917969 21.085938 C 28.710938 21.617188 28.710938 21.617188 28.308594 22.402344 C 28.308594 21.816406 28.308594 21.234375 28.308594 20.632812 C 27.976562 20.566406 27.644531 20.503906 27.304688 20.4375 C 27.773438 19.128906 27.773438 19.128906 28.445312 18.777344 C 28.601562 18.742188 28.753906 18.707031 28.910156 18.667969 C 28.976562 18.734375 29.042969 18.796875 29.113281 18.863281 C 29.179688 18.734375 29.246094 18.605469 29.3125 18.472656 C 29.445312 18.472656 29.578125 18.472656 29.714844 18.472656 C 29.714844 18.210938 29.714844 17.953125 29.714844 17.6875 C 30.191406 17.476562 30.191406 17.476562 30.71875 17.292969 Z M 30.71875 17.292969 " style="stroke: none; fill-rule: nonzero; fill: rgb(30, 49, 76); fill-opacity: 1;"></path><path d="M 45.574219 20.4375 C 45.707031 20.4375 45.839844 20.4375 45.976562 20.4375 C 45.976562 20.632812 45.976562 20.824219 45.976562 21.027344 C 46.109375 21.027344 46.242188 21.027344 46.378906 21.027344 C 46.402344 21.152344 46.429688 21.277344 46.453125 21.40625 C 46.515625 21.609375 46.515625 21.609375 46.578125 21.8125 C 46.710938 21.878906 46.84375 21.941406 46.980469 22.007812 C 47.046875 21.488281 47.113281 20.972656 47.179688 20.4375 C 47.964844 21.378906 48.269531 22.160156 48.183594 23.382812 C 47.984375 23.582031 47.984375 23.582031 47.46875 23.59375 C 47.308594 23.589844 47.148438 23.585938 46.980469 23.582031 C 46.433594 22.546875 45.976562 21.53125 45.574219 20.4375 Z M 45.574219 20.4375 " style="stroke: none; fill-rule: nonzero; fill: rgb(40, 57, 70); fill-opacity: 1;"></path><path d="M 45.171875 29.671875 C 45.371094 29.738281 45.570312 29.800781 45.777344 29.867188 C 45.890625 30.371094 45.890625 30.371094 45.777344 31.046875 C 45.234375 31.59375 44.640625 32.039062 43.96875 32.421875 C 43.769531 32.421875 43.570312 32.421875 43.367188 32.421875 C 43.367188 32.230469 43.367188 32.035156 43.367188 31.835938 C 43.5 31.835938 43.632812 31.835938 43.769531 31.835938 C 43.769531 31.703125 43.769531 31.574219 43.769531 31.441406 C 43.636719 31.375 43.503906 31.3125 43.367188 31.246094 C 43.964844 30.726562 44.558594 30.207031 45.171875 29.671875 Z M 45.171875 29.671875 " style="stroke: none; fill-rule: nonzero; fill: rgb(33, 47, 84); fill-opacity: 1;"></path><path d="M 47.179688 26.136719 C 47.378906 26.136719 47.578125 26.136719 47.785156 26.136719 C 47.71875 26.652344 47.652344 27.171875 47.582031 27.707031 C 47.449219 27.707031 47.316406 27.707031 47.179688 27.707031 C 47.179688 27.902344 47.179688 28.097656 47.179688 28.296875 C 47.050781 28.296875 46.917969 28.296875 46.78125 28.296875 C 46.78125 28.6875 46.78125 29.074219 46.78125 29.476562 C 46.382812 29.476562 45.984375 29.476562 45.574219 29.476562 C 45.667969 28.503906 45.945312 28.054688 46.578125 27.3125 C 46.734375 26.886719 46.734375 26.886719 46.78125 26.527344 C 46.914062 26.527344 47.046875 26.527344 47.179688 26.527344 C 47.179688 26.398438 47.179688 26.269531 47.179688 26.136719 Z M 47.179688 26.136719 " style="stroke: none; fill-rule: nonzero; fill: rgb(33, 54, 76); fill-opacity: 1;"></path><path d="M 29.714844 19.652344 C 29.847656 19.652344 29.980469 19.652344 30.117188 19.652344 C 30.117188 19.78125 30.117188 19.910156 30.117188 20.042969 C 30.316406 20.042969 30.511719 20.042969 30.71875 20.042969 C 30.820312 21.085938 30.574219 21.589844 29.914062 22.402344 C 29.714844 22.53125 29.515625 22.660156 29.3125 22.792969 C 29.046875 22.011719 29.097656 21.253906 29.113281 20.4375 C 29.246094 20.4375 29.378906 20.4375 29.511719 20.4375 C 29.578125 20.175781 29.644531 19.917969 29.714844 19.652344 Z M 29.714844 19.652344 " style="stroke: none; fill-rule: nonzero; fill: rgb(254, 202, 10); fill-opacity: 1;"></path><path d="M 31.320312 20.238281 C 31.386719 20.5 31.453125 20.757812 31.519531 21.027344 C 31.390625 21.027344 31.257812 21.027344 31.121094 21.027344 C 30.921875 22.386719 30.722656 23.75 30.515625 25.152344 C 30.648438 25.152344 30.78125 25.152344 30.917969 25.152344 C 30.917969 26.125 30.917969 27.097656 30.917969 28.101562 C 30.042969 27.246094 30.074219 25.777344 30.027344 24.625 C 30.042969 23.328125 30.328125 21.210938 31.320312 20.238281 Z M 31.320312 20.238281 " style="stroke: none; fill-rule: nonzero; fill: rgb(52, 60, 52); fill-opacity: 1;"></path><path d="M 33.328125 33.996094 C 33.972656 34.195312 34.582031 34.410156 35.199219 34.683594 C 36.035156 35.015625 36.859375 35.203125 37.746094 35.371094 C 37.746094 35.4375 37.746094 35.5 37.746094 35.566406 C 36.550781 35.664062 36.550781 35.664062 35.335938 35.765625 C 35.335938 35.957031 35.335938 36.152344 35.335938 36.355469 C 34.738281 36.257812 34.738281 36.257812 34.132812 36.15625 C 34.164062 36.039062 34.199219 35.921875 34.230469 35.800781 C 34.355469 35.347656 34.355469 35.347656 34.332031 34.78125 C 33.835938 34.585938 33.835938 34.585938 33.328125 34.386719 C 33.328125 34.257812 33.328125 34.128906 33.328125 33.996094 Z M 33.328125 33.996094 " style="stroke: none; fill-rule: nonzero; fill: rgb(41, 56, 68); fill-opacity: 1;"></path><path d="M 41.359375 13.953125 C 42.347656 13.917969 43.066406 13.902344 43.96875 14.34375 C 43.96875 14.476562 43.96875 14.605469 43.96875 14.738281 C 44.234375 14.738281 44.5 14.738281 44.773438 14.738281 C 44.773438 14.867188 44.773438 14.996094 44.773438 15.132812 C 45.269531 15.226562 45.269531 15.226562 45.777344 15.328125 C 45.777344 15.457031 45.777344 15.585938 45.777344 15.71875 C 46.042969 15.785156 46.304688 15.851562 46.578125 15.917969 C 46.578125 16.046875 46.578125 16.175781 46.578125 16.308594 C 46.777344 16.308594 46.976562 16.308594 47.179688 16.308594 C 47.179688 16.441406 47.179688 16.570312 47.179688 16.703125 C 47.3125 16.703125 47.445312 16.703125 47.582031 16.703125 C 47.648438 17.027344 47.714844 17.351562 47.785156 17.6875 C 47.597656 17.519531 47.410156 17.351562 47.21875 17.183594 C 45.765625 15.972656 44.246094 15.078125 42.425781 14.507812 C 41.960938 14.34375 41.960938 14.34375 41.359375 13.953125 Z M 41.359375 13.953125 " style="stroke: none; fill-rule: nonzero; fill: rgb(59, 64, 46); fill-opacity: 1;"></path><path d="M 46.78125 32.621094 C 46.980469 33.210938 46.980469 33.210938 46.832031 33.699219 C 46.117188 34.476562 45.183594 34.574219 44.167969 34.78125 C 44.167969 34.976562 44.167969 35.171875 44.167969 35.371094 C 43.839844 35.4375 43.507812 35.5 43.167969 35.566406 C 43.167969 35.4375 43.167969 35.308594 43.167969 35.175781 C 42.703125 35.238281 42.238281 35.304688 41.761719 35.371094 C 42.273438 35.117188 42.792969 34.871094 43.308594 34.625 C 43.59375 34.488281 43.875 34.351562 44.15625 34.214844 C 44.296875 34.148438 44.441406 34.082031 44.585938 34.015625 C 45.398438 33.621094 46.089844 33.207031 46.78125 32.621094 Z M 46.78125 32.621094 " style="stroke: none; fill-rule: nonzero; fill: rgb(44, 55, 63); fill-opacity: 1;"></path><path d="M 28.910156 20.4375 C 28.976562 20.4375 29.042969 20.4375 29.113281 20.4375 C 29.113281 20.957031 29.113281 21.472656 29.113281 22.007812 C 28.980469 22.007812 28.847656 22.007812 28.710938 22.007812 C 28.726562 22.148438 28.742188 22.285156 28.761719 22.425781 C 28.871094 23.425781 28.917969 24.300781 28.75 25.296875 C 28.664062 26.296875 28.8125 27.304688 28.910156 28.296875 C 28.148438 27.175781 28.265625 25.929688 28.257812 24.625 C 28.253906 24.4375 28.25 24.253906 28.246094 24.0625 C 28.238281 22.757812 28.457031 21.660156 28.910156 20.4375 Z M 28.910156 20.4375 " style="stroke: none; fill-rule: nonzero; fill: rgb(219, 190, 59); fill-opacity: 1;"></path><path d="M 45.171875 18.472656 C 45.304688 18.472656 45.4375 18.472656 45.574219 18.472656 C 46.007812 19.105469 46.015625 19.3125 45.976562 20.042969 C 46.136719 20.070312 46.300781 20.101562 46.464844 20.128906 C 46.980469 20.238281 46.980469 20.238281 47.179688 20.4375 C 47.144531 20.964844 47.058594 21.484375 46.980469 22.007812 C 46.78125 21.945312 46.582031 21.878906 46.378906 21.8125 C 46.378906 21.554688 46.378906 21.292969 46.378906 21.027344 C 46.246094 21.027344 46.113281 21.027344 45.976562 21.027344 C 45.976562 20.832031 45.976562 20.636719 45.976562 20.4375 C 45.84375 20.4375 45.710938 20.4375 45.574219 20.4375 C 45.347656 19.699219 45.347656 19.699219 45.574219 19.257812 C 45.441406 19.257812 45.308594 19.257812 45.171875 19.257812 C 45.109375 19.0625 45.042969 18.867188 44.972656 18.667969 C 45.039062 18.601562 45.105469 18.539062 45.171875 18.472656 Z M 45.171875 18.472656 " style="stroke: none; fill-rule: nonzero; fill: rgb(27, 51, 91); fill-opacity: 1;"></path><path d="M 48.183594 18.472656 C 48.628906 18.875 48.921875 19.242188 49.1875 19.773438 C 49.25 19.894531 49.3125 20.011719 49.378906 20.136719 C 50.046875 21.695312 50.277344 22.976562 50.230469 24.675781 C 50.226562 24.871094 50.226562 25.070312 50.222656 25.273438 C 50.214844 25.757812 50.207031 26.242188 50.191406 26.726562 C 50.125 26.726562 50.058594 26.726562 49.992188 26.726562 C 49.988281 26.613281 49.988281 26.503906 49.984375 26.390625 C 49.96875 25.878906 49.949219 25.367188 49.929688 24.859375 C 49.925781 24.683594 49.921875 24.507812 49.914062 24.328125 C 49.867188 23.164062 49.636719 22.300781 49.1875 21.222656 C 49.1875 20.964844 49.1875 20.703125 49.1875 20.4375 C 49.058594 20.4375 48.925781 20.4375 48.789062 20.4375 C 48.789062 20.175781 48.789062 19.917969 48.789062 19.652344 C 48.65625 19.652344 48.523438 19.652344 48.386719 19.652344 C 48.320312 19.261719 48.253906 18.871094 48.183594 18.472656 Z M 48.183594 18.472656 " style="stroke: none; fill-rule: nonzero; fill: rgb(220, 189, 49); fill-opacity: 1;"></path><path d="M 37.746094 17.6875 C 37.347656 17.75 36.949219 17.816406 36.539062 17.882812 C 36.472656 18.078125 36.40625 18.269531 36.339844 18.472656 C 36.207031 18.472656 36.074219 18.472656 35.9375 18.472656 C 35.871094 18.667969 35.804688 18.859375 35.738281 19.0625 C 35.671875 18.929688 35.605469 18.800781 35.535156 18.667969 C 35.089844 18.839844 35.089844 18.839844 34.871094 19.332031 C 34.488281 19.914062 34.167969 20.148438 33.527344 20.4375 C 33.394531 20.371094 33.265625 20.308594 33.128906 20.238281 C 34.082031 19.058594 36.011719 16.9375 37.746094 17.6875 Z M 37.746094 17.6875 " style="stroke: none; fill-rule: nonzero; fill: rgb(219, 186, 48); fill-opacity: 1;"></path><path d="M 45.375 15.71875 C 46.3125 16.277344 46.914062 16.835938 47.582031 17.6875 C 47.054688 17.75 46.523438 17.816406 45.976562 17.882812 C 46.042969 18.207031 46.109375 18.53125 46.175781 18.863281 C 45.945312 18.675781 45.71875 18.488281 45.488281 18.300781 C 45.359375 18.195312 45.230469 18.089844 45.097656 17.980469 C 44.773438 17.6875 44.773438 17.6875 44.570312 17.292969 C 44.96875 17.292969 45.367188 17.292969 45.777344 17.292969 C 45.84375 17.03125 45.910156 16.773438 45.976562 16.507812 C 45.84375 16.507812 45.710938 16.507812 45.574219 16.507812 C 45.507812 16.246094 45.441406 15.988281 45.375 15.71875 Z M 45.375 15.71875 " style="stroke: none; fill-rule: nonzero; fill: rgb(232, 192, 42); fill-opacity: 1;"></path><path d="M 36.539062 16.507812 C 36.40625 16.765625 36.277344 17.023438 36.140625 17.292969 C 36.402344 17.421875 36.667969 17.550781 36.941406 17.6875 C 36.410156 17.878906 35.882812 18.074219 35.335938 18.273438 C 35.335938 18.144531 35.335938 18.015625 35.335938 17.882812 C 35.46875 17.882812 35.601562 17.882812 35.738281 17.882812 C 35.671875 17.753906 35.605469 17.621094 35.535156 17.488281 C 35.207031 17.539062 35.207031 17.539062 34.871094 17.585938 C 34.132812 17.6875 34.132812 17.6875 33.527344 17.6875 C 33.820312 17.492188 34.113281 17.300781 34.40625 17.109375 C 34.570312 17 34.734375 16.894531 34.902344 16.785156 C 35.566406 16.359375 35.78125 16.285156 36.539062 16.507812 Z M 36.539062 16.507812 " style="stroke: none; fill-rule: nonzero; fill: rgb(52, 61, 50); fill-opacity: 1;"></path><path d="M 39.953125 15.5 C 40.128906 15.5 40.304688 15.503906 40.484375 15.503906 C 40.910156 15.507812 41.335938 15.515625 41.761719 15.523438 C 41.761719 15.652344 41.761719 15.785156 41.761719 15.917969 C 42.09375 15.917969 42.421875 15.917969 42.765625 15.917969 C 42.863281 16.207031 42.863281 16.207031 42.964844 16.507812 C 42.816406 16.464844 42.664062 16.421875 42.507812 16.378906 C 40.242188 15.773438 38.433594 15.878906 36.140625 16.308594 C 36.207031 16.179688 36.273438 16.050781 36.339844 15.917969 C 37.5625 15.527344 38.675781 15.472656 39.953125 15.5 Z M 39.953125 15.5 " style="stroke: none; fill-rule: nonzero; fill: rgb(214, 185, 53); fill-opacity: 1;"></path><path d="M 34.53125 31.246094 C 34.796875 31.246094 35.0625 31.246094 35.335938 31.246094 C 35.335938 31.375 35.335938 31.503906 35.335938 31.636719 C 35.566406 31.679688 35.566406 31.679688 35.800781 31.722656 C 36.339844 31.835938 36.339844 31.835938 36.941406 32.03125 C 36.941406 32.160156 36.941406 32.289062 36.941406 32.421875 C 37.074219 32.488281 37.207031 32.554688 37.34375 32.621094 C 36.320312 32.921875 35.769531 32.71875 34.863281 32.265625 C 34.53125 32.03125 34.53125 32.03125 34.332031 31.441406 C 34.398438 31.375 34.464844 31.3125 34.53125 31.246094 Z M 34.53125 31.246094 " style="stroke: none; fill-rule: nonzero; fill: rgb(22, 53, 94); fill-opacity: 1;"></path><path d="M 42.765625 17.292969 C 43.425781 17.359375 44.089844 17.421875 44.773438 17.488281 C 44.839844 17.8125 44.90625 18.136719 44.972656 18.472656 C 44.839844 18.472656 44.707031 18.472656 44.570312 18.472656 C 44.503906 18.601562 44.4375 18.730469 44.371094 18.863281 C 44.101562 18.714844 43.835938 18.5625 43.566406 18.410156 C 43.34375 18.285156 43.34375 18.285156 43.117188 18.15625 C 43 18.066406 42.882812 17.976562 42.765625 17.882812 C 42.765625 17.6875 42.765625 17.492188 42.765625 17.292969 Z M 42.765625 17.292969 " style="stroke: none; fill-rule: nonzero; fill: rgb(33, 47, 79); fill-opacity: 1;"></path><path d="M 34.332031 15.132812 C 34.597656 15.195312 34.863281 15.261719 35.136719 15.328125 C 34.671875 16.429688 34.671875 16.429688 34.054688 16.777344 C 33.523438 16.902344 33.070312 16.929688 32.523438 16.898438 C 32.777344 16.410156 32.777344 16.410156 33.128906 15.917969 C 33.390625 15.917969 33.65625 15.917969 33.929688 15.917969 C 34.0625 15.65625 34.195312 15.398438 34.332031 15.132812 Z M 34.332031 15.132812 " style="stroke: none; fill-rule: nonzero; fill: rgb(254, 195, 13); fill-opacity: 1;"></path><path d="M 43.566406 30.65625 C 43.699219 30.71875 43.832031 30.785156 43.96875 30.851562 C 43.835938 30.980469 43.703125 31.109375 43.566406 31.246094 C 43.632812 31.4375 43.699219 31.632812 43.769531 31.835938 C 43.636719 31.835938 43.503906 31.835938 43.367188 31.835938 C 43.433594 32.09375 43.5 32.351562 43.566406 32.621094 C 43.300781 32.683594 43.039062 32.75 42.765625 32.816406 C 42.699219 32.621094 42.632812 32.425781 42.5625 32.226562 C 42.429688 32.226562 42.296875 32.226562 42.164062 32.226562 C 42.164062 32.097656 42.164062 31.96875 42.164062 31.835938 C 42.03125 31.769531 41.898438 31.703125 41.761719 31.636719 C 41.875 31.582031 41.988281 31.527344 42.105469 31.472656 C 42.253906 31.402344 42.398438 31.332031 42.550781 31.257812 C 42.769531 31.152344 42.769531 31.152344 42.996094 31.042969 C 43.359375 30.878906 43.359375 30.878906 43.566406 30.65625 Z M 43.566406 30.65625 " style="stroke: none; fill-rule: nonzero; fill: rgb(44, 59, 61); fill-opacity: 1;"></path><path d="M 44.972656 32.226562 C 44.972656 32.6875 44.972656 33.144531 44.972656 33.601562 C 44.707031 33.601562 44.441406 33.601562 44.167969 33.601562 C 44.105469 33.796875 44.039062 33.992188 43.96875 34.191406 C 43.835938 34.191406 43.703125 34.191406 43.566406 34.191406 C 43.40625 33.761719 43.40625 33.761719 43.367188 33.210938 C 44.167969 32.226562 44.167969 32.226562 44.972656 32.226562 Z M 44.972656 32.226562 " style="stroke: none; fill-rule: nonzero; fill: rgb(251, 204, 8); fill-opacity: 1;"></path><path d="M 33.730469 17.097656 C 33.667969 17.464844 33.667969 17.464844 33.527344 17.882812 C 32.925781 18.273438 32.925781 18.273438 32.285156 18.203125 C 32.101562 18.160156 31.914062 18.121094 31.722656 18.078125 C 31.722656 17.820312 31.722656 17.558594 31.722656 17.292969 C 32.367188 16.976562 33.015625 17.085938 33.730469 17.097656 Z M 33.730469 17.097656 " style="stroke: none; fill-rule: nonzero; fill: rgb(249, 202, 15); fill-opacity: 1;"></path><path d="M 44.371094 16.113281 C 45.5 16.0625 45.5 16.0625 46.175781 16.507812 C 46.113281 16.765625 46.046875 17.023438 45.976562 17.292969 C 45.023438 17.511719 45.023438 17.511719 44.570312 17.292969 C 44.445312 16.691406 44.445312 16.691406 44.371094 16.113281 Z M 44.371094 16.113281 " style="stroke: none; fill-rule: nonzero; fill: rgb(253, 199, 14); fill-opacity: 1;"></path><path d="M 34.53125 30.65625 C 34.796875 30.785156 35.0625 30.914062 35.335938 31.046875 C 35.203125 31.136719 35.070312 31.226562 34.933594 31.316406 C 34.734375 31.476562 34.734375 31.476562 34.53125 31.636719 C 34.53125 31.765625 34.53125 31.898438 34.53125 32.03125 C 34.707031 32.066406 34.707031 32.066406 34.882812 32.105469 C 35.339844 32.226562 35.722656 32.402344 36.140625 32.621094 C 36.140625 32.75 36.140625 32.878906 36.140625 33.011719 C 34.980469 32.757812 34.265625 32.347656 33.328125 31.636719 C 33.453125 31.585938 33.578125 31.53125 33.703125 31.476562 C 34.191406 31.253906 34.191406 31.253906 34.53125 30.65625 Z M 34.53125 30.65625 " style="stroke: none; fill-rule: nonzero; fill: rgb(51, 55, 50); fill-opacity: 1;"></path><path d="M 39.351562 16.308594 C 40.957031 16.507812 40.957031 16.507812 42.5625 16.703125 C 42.5625 16.769531 42.5625 16.832031 42.5625 16.898438 C 41.550781 17.0625 40.59375 17.117188 39.566406 17.109375 C 39.425781 17.109375 39.289062 17.105469 39.148438 17.105469 C 38.816406 17.101562 38.480469 17.101562 38.148438 17.097656 C 38.148438 17.03125 38.148438 16.964844 38.148438 16.898438 C 38.308594 16.875 38.46875 16.851562 38.636719 16.824219 C 38.804688 16.785156 38.976562 16.746094 39.152344 16.703125 C 39.21875 16.574219 39.28125 16.445312 39.351562 16.308594 Z M 39.351562 16.308594 " style="stroke: none; fill-rule: nonzero; fill: rgb(31, 48, 98); fill-opacity: 1;"></path><path d="M 36.941406 13.953125 C 36.378906 14.230469 35.8125 14.496094 35.234375 14.75 C 35.085938 14.816406 34.933594 14.882812 34.777344 14.953125 C 34.363281 15.117188 33.964844 15.234375 33.527344 15.328125 C 33.460938 14.9375 33.394531 14.550781 33.328125 14.148438 C 33.59375 14.148438 33.859375 14.148438 34.132812 14.148438 C 34.132812 14.277344 34.132812 14.40625 34.132812 14.542969 C 34.25 14.5 34.367188 14.457031 34.492188 14.414062 C 36.066406 13.867188 36.066406 13.867188 36.941406 13.953125 Z M 36.941406 13.953125 " style="stroke: none; fill-rule: nonzero; fill: rgb(42, 56, 55); fill-opacity: 1;"></path><path d="M 31.121094 17.292969 C 31.121094 17.882812 31.121094 17.882812 30.832031 18.335938 C 30.488281 18.917969 30.394531 19.382812 30.316406 20.042969 C 30.25 19.914062 30.183594 19.785156 30.117188 19.652344 C 29.984375 19.652344 29.851562 19.652344 29.714844 19.652344 C 29.648438 19.910156 29.582031 20.167969 29.511719 20.4375 C 29.382812 20.371094 29.25 20.308594 29.113281 20.238281 C 29.644531 19.09375 30.242188 18.210938 31.121094 17.292969 Z M 31.121094 17.292969 " style="stroke: none; fill-rule: nonzero; fill: rgb(226, 187, 48); fill-opacity: 1;"></path><path d="M 30.71875 21.027344 C 30.785156 21.15625 30.851562 21.285156 30.917969 21.417969 C 30.824219 21.644531 30.726562 21.875 30.628906 22.105469 C 30.085938 23.574219 30.269531 25.191406 30.316406 26.726562 C 29.648438 26.070312 29.839844 25.207031 29.839844 24.316406 C 29.835938 24.132812 29.828125 23.949219 29.824219 23.757812 C 29.820312 22.585938 29.9375 21.925781 30.71875 21.027344 Z M 30.71875 21.027344 " style="stroke: none; fill-rule: nonzero; fill: rgb(229, 197, 55); fill-opacity: 1;"></path><path d="M 30.71875 17.292969 C 30.851562 17.359375 30.984375 17.421875 31.121094 17.488281 C 30.972656 17.664062 30.972656 17.664062 30.828125 17.839844 C 30.699219 17.996094 30.574219 18.152344 30.441406 18.3125 C 30.316406 18.464844 30.191406 18.617188 30.0625 18.773438 C 29.71875 19.25 29.507812 19.691406 29.3125 20.238281 C 29.246094 20.238281 29.179688 20.238281 29.113281 20.238281 C 29.085938 18.914062 29.085938 18.914062 29.3125 18.472656 C 29.445312 18.472656 29.578125 18.472656 29.714844 18.472656 C 29.714844 18.210938 29.714844 17.953125 29.714844 17.6875 C 30.191406 17.476562 30.191406 17.476562 30.71875 17.292969 Z M 30.71875 17.292969 " style="stroke: none; fill-rule: nonzero; fill: rgb(37, 59, 56); fill-opacity: 1;"></path><path d="M 47.582031 17.6875 C 47.515625 17.945312 47.449219 18.203125 47.382812 18.472656 C 47.25 18.472656 47.117188 18.472656 46.980469 18.472656 C 46.980469 18.601562 46.980469 18.730469 46.980469 18.863281 C 46.714844 18.863281 46.449219 18.863281 46.175781 18.863281 C 46.046875 18.476562 45.914062 18.085938 45.777344 17.6875 C 46.453125 17.519531 46.914062 17.46875 47.582031 17.6875 Z M 47.582031 17.6875 " style="stroke: none; fill-rule: nonzero; fill: rgb(249, 207, 9); fill-opacity: 1;"></path><path d="M 48.585938 29.867188 C 48.71875 29.933594 48.851562 30 48.988281 30.066406 C 48.664062 30.488281 48.335938 30.910156 48.007812 31.332031 C 47.917969 31.449219 47.824219 31.570312 47.730469 31.695312 C 47.027344 32.597656 47.027344 32.597656 46.578125 32.816406 C 46.753906 31.882812 46.753906 31.882812 46.980469 31.441406 C 47.113281 31.441406 47.246094 31.441406 47.382812 31.441406 C 47.464844 31.203125 47.464844 31.203125 47.546875 30.960938 C 47.625 30.796875 47.703125 30.628906 47.785156 30.457031 C 47.984375 30.394531 48.179688 30.328125 48.386719 30.261719 C 48.453125 30.132812 48.519531 30.003906 48.585938 29.867188 Z M 48.585938 29.867188 " style="stroke: none; fill-rule: nonzero; fill: rgb(223, 186, 45); fill-opacity: 1;"></path><path d="M 31.921875 26.921875 C 32.644531 27.984375 32.644531 27.984375 32.925781 28.492188 C 32.859375 28.625 32.792969 28.753906 32.726562 28.886719 C 32.59375 28.886719 32.460938 28.886719 32.324219 28.886719 C 32.257812 28.757812 32.191406 28.628906 32.125 28.492188 C 31.925781 28.558594 31.726562 28.625 31.519531 28.691406 C 31.585938 29.015625 31.652344 29.339844 31.722656 29.671875 C 31.140625 29.203125 31.019531 28.824219 30.917969 28.101562 C 31.183594 28.101562 31.449219 28.101562 31.722656 28.101562 C 31.789062 27.710938 31.855469 27.324219 31.921875 26.921875 Z M 31.921875 26.921875 " style="stroke: none; fill-rule: nonzero; fill: rgb(53, 62, 49); fill-opacity: 1;"></path><path d="M 47.179688 26.136719 C 47.378906 26.136719 47.578125 26.136719 47.785156 26.136719 C 47.71875 26.652344 47.652344 27.171875 47.582031 27.707031 C 47.449219 27.707031 47.316406 27.707031 47.179688 27.707031 C 47.179688 27.902344 47.179688 28.097656 47.179688 28.296875 C 47.050781 28.296875 46.917969 28.296875 46.78125 28.296875 C 46.78125 27.714844 46.78125 27.128906 46.78125 26.527344 C 46.914062 26.527344 47.046875 26.527344 47.179688 26.527344 C 47.179688 26.398438 47.179688 26.269531 47.179688 26.136719 Z M 47.179688 26.136719 " style="stroke: none; fill-rule: nonzero; fill: rgb(26, 50, 95); fill-opacity: 1;"></path><path d="M 32.925781 20.4375 C 32.992188 20.566406 33.058594 20.695312 33.128906 20.828125 C 32.925781 21.222656 32.726562 21.617188 32.523438 22.007812 C 32.382812 22.644531 32.382812 22.644531 32.324219 23.1875 C 32.191406 23.1875 32.058594 23.1875 31.921875 23.1875 C 31.921875 24.09375 31.921875 25.003906 31.921875 25.9375 C 31.855469 25.9375 31.789062 25.9375 31.722656 25.9375 C 31.570312 23.792969 31.707031 22.3125 32.925781 20.4375 Z M 32.925781 20.4375 " style="stroke: none; fill-rule: nonzero; fill: rgb(215, 189, 58); fill-opacity: 1;"></path><path d="M 47.179688 20.4375 C 47.964844 21.378906 48.269531 22.160156 48.183594 23.382812 C 47.984375 23.582031 47.984375 23.582031 47.46875 23.59375 C 47.308594 23.589844 47.148438 23.585938 46.980469 23.582031 C 47.179688 23.515625 47.378906 23.449219 47.582031 23.382812 C 47.476562 22.394531 47.359375 21.414062 47.179688 20.4375 Z M 47.179688 20.4375 " style="stroke: none; fill-rule: nonzero; fill: rgb(63, 71, 43); fill-opacity: 1;"></path><path d="M 35.535156 17.292969 C 35.601562 17.488281 35.667969 17.683594 35.738281 17.882812 C 35.605469 17.882812 35.472656 17.882812 35.335938 17.882812 C 35.335938 18.011719 35.335938 18.140625 35.335938 18.273438 C 34.871094 18.339844 34.410156 18.40625 33.929688 18.472656 C 34.003906 17.992188 34.003906 17.992188 34.132812 17.488281 C 34.625 17.246094 34.992188 17.277344 35.535156 17.292969 Z M 35.535156 17.292969 " style="stroke: none; fill-rule: nonzero; fill: rgb(28, 51, 90); fill-opacity: 1;"></path><path d="M 41.761719 35.371094 C 41.632812 35.433594 41.503906 35.492188 41.371094 35.554688 C 40.96875 35.730469 40.96875 35.730469 40.757812 35.960938 C 40.363281 35.984375 39.96875 35.996094 39.578125 35.996094 C 39.253906 36 39.253906 36 38.925781 36.007812 C 38.347656 35.960938 38.347656 35.960938 37.746094 35.566406 C 40.480469 35.34375 40.480469 35.34375 41.761719 35.371094 Z M 41.761719 35.371094 " style="stroke: none; fill-rule: nonzero; fill: rgb(42, 57, 49); fill-opacity: 1;"></path><path d="M 46.378906 25.9375 C 46.511719 26.003906 46.644531 26.070312 46.78125 26.136719 C 46.429688 27.277344 46.015625 28.265625 45.375 29.28125 C 45.308594 29.28125 45.242188 29.28125 45.171875 29.28125 C 45.171875 28.957031 45.171875 28.632812 45.171875 28.296875 C 45.304688 28.296875 45.4375 28.296875 45.574219 28.296875 C 45.574219 28.101562 45.574219 27.90625 45.574219 27.707031 C 45.707031 27.707031 45.839844 27.707031 45.976562 27.707031 C 45.976562 27.382812 45.976562 27.058594 45.976562 26.726562 C 46.109375 26.726562 46.242188 26.726562 46.378906 26.726562 C 46.378906 26.464844 46.378906 26.207031 46.378906 25.9375 Z M 46.378906 25.9375 " style="stroke: none; fill-rule: nonzero; fill: rgb(222, 192, 51); fill-opacity: 1;"></path><path d="M 46.980469 25.742188 C 47.316406 25.796875 47.652344 25.863281 47.984375 25.9375 C 48.144531 26.585938 48.203125 26.863281 47.984375 27.511719 C 47.851562 27.511719 47.71875 27.511719 47.582031 27.511719 C 47.648438 27.058594 47.714844 26.601562 47.785156 26.136719 C 47.585938 26.136719 47.386719 26.136719 47.179688 26.136719 C 47.179688 26.265625 47.179688 26.394531 47.179688 26.527344 C 47.050781 26.527344 46.917969 26.527344 46.78125 26.527344 C 46.714844 26.851562 46.648438 27.175781 46.578125 27.511719 C 46.378906 27.117188 46.378906 27.117188 46.554688 26.515625 C 46.78125 25.9375 46.78125 25.9375 46.980469 25.742188 Z M 46.980469 25.742188 " style="stroke: none; fill-rule: nonzero; fill: rgb(59, 61, 38); fill-opacity: 1;"></path><path d="M 30.117188 23.1875 C 30.183594 23.1875 30.25 23.1875 30.316406 23.1875 C 30.382812 23.902344 30.449219 24.613281 30.515625 25.347656 C 30.582031 25.347656 30.648438 25.347656 30.71875 25.347656 C 30.785156 26.257812 30.851562 27.164062 30.917969 28.101562 C 30.148438 27.34375 30.125 26.234375 30.089844 25.210938 C 30.089844 24.535156 30.097656 23.863281 30.117188 23.1875 Z M 30.117188 23.1875 " style="stroke: none; fill-rule: nonzero; fill: rgb(78, 79, 47); fill-opacity: 1;"></path><path d="M 33.65625 17.859375 C 33.8125 17.867188 33.96875 17.875 34.132812 17.882812 C 33.929688 18.472656 33.929688 18.472656 33.527344 18.667969 C 33.460938 18.863281 33.394531 19.058594 33.328125 19.257812 C 33.128906 19.324219 32.929688 19.386719 32.726562 19.453125 C 32.726562 19.324219 32.726562 19.195312 32.726562 19.0625 C 32.59375 19.0625 32.460938 19.0625 32.324219 19.0625 C 32.882812 17.894531 32.882812 17.894531 33.65625 17.859375 Z M 33.65625 17.859375 " style="stroke: none; fill-rule: nonzero; fill: rgb(43, 66, 69); fill-opacity: 1;"></path><path d="M 28.910156 20.4375 C 28.976562 20.4375 29.042969 20.4375 29.113281 20.4375 C 29.113281 20.957031 29.113281 21.472656 29.113281 22.007812 C 28.980469 22.007812 28.847656 22.007812 28.710938 22.007812 C 28.726562 22.152344 28.742188 22.296875 28.761719 22.445312 C 28.78125 22.640625 28.800781 22.832031 28.824219 23.027344 C 28.84375 23.21875 28.867188 23.40625 28.886719 23.601562 C 28.910156 24.160156 28.847656 24.613281 28.710938 25.152344 C 28.644531 25.152344 28.578125 25.152344 28.507812 25.152344 C 28.5 24.585938 28.492188 24.023438 28.484375 23.457031 C 28.480469 23.300781 28.476562 23.140625 28.472656 22.976562 C 28.464844 22.046875 28.542969 21.308594 28.910156 20.4375 Z M 28.910156 20.4375 " style="stroke: none; fill-rule: nonzero; fill: rgb(232, 194, 38); fill-opacity: 1;"></path><path d="M 44.972656 17.882812 C 45.710938 18.171875 46.058594 18.566406 46.527344 19.183594 C 46.714844 19.425781 46.714844 19.425781 46.902344 19.671875 C 47.039062 19.855469 47.039062 19.855469 47.179688 20.042969 C 47.113281 20.171875 47.050781 20.304688 46.980469 20.4375 C 46.503906 20.339844 46.503906 20.339844 45.976562 20.042969 C 45.757812 19.519531 45.675781 19.035156 45.574219 18.472656 C 45.375 18.535156 45.179688 18.601562 44.972656 18.667969 C 44.972656 18.410156 44.972656 18.148438 44.972656 17.882812 Z M 44.972656 17.882812 " style="stroke: none; fill-rule: nonzero; fill: rgb(49, 61, 50); fill-opacity: 1;"></path><path d="M 46.78125 32.621094 C 46.980469 33.210938 46.980469 33.210938 46.753906 33.738281 C 46.378906 34.191406 46.378906 34.191406 45.839844 34.253906 C 45.6875 34.234375 45.53125 34.214844 45.375 34.191406 C 45.375 33.996094 45.375 33.804688 45.375 33.601562 C 45.683594 33.332031 45.683594 33.332031 46.078125 33.074219 C 46.207031 32.988281 46.339844 32.902344 46.472656 32.8125 C 46.574219 32.75 46.675781 32.6875 46.78125 32.621094 Z M 46.78125 32.621094 " style="stroke: none; fill-rule: nonzero; fill: rgb(34, 57, 67); fill-opacity: 1;"></path><path d="M 33.128906 30.261719 C 34.082031 30.433594 34.082031 30.433594 34.53125 30.65625 C 34.398438 30.914062 34.269531 31.171875 34.132812 31.441406 C 33.867188 31.441406 33.601562 31.441406 33.328125 31.441406 C 33.261719 31.050781 33.195312 30.664062 33.128906 30.261719 Z M 33.128906 30.261719 " style="stroke: none; fill-rule: nonzero; fill: rgb(26, 51, 87); fill-opacity: 1;"></path><path d="M 46.578125 19.453125 C 47.074219 19.550781 47.074219 19.550781 47.582031 19.652344 C 47.605469 19.804688 47.625 19.957031 47.644531 20.117188 C 47.738281 20.699219 47.738281 20.699219 48.386719 21.027344 C 48.320312 21.414062 48.253906 21.804688 48.183594 22.207031 C 47.742188 21.769531 47.542969 21.378906 47.269531 20.828125 C 47.183594 20.65625 47.09375 20.480469 47.003906 20.300781 C 46.929688 20.152344 46.855469 20 46.78125 19.847656 C 46.714844 19.71875 46.648438 19.585938 46.578125 19.453125 Z M 46.578125 19.453125 " style="stroke: none; fill-rule: nonzero; fill: rgb(231, 190, 48); fill-opacity: 1;"></path><path d="M 36.140625 33.210938 C 37.597656 33.339844 39.054688 33.46875 40.554688 33.601562 C 40.554688 33.667969 40.554688 33.730469 40.554688 33.800781 C 40.082031 33.84375 39.609375 33.882812 39.136719 33.921875 C 38.875 33.945312 38.613281 33.96875 38.339844 33.992188 C 37.492188 33.996094 36.933594 33.867188 36.140625 33.601562 C 36.140625 33.472656 36.140625 33.34375 36.140625 33.210938 Z M 36.140625 33.210938 " style="stroke: none; fill-rule: nonzero; fill: rgb(219, 190, 63); fill-opacity: 1;"></path><path d="M 41.761719 32.03125 C 41.628906 32.03125 41.496094 32.03125 41.359375 32.03125 C 41.359375 32.160156 41.359375 32.289062 41.359375 32.421875 C 40.832031 32.433594 40.304688 32.441406 39.777344 32.449219 C 39.628906 32.453125 39.476562 32.453125 39.324219 32.457031 C 38.929688 32.460938 38.539062 32.445312 38.148438 32.421875 C 38.015625 32.292969 37.882812 32.164062 37.746094 32.03125 C 37.910156 32.03125 38.074219 32.035156 38.242188 32.039062 C 38.570312 32.039062 38.570312 32.039062 38.898438 32.042969 C 39.113281 32.046875 39.328125 32.046875 39.550781 32.050781 C 41.613281 31.984375 41.613281 31.984375 41.761719 32.03125 Z M 41.761719 32.03125 " style="stroke: none; fill-rule: nonzero; fill: rgb(55, 62, 46); fill-opacity: 1;"></path><path d="M 45.574219 15.71875 C 46.070312 15.816406 46.070312 15.816406 46.578125 15.917969 C 46.578125 16.046875 46.578125 16.175781 46.578125 16.308594 C 46.777344 16.308594 46.976562 16.308594 47.179688 16.308594 C 47.179688 16.441406 47.179688 16.570312 47.179688 16.703125 C 47.3125 16.703125 47.445312 16.703125 47.582031 16.703125 C 47.648438 17.027344 47.714844 17.351562 47.785156 17.6875 C 47.019531 17.054688 46.269531 16.425781 45.574219 15.71875 Z M 45.574219 15.71875 " style="stroke: none; fill-rule: nonzero; fill: rgb(67, 59, 57); fill-opacity: 1;"></path><path d="M 33.929688 15.132812 C 34.0625 15.195312 34.195312 15.261719 34.332031 15.328125 C 33.929688 15.917969 33.929688 15.917969 33.480469 16.089844 C 32.757812 16.378906 32.304688 16.789062 31.722656 17.292969 C 31.589844 17.226562 31.457031 17.164062 31.320312 17.097656 C 31.605469 16.839844 31.886719 16.585938 32.171875 16.335938 C 32.332031 16.191406 32.492188 16.050781 32.652344 15.90625 C 33.074219 15.566406 33.421875 15.316406 33.929688 15.132812 Z M 33.929688 15.132812 " style="stroke: none; fill-rule: nonzero; fill: rgb(217, 194, 58); fill-opacity: 1;"></path><path d="M 41.960938 14.34375 C 42.875 14.429688 43.484375 14.511719 44.167969 15.132812 C 42.671875 15.394531 42.671875 15.394531 42.164062 15.070312 C 41.960938 14.738281 41.960938 14.738281 41.960938 14.34375 Z M 41.960938 14.34375 " style="stroke: none; fill-rule: nonzero; fill: rgb(238, 197, 48); fill-opacity: 1;"></path><path d="M 34.933594 19.0625 C 34.644531 19.808594 34.261719 20.097656 33.527344 20.4375 C 33.394531 20.371094 33.265625 20.308594 33.128906 20.238281 C 34.023438 19.0625 34.023438 19.0625 34.933594 19.0625 Z M 34.933594 19.0625 " style="stroke: none; fill-rule: nonzero; fill: rgb(232, 194, 37); fill-opacity: 1;"></path><path d="M 40.957031 17.488281 C 42.300781 17.816406 43.289062 18.207031 44.371094 19.0625 C 44.171875 19.160156 44.171875 19.160156 43.96875 19.257812 C 43.578125 19.082031 43.578125 19.082031 43.117188 18.816406 C 42.40625 18.414062 41.695312 18.035156 40.957031 17.6875 C 40.957031 17.621094 40.957031 17.554688 40.957031 17.488281 Z M 40.957031 17.488281 " style="stroke: none; fill-rule: nonzero; fill: rgb(221, 195, 63); fill-opacity: 1;"></path><path d="M 32.324219 15.523438 C 32.589844 15.589844 32.855469 15.652344 33.128906 15.71875 C 32.53125 16.238281 31.933594 16.757812 31.320312 17.292969 C 31.253906 17.03125 31.1875 16.773438 31.121094 16.507812 C 31.253906 16.507812 31.382812 16.507812 31.519531 16.507812 C 31.519531 16.375 31.519531 16.246094 31.519531 16.113281 C 31.71875 16.046875 31.917969 15.984375 32.125 15.917969 C 32.191406 15.789062 32.257812 15.65625 32.324219 15.523438 Z M 32.324219 15.523438 " style="stroke: none; fill-rule: nonzero; fill: rgb(52, 56, 55); fill-opacity: 1;"></path><path d="M 49.1875 29.28125 C 49.386719 29.875 49.410156 30.257812 49.1875 30.851562 C 49.058594 30.980469 48.925781 31.109375 48.789062 31.246094 C 48.589844 31.246094 48.390625 31.246094 48.183594 31.246094 C 48.519531 30.589844 48.855469 29.933594 49.1875 29.28125 Z M 49.1875 29.28125 " style="stroke: none; fill-rule: nonzero; fill: rgb(52, 57, 57); fill-opacity: 1;"></path><path d="M 29.113281 28.886719 C 29.5 29.007812 29.5 29.007812 29.914062 29.28125 C 30.066406 29.894531 30.066406 29.894531 30.117188 30.457031 C 30.25 30.457031 30.378906 30.457031 30.515625 30.457031 C 30.449219 30.71875 30.386719 30.976562 30.316406 31.246094 C 30.113281 30.925781 29.914062 30.605469 29.714844 30.285156 C 29.601562 30.109375 29.492188 29.929688 29.375 29.746094 C 29.113281 29.28125 29.113281 29.28125 29.113281 28.886719 Z M 29.113281 28.886719 " style="stroke: none; fill-rule: nonzero; fill: rgb(212, 188, 52); fill-opacity: 1;"></path><path d="M 33.128906 31.441406 C 33.855469 31.832031 34.585938 32.21875 35.335938 32.621094 C 35.335938 32.683594 35.335938 32.75 35.335938 32.816406 C 34.9375 32.816406 34.539062 32.816406 34.132812 32.816406 C 34.078125 32.691406 34.023438 32.566406 33.96875 32.4375 C 33.753906 31.964844 33.753906 31.964844 33.128906 31.835938 C 33.128906 31.703125 33.128906 31.574219 33.128906 31.441406 Z M 33.128906 31.441406 " style="stroke: none; fill-rule: nonzero; fill: rgb(226, 187, 48); fill-opacity: 1;"></path><path d="M 45.171875 29.671875 C 45.371094 29.738281 45.570312 29.800781 45.777344 29.867188 C 45.777344 30.191406 45.777344 30.515625 45.777344 30.851562 C 45.445312 30.851562 45.113281 30.851562 44.773438 30.851562 C 44.949219 29.894531 44.949219 29.894531 45.171875 29.671875 Z M 45.171875 29.671875 " style="stroke: none; fill-rule: nonzero; fill: rgb(31, 49, 88); fill-opacity: 1;"></path><path d="M 41.960938 16.308594 C 42.9375 16.429688 43.714844 16.847656 44.570312 17.292969 C 44.039062 17.492188 43.832031 17.515625 43.292969 17.292969 C 43.136719 17.199219 42.976562 17.105469 42.816406 17.011719 C 42.652344 16.917969 42.492188 16.824219 42.328125 16.726562 C 42.207031 16.65625 42.085938 16.582031 41.960938 16.507812 C 41.960938 16.441406 41.960938 16.375 41.960938 16.308594 Z M 41.960938 16.308594 " style="stroke: none; fill-rule: nonzero; fill: rgb(56, 64, 42); fill-opacity: 1;"></path><path d="M 42.765625 17.292969 C 43.097656 17.292969 43.425781 17.292969 43.769531 17.292969 C 43.835938 17.488281 43.902344 17.683594 43.96875 17.882812 C 43.902344 18.011719 43.835938 18.140625 43.769531 18.273438 C 43.269531 18.082031 43.269531 18.082031 42.765625 17.882812 C 42.765625 17.6875 42.765625 17.492188 42.765625 17.292969 Z M 42.765625 17.292969 " style="stroke: none; fill-rule: nonzero; fill: rgb(29, 44, 94); fill-opacity: 1;"></path><path d="M 45.375 15.71875 C 46.121094 16.175781 46.703125 16.5625 47.179688 17.292969 C 46.703125 17.230469 46.703125 17.230469 46.175781 17.097656 C 45.867188 16.640625 45.617188 16.210938 45.375 15.71875 Z M 45.375 15.71875 " style="stroke: none; fill-rule: nonzero; fill: rgb(227, 196, 50); fill-opacity: 1;"></path><path d="M 34.332031 15.132812 C 34.597656 15.195312 34.863281 15.261719 35.136719 15.328125 C 34.9375 15.585938 34.738281 15.847656 34.53125 16.113281 C 34.269531 16.046875 34.003906 15.984375 33.730469 15.917969 C 33.929688 15.65625 34.128906 15.398438 34.332031 15.132812 Z M 34.332031 15.132812 " style="stroke: none; fill-rule: nonzero; fill: rgb(246, 203, 5); fill-opacity: 1;"></path><path d="M 44.972656 30.65625 C 45.238281 30.785156 45.503906 30.914062 45.777344 31.046875 C 45.3125 31.371094 44.847656 31.695312 44.371094 32.03125 C 44.4375 31.707031 44.503906 31.382812 44.570312 31.046875 C 44.703125 31.046875 44.835938 31.046875 44.972656 31.046875 C 44.972656 30.917969 44.972656 30.789062 44.972656 30.65625 Z M 44.972656 30.65625 " style="stroke: none; fill-rule: nonzero; fill: rgb(47, 65, 66); fill-opacity: 1;"></path><path d="M 32.125 28.296875 C 32.523438 28.886719 32.523438 28.886719 32.523438 29.28125 C 32.394531 29.28125 32.261719 29.28125 32.125 29.28125 C 32.125 29.410156 32.125 29.539062 32.125 29.671875 C 31.992188 29.671875 31.859375 29.671875 31.722656 29.671875 C 31.65625 29.347656 31.589844 29.023438 31.519531 28.691406 C 31.71875 28.558594 31.917969 28.429688 32.125 28.296875 Z M 32.125 28.296875 " style="stroke: none; fill-rule: nonzero; fill: rgb(25, 52, 83); fill-opacity: 1;"></path><path d="M 35.136719 18.472656 C 34.671875 18.796875 34.207031 19.121094 33.730469 19.453125 C 33.730469 19.128906 33.730469 18.804688 33.730469 18.472656 C 34.335938 18.289062 34.507812 18.265625 35.136719 18.472656 Z M 35.136719 18.472656 " style="stroke: none; fill-rule: nonzero; fill: rgb(58, 48, 62); fill-opacity: 1;"></path><path d="M 30.71875 17.292969 C 30.851562 17.359375 30.984375 17.421875 31.121094 17.488281 C 30.753906 17.980469 30.753906 17.980469 30.316406 18.472656 C 30.117188 18.472656 29.917969 18.472656 29.714844 18.472656 C 29.714844 18.210938 29.714844 17.953125 29.714844 17.6875 C 30.191406 17.476562 30.191406 17.476562 30.71875 17.292969 Z M 30.71875 17.292969 " style="stroke: none; fill-rule: nonzero; fill: rgb(52, 52, 67); fill-opacity: 1;"></path><path d="M 44.972656 13.558594 C 45.238281 13.6875 45.503906 13.816406 45.777344 13.953125 C 45.511719 14.015625 45.246094 14.082031 44.972656 14.148438 C 45.039062 14.472656 45.105469 14.796875 45.171875 15.132812 C 45.042969 15.132812 44.910156 15.132812 44.773438 15.132812 C 44.640625 14.808594 44.507812 14.484375 44.371094 14.148438 C 44.570312 13.953125 44.769531 13.757812 44.972656 13.558594 Z M 44.972656 13.558594 " style="stroke: none; fill-rule: nonzero; fill: rgb(29, 56, 79); fill-opacity: 1;"></path><path d="M 42.765625 33.011719 C 42.765625 33.144531 42.765625 33.273438 42.765625 33.40625 C 42.136719 33.769531 41.683594 33.839844 40.957031 33.800781 C 40.957031 33.667969 40.957031 33.539062 40.957031 33.40625 C 42.3125 33.011719 42.3125 33.011719 42.765625 33.011719 Z M 42.765625 33.011719 " style="stroke: none; fill-rule: nonzero; fill: rgb(210, 190, 37); fill-opacity: 1;"></path><path d="M 42.765625 17.292969 C 42.765625 17.488281 42.765625 17.683594 42.765625 17.882812 C 42.964844 17.945312 43.160156 18.011719 43.367188 18.078125 C 42.964844 18.273438 42.964844 18.273438 42.574219 18.164062 C 42.429688 18.109375 42.285156 18.050781 42.136719 17.992188 C 41.992188 17.9375 41.847656 17.878906 41.695312 17.820312 C 41.53125 17.753906 41.53125 17.753906 41.359375 17.6875 C 41.359375 17.621094 41.359375 17.554688 41.359375 17.488281 C 42.3125 17.292969 42.3125 17.292969 42.765625 17.292969 Z M 42.765625 17.292969 " style="stroke: none; fill-rule: nonzero; fill: rgb(57, 66, 61); fill-opacity: 1;"></path><path d="M 31.121094 29.082031 C 32.097656 29.992188 32.097656 29.992188 32.324219 30.65625 C 32.058594 30.65625 31.792969 30.65625 31.519531 30.65625 C 31.390625 30.136719 31.257812 29.617188 31.121094 29.082031 Z M 31.121094 29.082031 " style="stroke: none; fill-rule: nonzero; fill: rgb(226, 181, 64); fill-opacity: 1;"></path><path d="M 45.777344 16.308594 C 45.910156 16.375 46.042969 16.441406 46.175781 16.507812 C 46.113281 16.765625 46.046875 17.023438 45.976562 17.292969 C 45.710938 17.359375 45.445312 17.421875 45.171875 17.488281 C 45.171875 16.898438 45.171875 16.898438 45.476562 16.566406 C 45.625 16.441406 45.625 16.441406 45.777344 16.308594 Z M 45.777344 16.308594 " style="stroke: none; fill-rule: nonzero; fill: rgb(245, 205, 6); fill-opacity: 1;"></path><path d="M 45.375 33.800781 C 45.375 33.992188 45.375 34.1875 45.375 34.386719 C 44.605469 34.679688 44.15625 34.824219 43.367188 34.585938 C 43.625 34.453125 43.886719 34.324219 44.144531 34.191406 C 44.289062 34.121094 44.433594 34.046875 44.582031 33.972656 C 44.972656 33.800781 44.972656 33.800781 45.375 33.800781 Z M 45.375 33.800781 " style="stroke: none; fill-rule: nonzero; fill: rgb(67, 74, 55); fill-opacity: 1;"></path><path d="M 44.371094 29.082031 C 44.636719 29.210938 44.902344 29.34375 45.171875 29.476562 C 44.84375 29.734375 44.511719 29.996094 44.167969 30.261719 C 44.160156 29.933594 44.160156 29.605469 44.167969 29.28125 C 44.234375 29.214844 44.300781 29.148438 44.371094 29.082031 Z M 44.371094 29.082031 " style="stroke: none; fill-rule: nonzero; fill: rgb(237, 196, 30); fill-opacity: 1;"></path><path d="M 31.722656 20.042969 C 31.855469 20.042969 31.988281 20.042969 32.125 20.042969 C 32.125 20.171875 32.125 20.304688 32.125 20.4375 C 32.257812 20.4375 32.386719 20.4375 32.523438 20.4375 C 32.457031 20.695312 32.394531 20.957031 32.324219 21.222656 C 32.125 21.15625 31.925781 21.09375 31.722656 21.027344 C 31.722656 20.703125 31.722656 20.378906 31.722656 20.042969 Z M 31.722656 20.042969 " style="stroke: none; fill-rule: nonzero; fill: rgb(24, 50, 94); fill-opacity: 1;"></path><path d="M 33.527344 18.472656 C 33.59375 18.472656 33.660156 18.472656 33.730469 18.472656 C 33.730469 18.859375 33.730469 19.25 33.730469 19.652344 C 33.398438 19.714844 33.066406 19.78125 32.726562 19.847656 C 32.792969 19.652344 32.859375 19.457031 32.925781 19.257812 C 33.058594 19.257812 33.191406 19.257812 33.328125 19.257812 C 33.394531 19 33.460938 18.738281 33.527344 18.472656 Z M 33.527344 18.472656 " style="stroke: none; fill-rule: nonzero; fill: rgb(35, 48, 91); fill-opacity: 1;"></path></g></svg>