<svg width="50" height="50" viewBox="0 0 600 767" fill="none" xmlns="http://www.w3.org/2000/svg"><g clip-path="url(#clip0_2426_1714)"><path fill-rule="evenodd" clip-rule="evenodd" d="M300 724.852C285.098 724.852 280.985 716.852 275.35 707.346C250.09 664.736 207.102 581.209 176.383 550.15C158.697 532.27 147.758 526.269 129.357 511.244C105.434 491.712 85.877 469.346 69.4113 443.105C12.5113 352.42 16.0528 231.767 77.8413 144.515C81.8378 138.872 87.2559 131.667 92.053 126.3C119.572 95.5161 146.716 72.1934 185.397 54.2643C264.482 17.6084 362.664 21.1387 436.925 65.991C501.507 104.997 547.728 163.886 564.972 239.507C584.555 325.388 561.161 424.43 498.267 486.985C479.269 505.88 471.719 511.359 450.557 526.83C433.675 539.173 419.863 552.69 406.653 568.857C390.212 588.978 369.156 626.019 356.2 649.727L324.002 705.077C318.49 714.303 314.701 724.852 300 724.852ZM0 300.134C0 406.456 54.4205 488.737 114.434 535.889C129.989 548.11 149.647 561.17 161.479 576.398C205.377 632.893 219.161 672.962 253.272 726.175C256.508 731.224 259.71 734.975 262.702 739.442C255.466 739.442 215.323 738.231 210.489 740.742C197.614 747.432 202.333 767 217.296 767H384.323C393.48 767 397.297 761.101 397.297 752.41C397.297 738.837 386.641 739.339 372.984 739.431C360.556 739.513 348.105 739.442 335.675 739.442C338.672 734.967 341.081 732.467 344.31 727L368.108 685.947C372.907 677.075 378.173 668.551 383.634 659.32C394.416 641.098 411.895 608.542 423.915 592.597C444.345 565.498 456.938 558.245 481.405 539.835C550.517 487.832 600 401.261 600 313.103C600 258.317 594.303 217.013 571.364 171.519C485.579 1.39041 279.723 -50.1718 130.689 53.0719L88.7529 87.3398L54.8821 128.049C21.6124 173.1 0 239.987 0 300.135L0 300.134Z" fill="#1A325D"></path><path fill-rule="evenodd" clip-rule="evenodd" d="M304.864 517.357C242.407 517.357 190.516 496.264 149.595 455.351C103.714 409.482 84.3239 361.125 84.3239 292.029C84.3239 262.842 95.553 227.235 105.399 207.727C165.359 88.929 307.53 46.7875 422.275 122.786C427.902 126.513 433.463 130.118 438.231 134.393C464.693 158.122 480.321 176.241 496.778 210.414C507.853 233.409 520.401 279.28 516.125 310.301C515.487 314.935 515.866 318.252 515.667 322.82C515.356 329.948 513.36 339.26 511.757 346.47C489.971 444.455 403.628 517.356 304.864 517.356V517.357ZM55.1348 300.134C55.1348 371.906 87.9209 442.359 141.551 487.707C155.425 499.438 181.569 516.888 198.061 523.617C265.966 551.322 327.054 556.473 397.772 525.937C410.174 520.582 426.075 511.885 436.458 504.631L461.042 485.438C464.91 482.189 466.128 481.805 469.896 478.078L497.85 446.044C501.677 440.746 505.868 434.4 509.522 428.533C528.567 397.97 544.864 351.295 544.864 311.482C544.864 266.947 541.115 235.576 521.624 196.924C510.513 174.89 503.408 162.942 488.352 144.268L460.155 115.719C450.152 106.439 429.338 92.6961 416.748 86.1628C347.212 50.0751 264.395 45.3978 194.052 80.7499C179.297 88.1661 169.283 93.7337 156.6 103.29C150.332 108.012 146.28 111.211 140.137 116.01C96.2768 150.271 55.1354 224.757 55.1354 300.134H55.1348Z" fill="#1A325D"></path><path fill-rule="evenodd" clip-rule="evenodd" d="M194.595 292.029C206.287 294.752 285.741 342.282 295.135 342.282C301.289 342.282 315.838 333.622 320.768 330.622L395.675 292.029C395.675 308.277 395.787 324.54 395.792 340.777C395.795 353.548 390.808 356.194 372.922 366.546C323.943 394.894 267.492 394.35 218.388 367.13C203.572 358.917 194.686 354.067 194.459 342.418C194.139 325.874 194.595 308.664 194.595 292.029ZM295.135 175.312C300.783 178.3 304.363 180.781 310.805 183.964L391.349 226.649C397.501 229.689 420.576 241.378 423.244 245.018C415.355 246.855 371.26 271.843 359.988 277.427C354.002 280.393 350.54 282.967 344.348 286.109L296.757 311.482C288.301 309.512 271.503 299.555 264.253 295.343C259.089 292.343 253.371 289.936 248.087 287.187L184.793 253.196C180.206 250.529 172.492 246.291 167.027 245.018C172.289 237.839 276.846 187.555 295.135 175.312Z" fill="#4194F4"></path><path fill-rule="evenodd" clip-rule="evenodd" d="M194.594 292.028C206.286 294.751 285.74 342.281 295.134 342.281C301.288 342.281 315.837 333.622 320.767 330.621L395.675 292.029C395.675 308.277 395.786 324.54 395.791 340.776C395.794 353.548 390.807 356.193 372.921 366.546C323.942 394.894 267.491 394.349 218.387 367.129C203.571 358.916 194.685 354.066 194.459 342.417C194.138 325.874 194.595 308.664 194.595 292.029L194.594 292.028ZM295.134 175.312C300.783 178.299 304.362 180.78 310.804 183.964L391.349 226.648C397.5 229.689 420.575 241.378 423.243 245.017C415.354 246.855 371.259 271.842 359.987 277.427C354.001 280.393 350.539 282.967 344.347 286.109L296.756 311.481C288.3 309.512 271.502 299.554 264.252 295.342C259.088 292.342 253.37 289.936 248.087 287.186L184.792 253.195C180.205 250.529 172.491 246.29 167.027 245.017C172.288 237.839 276.845 187.555 295.135 175.312H295.134ZM121.621 243.396C121.621 254.48 132.272 257.472 140.143 262.166C149.072 267.49 157.156 270.295 165.405 275.818C165.405 297.969 165.489 320.137 165.4 342.286C165.304 366.43 164.971 363.417 181.398 376.547C184.874 379.327 187.896 381.563 191.652 384.127C205.043 393.271 220.239 400.818 237.362 406.518C252.975 411.714 278.682 416.956 295.135 416.956C302.682 416.956 302.504 415.678 309.778 415.277C317.027 414.877 318.975 414.828 324.59 413.874C335.162 412.078 342.58 409.97 351.693 406.925C381.117 397.088 394.622 387.656 417.041 370.124C425.796 363.277 424.961 358.5 424.876 343.912C424.744 321.228 424.864 298.506 424.864 275.817C428.09 273.658 429.357 272.866 432.972 270.954C432.972 281.542 432.002 383.199 433.579 388.685C436.467 398.736 451.052 401.974 458.306 393.547C468.128 382.137 459.469 283.113 462.127 259.572C463.237 249.739 481.862 242.661 452.953 226.663L385.932 191.534C378.134 187.669 372.27 183.856 363.783 179.634C353.174 174.356 302.617 145.909 296.295 145.269C291.014 144.734 278.302 151.897 272.964 154.77L228.648 178.553C220.594 182.535 214.856 186.308 206.492 190.447L139.531 225.635C132.996 229.422 121.622 233.607 121.622 243.395L121.621 243.396Z" fill="#1A325D"></path></g><defs><clipPath id="clip0_2426_1714"><rect width="600" height="767" fill="white"></rect></clipPath></defs></svg>