<svg xmlns="http://www.w3.org/2000/svg" xmlns:xlink="http://www.w3.org/1999/xlink" width="52px" height="52px" viewBox="0 0 52 37" version="1.1"><g id="surface1"><path d="M 8.890625 0.261719 C 9.007812 0.261719 9.121094 0.261719 9.242188 0.261719 C 9.628906 0.257812 10.015625 0.257812 10.402344 0.257812 C 10.671875 0.257812 10.945312 0.257812 11.214844 0.257812 C 11.785156 0.253906 12.355469 0.253906 12.921875 0.257812 C 13.644531 0.257812 14.367188 0.253906 15.089844 0.25 C 15.648438 0.246094 16.210938 0.246094 16.769531 0.25 C 17.035156 0.25 17.300781 0.246094 17.566406 0.246094 C 19.84375 0.230469 22.054688 0.496094 24.09375 1.570312 C 24.273438 1.664062 24.457031 1.757812 24.644531 1.851562 C 25.160156 2.148438 25.160156 2.148438 25.679688 2.523438 C 26.132812 2.84375 26.132812 2.84375 26.582031 2.804688 C 27.121094 2.597656 27.578125 2.324219 28.066406 2.023438 C 29.949219 0.910156 32.058594 0.316406 34.253906 0.304688 C 34.429688 0.300781 34.429688 0.300781 34.609375 0.300781 C 34.992188 0.300781 35.375 0.296875 35.757812 0.296875 C 35.886719 0.296875 36.019531 0.296875 36.152344 0.296875 C 36.847656 0.292969 37.542969 0.292969 38.234375 0.289062 C 38.949219 0.289062 39.667969 0.285156 40.382812 0.28125 C 40.933594 0.277344 41.484375 0.277344 42.035156 0.277344 C 42.300781 0.277344 42.5625 0.273438 42.828125 0.273438 C 43.195312 0.269531 43.566406 0.269531 43.933594 0.269531 C 44.144531 0.269531 44.355469 0.269531 44.570312 0.269531 C 45.167969 0.335938 45.480469 0.472656 45.960938 0.824219 C 46.339844 1.347656 46.332031 1.804688 46.316406 2.4375 C 46.316406 2.597656 46.3125 2.761719 46.308594 2.929688 C 46.300781 3.113281 46.300781 3.113281 46.296875 3.304688 C 46.421875 3.296875 46.542969 3.292969 46.671875 3.285156 C 48.328125 3.242188 48.328125 3.242188 48.980469 3.800781 C 49.375 4.382812 49.351562 4.628906 49.335938 5.316406 C 49.335938 5.496094 49.332031 5.675781 49.328125 5.859375 C 49.320312 6.066406 49.320312 6.066406 49.316406 6.277344 C 49.441406 6.269531 49.5625 6.265625 49.691406 6.257812 C 49.855469 6.253906 50.019531 6.25 50.1875 6.246094 C 50.347656 6.238281 50.507812 6.234375 50.675781 6.226562 C 51.289062 6.289062 51.539062 6.363281 52 6.773438 C 52.128906 7.328125 52.105469 7.882812 52.09375 8.449219 C 52.09375 8.625 52.09375 8.796875 52.09375 8.972656 C 52.09375 9.542969 52.089844 10.117188 52.082031 10.6875 C 52.082031 11.082031 52.078125 11.476562 52.078125 11.875 C 52.074219 12.914062 52.066406 13.957031 52.058594 15 C 52.050781 16.0625 52.046875 17.125 52.039062 18.1875 C 52.03125 20.273438 52.019531 22.359375 52 24.445312 C 51.601562 24.46875 51.601562 24.46875 51.160156 24.445312 C 50.644531 23.9375 50.777344 23.328125 50.773438 22.644531 C 50.773438 22.492188 50.773438 22.339844 50.769531 22.179688 C 50.765625 21.675781 50.765625 21.167969 50.761719 20.664062 C 50.757812 20.3125 50.757812 19.960938 50.753906 19.609375 C 50.746094 18.6875 50.738281 17.761719 50.734375 16.839844 C 50.726562 15.359375 50.714844 13.878906 50.703125 12.398438 C 50.699219 11.882812 50.695312 11.363281 50.695312 10.84375 C 50.691406 10.53125 50.691406 10.214844 50.6875 9.898438 C 50.6875 9.679688 50.6875 9.679688 50.6875 9.457031 C 50.699219 8.753906 50.699219 8.753906 50.492188 8.09375 C 50.101562 8.027344 49.710938 7.972656 49.316406 7.929688 C 49.316406 8.042969 49.316406 8.160156 49.316406 8.28125 C 49.328125 11.097656 49.335938 13.917969 49.34375 16.738281 C 49.34375 18.101562 49.347656 19.464844 49.355469 20.828125 C 49.359375 22.015625 49.363281 23.203125 49.363281 24.390625 C 49.363281 25.019531 49.367188 25.652344 49.371094 26.28125 C 49.371094 26.871094 49.375 27.464844 49.375 28.058594 C 49.375 28.378906 49.375 28.699219 49.378906 29.019531 C 49.378906 29.210938 49.378906 29.402344 49.375 29.601562 C 49.378906 29.765625 49.378906 29.933594 49.378906 30.101562 C 49.304688 30.648438 49.148438 30.949219 48.8125 31.382812 C 48.324219 31.714844 47.929688 31.753906 47.347656 31.753906 C 47.109375 31.753906 47.109375 31.753906 46.867188 31.753906 C 46.691406 31.753906 46.519531 31.753906 46.339844 31.75 C 46.066406 31.75 46.066406 31.75 45.785156 31.75 C 45.179688 31.75 44.574219 31.75 43.964844 31.746094 C 43.546875 31.746094 43.125 31.746094 42.707031 31.746094 C 41.710938 31.742188 40.71875 31.742188 39.726562 31.738281 C 38.484375 31.734375 37.242188 31.730469 36 31.730469 C 33.785156 31.726562 31.570312 31.722656 29.355469 31.714844 C 29.359375 31.886719 29.363281 32.058594 29.367188 32.238281 C 29.371094 32.464844 29.371094 32.695312 29.375 32.921875 C 29.378906 33.035156 29.382812 33.148438 29.382812 33.269531 C 29.390625 33.890625 29.378906 34.15625 29.019531 34.6875 C 28.523438 34.75 28.523438 34.75 27.898438 34.746094 C 27.789062 34.746094 27.675781 34.746094 27.5625 34.746094 C 27.328125 34.746094 27.097656 34.746094 26.863281 34.742188 C 26.503906 34.738281 26.148438 34.738281 25.789062 34.742188 C 24.035156 34.734375 24.035156 34.734375 23.652344 34.355469 C 23.628906 33.902344 23.621094 33.46875 23.628906 33.015625 C 23.632812 32.890625 23.632812 32.765625 23.636719 32.636719 C 23.640625 32.328125 23.644531 32.023438 23.652344 31.714844 C 23.554688 31.714844 23.460938 31.714844 23.359375 31.714844 C 21.023438 31.726562 18.683594 31.734375 16.347656 31.738281 C 15.214844 31.742188 14.085938 31.746094 12.953125 31.75 C 11.863281 31.757812 10.773438 31.761719 9.683594 31.761719 C 9.265625 31.761719 8.847656 31.765625 8.433594 31.765625 C 7.851562 31.769531 7.265625 31.769531 6.683594 31.769531 C 6.425781 31.773438 6.425781 31.773438 6.160156 31.777344 C 5.085938 31.769531 4.472656 31.660156 3.691406 30.886719 C 3.464844 30.28125 3.496094 29.648438 3.492188 29.011719 C 3.492188 28.890625 3.492188 28.769531 3.488281 28.644531 C 3.484375 28.242188 3.484375 27.839844 3.484375 27.441406 C 3.480469 27.304688 3.480469 27.167969 3.480469 27.023438 C 3.476562 26.300781 3.476562 25.574219 3.472656 24.851562 C 3.472656 24.101562 3.464844 23.351562 3.457031 22.605469 C 3.453125 22.027344 3.453125 21.453125 3.453125 20.875 C 3.453125 20.601562 3.449219 20.324219 3.445312 20.046875 C 3.441406 19.664062 3.441406 19.277344 3.445312 18.890625 C 3.441406 18.777344 3.4375 18.664062 3.4375 18.546875 C 3.441406 17.992188 3.492188 17.714844 3.835938 17.265625 C 4.195312 17.011719 4.195312 17.011719 4.644531 17.035156 C 5.03125 17.179688 5.03125 17.179688 5.199219 17.507812 C 5.21875 17.90625 5.230469 18.300781 5.234375 18.699219 C 5.234375 18.824219 5.238281 18.949219 5.238281 19.074219 C 5.246094 19.480469 5.25 19.882812 5.253906 20.289062 C 5.257812 20.535156 5.257812 20.785156 5.261719 21.035156 C 5.273438 21.957031 5.285156 22.882812 5.292969 23.804688 C 5.320312 25.871094 5.34375 27.933594 5.367188 30.0625 C 11.179688 30.007812 16.992188 29.953125 22.980469 29.898438 C 20.667969 29.136719 19.242188 28.882812 16.925781 28.875 C 16.554688 28.871094 16.1875 28.867188 15.820312 28.863281 C 14.769531 28.855469 13.722656 28.84375 12.675781 28.839844 C 12.03125 28.835938 11.386719 28.832031 10.746094 28.824219 C 10.5 28.820312 10.257812 28.820312 10.011719 28.820312 C 9.671875 28.816406 9.332031 28.8125 8.988281 28.808594 C 8.796875 28.808594 8.601562 28.808594 8.402344 28.804688 C 7.800781 28.730469 7.507812 28.628906 7.046875 28.246094 C 6.386719 27.207031 6.472656 26.121094 6.484375 24.925781 C 6.484375 24.601562 6.484375 24.601562 6.484375 24.273438 C 6.484375 23.683594 6.488281 23.09375 6.492188 22.503906 C 6.492188 21.886719 6.496094 21.269531 6.496094 20.652344 C 6.496094 19.484375 6.5 18.316406 6.503906 17.148438 C 6.511719 15.816406 6.515625 14.488281 6.515625 13.160156 C 6.523438 10.425781 6.53125 7.691406 6.542969 4.957031 C 6.15625 4.957031 5.765625 4.957031 5.367188 4.957031 C 5.367188 5.078125 5.363281 5.203125 5.363281 5.328125 C 5.351562 6.492188 5.335938 7.652344 5.320312 8.816406 C 5.3125 9.414062 5.304688 10.007812 5.296875 10.605469 C 5.289062 11.183594 5.28125 11.757812 5.273438 12.335938 C 5.269531 12.664062 5.265625 12.988281 5.261719 13.316406 C 5.261719 13.515625 5.257812 13.714844 5.253906 13.917969 C 5.25 14.09375 5.25 14.269531 5.246094 14.449219 C 5.199219 14.867188 5.199219 14.867188 4.863281 15.195312 C 4.457031 15.257812 4.457031 15.257812 4.027344 15.195312 C 3.691406 14.902344 3.539062 14.660156 3.480469 14.21875 C 3.464844 13.820312 3.464844 13.425781 3.472656 13.027344 C 3.472656 12.878906 3.476562 12.734375 3.476562 12.585938 C 3.476562 12.121094 3.484375 11.65625 3.492188 11.191406 C 3.492188 10.875 3.496094 10.558594 3.496094 10.246094 C 3.503906 9.472656 3.511719 8.699219 3.523438 7.929688 C 3.136719 7.929688 2.746094 7.929688 2.347656 7.929688 C 2.347656 16.214844 2.347656 24.5 2.347656 33.035156 C 8.652344 33.023438 8.652344 33.023438 14.953125 33.007812 C 16.175781 33.003906 16.175781 33.003906 16.746094 33.003906 C 17.144531 33.003906 17.542969 33.003906 17.941406 33 C 18.546875 33 19.148438 33 19.753906 33 C 19.929688 32.996094 20.109375 32.996094 20.289062 32.996094 C 21.132812 32.996094 21.867188 33.003906 22.644531 33.367188 C 22.835938 33.707031 22.835938 33.707031 22.929688 34.097656 C 23.066406 34.667969 23.160156 35 23.652344 35.347656 C 24.078125 35.398438 24.460938 35.417969 24.886719 35.414062 C 25.007812 35.414062 25.128906 35.414062 25.253906 35.414062 C 25.507812 35.414062 25.761719 35.414062 26.019531 35.414062 C 26.40625 35.410156 26.796875 35.414062 27.183594 35.414062 C 27.433594 35.414062 27.679688 35.414062 27.929688 35.414062 C 28.101562 35.414062 28.101562 35.414062 28.28125 35.417969 C 28.960938 35.40625 29.371094 35.339844 29.859375 34.851562 C 30.011719 34.472656 30.097656 34.101562 30.191406 33.707031 C 30.359375 33.367188 30.359375 33.367188 30.738281 33.183594 C 31.199219 33.035156 31.550781 32.992188 32.03125 32.988281 C 32.195312 32.988281 32.359375 32.984375 32.527344 32.984375 C 32.792969 32.984375 32.792969 32.984375 33.066406 32.984375 C 33.253906 32.980469 33.441406 32.980469 33.636719 32.976562 C 34.257812 32.972656 34.878906 32.96875 35.5 32.96875 C 35.933594 32.964844 36.363281 32.960938 36.796875 32.957031 C 37.8125 32.949219 38.832031 32.945312 39.851562 32.9375 C 41.011719 32.933594 42.171875 32.925781 43.332031 32.914062 C 45.71875 32.898438 48.105469 32.882812 50.492188 32.871094 C 50.753906 32.347656 50.699219 31.78125 50.710938 31.207031 C 50.714844 31.011719 50.714844 31.011719 50.722656 30.808594 C 50.734375 30.386719 50.742188 29.96875 50.753906 29.546875 C 50.757812 29.261719 50.765625 28.976562 50.773438 28.691406 C 50.792969 27.992188 50.808594 27.292969 50.824219 26.59375 C 51.128906 26.417969 51.128906 26.417969 51.496094 26.261719 C 51.664062 26.316406 51.828125 26.371094 52 26.429688 C 52.015625 27.523438 52.027344 28.621094 52.035156 29.71875 C 52.039062 30.089844 52.042969 30.464844 52.050781 30.835938 C 52.058594 31.375 52.0625 31.910156 52.066406 32.445312 C 52.070312 32.613281 52.074219 32.78125 52.074219 32.953125 C 52.074219 33.109375 52.074219 33.261719 52.074219 33.421875 C 52.078125 33.558594 52.078125 33.695312 52.082031 33.835938 C 52 34.191406 52 34.191406 51.710938 34.457031 C 51.265625 34.726562 51.019531 34.75 50.503906 34.753906 C 50.335938 34.753906 50.171875 34.757812 50 34.757812 C 49.726562 34.757812 49.726562 34.757812 49.453125 34.757812 C 49.164062 34.761719 49.164062 34.761719 48.871094 34.765625 C 48.238281 34.769531 47.605469 34.769531 46.96875 34.773438 C 46.53125 34.773438 46.09375 34.777344 45.652344 34.78125 C 44.617188 34.789062 43.578125 34.792969 42.539062 34.796875 C 41.359375 34.800781 40.175781 34.808594 38.996094 34.816406 C 36.5625 34.832031 34.132812 34.84375 31.703125 34.851562 C 31.652344 35.007812 31.601562 35.164062 31.546875 35.328125 C 31.316406 35.988281 31.082031 36.328125 30.535156 36.769531 C 29.433594 37.269531 28.160156 37.148438 26.96875 37.125 C 26.480469 37.113281 25.996094 37.113281 25.507812 37.113281 C 25.195312 37.113281 24.882812 37.109375 24.574219 37.105469 C 24.355469 37.105469 24.355469 37.105469 24.132812 37.105469 C 23.226562 37.078125 22.695312 36.929688 21.972656 36.339844 C 21.625 35.902344 21.304688 35.421875 21.304688 34.851562 C 21.203125 34.851562 21.105469 34.851562 21 34.851562 C 18.578125 34.839844 16.15625 34.828125 13.734375 34.8125 C 12.5625 34.804688 11.394531 34.800781 10.222656 34.796875 C 9.089844 34.792969 7.960938 34.785156 6.832031 34.777344 C 6.398438 34.773438 5.96875 34.773438 5.539062 34.769531 C 4.933594 34.769531 4.332031 34.765625 3.726562 34.757812 C 3.546875 34.757812 3.367188 34.757812 3.183594 34.757812 C 1.648438 34.742188 1.648438 34.742188 1.007812 34.191406 C 0.472656 33.632812 0.441406 33.230469 0.4375 32.472656 C 0.4375 32.257812 0.433594 32.039062 0.433594 31.8125 C 0.433594 31.574219 0.433594 31.332031 0.433594 31.089844 C 0.433594 30.835938 0.433594 30.582031 0.433594 30.328125 C 0.429688 29.640625 0.429688 28.949219 0.429688 28.261719 C 0.429688 27.683594 0.429688 27.109375 0.429688 26.53125 C 0.425781 25.171875 0.425781 23.816406 0.429688 22.457031 C 0.429688 21.054688 0.429688 19.652344 0.421875 18.25 C 0.417969 17.046875 0.417969 15.84375 0.417969 14.640625 C 0.421875 13.921875 0.417969 13.203125 0.417969 12.484375 C 0.414062 11.808594 0.414062 11.132812 0.417969 10.457031 C 0.417969 10.210938 0.417969 9.960938 0.417969 9.714844 C 0.414062 9.375 0.417969 9.035156 0.417969 8.699219 C 0.417969 8.507812 0.417969 8.320312 0.417969 8.125 C 0.523438 7.476562 0.769531 7.117188 1.175781 6.605469 C 1.683594 6.25 2.109375 6.238281 2.726562 6.257812 C 2.949219 6.261719 2.949219 6.261719 3.179688 6.265625 C 3.292969 6.269531 3.40625 6.273438 3.523438 6.277344 C 3.511719 6.082031 3.5 5.886719 3.492188 5.6875 C 3.492188 4.960938 3.65625 4.4375 4.027344 3.800781 C 4.675781 3.195312 5.355469 3.261719 6.203125 3.285156 C 6.371094 3.292969 6.371094 3.292969 6.542969 3.304688 C 6.53125 3.109375 6.519531 2.914062 6.511719 2.714844 C 6.511719 1.871094 6.699219 1.167969 7.324219 0.550781 C 7.863281 0.246094 8.273438 0.265625 8.890625 0.261719 Z M 8.21875 2.148438 C 8.203125 2.464844 8.199219 2.785156 8.199219 3.105469 C 8.199219 3.316406 8.195312 3.523438 8.195312 3.738281 C 8.195312 3.972656 8.199219 4.203125 8.199219 4.4375 C 8.199219 4.683594 8.195312 4.925781 8.195312 5.167969 C 8.195312 5.832031 8.195312 6.496094 8.195312 7.160156 C 8.195312 7.855469 8.195312 8.546875 8.195312 9.242188 C 8.195312 10.40625 8.195312 11.570312 8.199219 12.738281 C 8.199219 14.085938 8.199219 15.433594 8.195312 16.78125 C 8.195312 17.9375 8.195312 19.09375 8.195312 20.25 C 8.195312 20.941406 8.195312 21.632812 8.195312 22.324219 C 8.195312 22.972656 8.195312 23.621094 8.199219 24.273438 C 8.199219 24.511719 8.199219 24.75 8.195312 24.988281 C 8.195312 25.316406 8.199219 25.640625 8.199219 25.964844 C 8.199219 26.148438 8.199219 26.328125 8.199219 26.515625 C 8.171875 26.914062 8.171875 26.914062 8.386719 27.089844 C 8.703125 27.109375 9.023438 27.113281 9.339844 27.117188 C 9.542969 27.121094 9.746094 27.121094 9.957031 27.125 C 10.066406 27.125 10.175781 27.125 10.289062 27.128906 C 10.636719 27.128906 10.980469 27.132812 11.324219 27.136719 C 12.308594 27.148438 13.289062 27.160156 14.273438 27.167969 C 14.871094 27.171875 15.472656 27.179688 16.074219 27.1875 C 16.410156 27.191406 16.746094 27.195312 17.082031 27.195312 C 20.140625 27.234375 22.632812 27.832031 25.328125 29.238281 C 25.441406 29.292969 25.550781 29.34375 25.664062 29.402344 C 25.664062 27.003906 25.664062 24.605469 25.664062 22.132812 C 24 22.097656 24 22.097656 22.332031 22.070312 C 22.019531 22.0625 22.019531 22.0625 21.699219 22.054688 C 21.488281 22.050781 21.273438 22.042969 21.054688 22.039062 C 20.414062 21.960938 20.003906 21.808594 19.457031 21.472656 C 19.121094 20.933594 18.933594 20.433594 18.785156 19.820312 C 18.128906 19.675781 17.597656 19.648438 16.941406 19.820312 C 16.039062 20.515625 15.386719 21.539062 14.761719 22.464844 C 14.753906 22.8125 14.761719 23.160156 14.78125 23.507812 C 14.789062 24.195312 14.78125 24.570312 14.5 25.210938 C 13.980469 25.707031 13.617188 25.917969 12.917969 26.097656 C 12.089844 26.066406 11.546875 25.878906 10.902344 25.363281 C 10.363281 24.683594 10.328125 24.136719 10.398438 23.289062 C 10.617188 22.742188 10.867188 22.261719 11.382812 21.9375 C 11.878906 21.753906 12.335938 21.753906 12.863281 21.742188 C 13.917969 21.457031 14.644531 20.128906 15.277344 19.296875 C 15.882812 18.515625 15.882812 18.515625 16.4375 18.335938 C 17.21875 18.261719 18.003906 18.21875 18.785156 18.167969 C 18.785156 17.242188 18.785156 16.316406 18.785156 15.363281 C 18.25 15.34375 17.710938 15.332031 17.171875 15.320312 C 17.019531 15.316406 16.871094 15.308594 16.714844 15.304688 C 15.511719 15.285156 14.917969 15.574219 14.027344 16.382812 C 13.734375 16.878906 13.730469 17.03125 13.753906 17.582031 C 13.789062 18.351562 13.621094 18.738281 13.082031 19.324219 C 12.355469 19.84375 11.78125 19.882812 10.921875 19.75 C 10.273438 19.578125 9.902344 19.222656 9.507812 18.707031 C 9.265625 17.921875 9.265625 17.257812 9.644531 16.539062 C 9.726562 16.421875 9.8125 16.308594 9.898438 16.1875 C 9.898438 16.078125 9.898438 15.96875 9.898438 15.855469 C 10.546875 15.585938 11.046875 15.519531 11.742188 15.558594 C 12.375 15.574219 12.699219 15.519531 13.1875 15.113281 C 13.386719 14.910156 13.386719 14.910156 13.585938 14.699219 C 13.371094 14.222656 13.171875 13.867188 12.75 13.542969 C 12.320312 13.507812 12.320312 13.507812 11.855469 13.554688 C 11 13.578125 10.546875 13.476562 9.898438 12.882812 C 9.414062 12.3125 9.304688 11.8125 9.335938 11.066406 C 9.464844 10.34375 9.886719 9.890625 10.441406 9.4375 C 11.058594 9.1875 11.585938 9.148438 12.246094 9.25 C 12.726562 9.496094 12.726562 9.496094 13.082031 9.746094 C 13.195312 9.746094 13.304688 9.746094 13.417969 9.746094 C 13.730469 10.324219 13.753906 10.730469 13.703125 11.367188 C 13.679688 12.101562 13.835938 12.425781 14.332031 12.976562 C 14.527344 13.171875 14.726562 13.359375 14.929688 13.542969 C 14.984375 13.597656 15.039062 13.652344 15.097656 13.710938 C 15.371094 13.722656 15.644531 13.726562 15.921875 13.726562 C 16.085938 13.726562 16.253906 13.726562 16.421875 13.722656 C 16.683594 13.722656 16.683594 13.722656 16.953125 13.71875 C 17.128906 13.71875 17.304688 13.71875 17.484375 13.71875 C 17.917969 13.714844 18.351562 13.714844 18.785156 13.710938 C 18.785156 12.730469 18.785156 11.746094 18.785156 10.738281 C 17.941406 10.714844 17.941406 10.714844 17.097656 10.703125 C 16.457031 10.675781 16.167969 10.621094 15.648438 10.222656 C 15.292969 9.78125 14.960938 9.332031 14.636719 8.867188 C 13.929688 7.851562 13.929688 7.851562 12.882812 7.242188 C 12.535156 7.207031 12.191406 7.175781 11.84375 7.160156 C 11.335938 7.09375 11.191406 6.992188 10.871094 6.605469 C 10.421875 5.871094 10.339844 5.496094 10.398438 4.625 C 10.664062 3.949219 10.90625 3.46875 11.574219 3.136719 C 12.320312 2.957031 12.902344 2.917969 13.640625 3.148438 C 14.21875 3.5625 14.464844 3.808594 14.761719 4.460938 C 14.753906 4.800781 14.734375 5.140625 14.707031 5.480469 C 14.671875 6.4375 14.863281 6.875 15.484375 7.609375 C 15.746094 7.882812 16.007812 8.15625 16.269531 8.425781 C 16.347656 8.550781 16.425781 8.675781 16.507812 8.804688 C 16.765625 9.136719 16.765625 9.136719 17.261719 9.148438 C 17.445312 9.140625 17.625 9.132812 17.8125 9.125 C 17.996094 9.121094 18.175781 9.113281 18.363281 9.109375 C 18.503906 9.101562 18.644531 9.09375 18.785156 9.085938 C 18.820312 8.984375 18.855469 8.882812 18.894531 8.777344 C 18.96875 8.578125 18.96875 8.578125 19.050781 8.371094 C 19.097656 8.242188 19.148438 8.109375 19.195312 7.972656 C 19.5625 7.449219 20.039062 7.289062 20.632812 7.101562 C 21.226562 7.03125 21.226562 7.03125 21.847656 7.019531 C 21.957031 7.015625 22.066406 7.011719 22.179688 7.007812 C 22.527344 7 22.875 6.996094 23.222656 6.988281 C 23.457031 6.984375 23.695312 6.976562 23.933594 6.972656 C 24.511719 6.957031 25.085938 6.945312 25.664062 6.9375 C 25.679688 6.566406 25.691406 6.195312 25.703125 5.824219 C 25.710938 5.617188 25.71875 5.410156 25.726562 5.195312 C 25.65625 4.550781 25.542969 4.371094 25.046875 3.964844 C 24.625 3.699219 24.625 3.699219 24.15625 3.46875 C 23.984375 3.378906 23.8125 3.289062 23.632812 3.199219 C 21.550781 2.1875 19.6875 1.910156 17.386719 1.929688 C 17.125 1.929688 16.867188 1.929688 16.605469 1.929688 C 16.066406 1.929688 15.523438 1.933594 14.980469 1.9375 C 14.289062 1.941406 13.59375 1.941406 12.898438 1.941406 C 12.363281 1.945312 11.828125 1.945312 11.292969 1.945312 C 11.035156 1.949219 10.78125 1.949219 10.523438 1.949219 C 10.167969 1.949219 9.8125 1.953125 9.453125 1.957031 C 9.253906 1.957031 9.050781 1.957031 8.839844 1.957031 C 8.402344 1.929688 8.402344 1.929688 8.21875 2.148438 Z M 29.15625 3.3125 C 29.050781 3.371094 28.949219 3.425781 28.84375 3.484375 C 28.5625 3.636719 28.289062 3.800781 28.011719 3.964844 C 27.878906 4.035156 27.746094 4.101562 27.609375 4.171875 C 27.253906 4.554688 27.273438 4.878906 27.28125 5.382812 C 27.289062 5.5 27.292969 5.613281 27.300781 5.730469 C 27.304688 5.84375 27.304688 5.960938 27.308594 6.082031 C 27.316406 6.367188 27.328125 6.652344 27.34375 6.9375 C 27.503906 6.964844 27.503906 6.964844 27.667969 6.992188 C 27.875 7.03125 27.875 7.03125 28.085938 7.070312 C 28.222656 7.097656 28.363281 7.121094 28.503906 7.148438 C 28.675781 7.207031 28.675781 7.207031 28.851562 7.269531 C 28.90625 7.429688 28.960938 7.59375 29.019531 7.761719 C 29.683594 7.761719 30.347656 7.761719 31.03125 7.761719 C 31.085938 7.601562 31.144531 7.4375 31.199219 7.269531 C 31.914062 7.132812 32.382812 7.058594 33.085938 7.246094 C 33.738281 7.742188 33.949219 8.335938 34.21875 9.085938 C 34.863281 9.191406 35.421875 9.21875 36.066406 9.085938 C 36.675781 8.609375 37.113281 8.046875 37.574219 7.433594 C 37.699219 7.300781 37.824219 7.171875 37.953125 7.039062 C 38.335938 6.472656 38.296875 6.125 38.253906 5.449219 C 38.207031 4.613281 38.222656 4.144531 38.75 3.46875 C 39.484375 2.992188 40.054688 2.867188 40.929688 2.972656 C 41.664062 3.222656 42.03125 3.515625 42.4375 4.171875 C 42.648438 4.941406 42.628906 5.335938 42.4375 6.113281 C 42.066406 6.695312 41.742188 7.007812 41.097656 7.269531 C 40.859375 7.277344 40.621094 7.28125 40.382812 7.277344 C 39.664062 7.34375 39.371094 7.566406 38.894531 8.09375 C 38.675781 8.367188 38.457031 8.640625 38.246094 8.917969 C 38.132812 9.058594 38.023438 9.199219 37.90625 9.34375 C 37.703125 9.597656 37.496094 9.859375 37.296875 10.117188 C 37.070312 10.40625 37.070312 10.40625 36.902344 10.570312 C 36.453125 10.609375 36.003906 10.640625 35.550781 10.664062 C 34.890625 10.699219 34.890625 10.699219 34.21875 10.738281 C 34.21875 11.71875 34.21875 12.699219 34.21875 13.710938 C 34.757812 13.726562 35.296875 13.742188 35.832031 13.75 C 35.984375 13.757812 36.136719 13.761719 36.292969 13.769531 C 37.261719 13.78125 37.816406 13.691406 38.582031 13.050781 C 38.683594 12.972656 38.785156 12.898438 38.890625 12.820312 C 39.179688 12.421875 39.152344 12.070312 39.167969 11.582031 C 39.191406 10.820312 39.292969 10.363281 39.753906 9.746094 C 40.492188 9.265625 41.0625 9.15625 41.933594 9.25 C 42.621094 9.511719 43.105469 9.753906 43.445312 10.40625 C 43.675781 11.394531 43.65625 11.984375 43.109375 12.882812 C 42.652344 13.3125 42.339844 13.539062 41.699219 13.554688 C 41.410156 13.542969 41.121094 13.527344 40.832031 13.511719 C 40.15625 13.566406 39.871094 13.902344 39.417969 14.371094 C 39.636719 14.847656 39.835938 15.203125 40.257812 15.527344 C 40.683594 15.5625 40.683594 15.5625 41.148438 15.515625 C 41.792969 15.5 42.085938 15.519531 42.691406 15.785156 C 43.207031 16.28125 43.414062 16.660156 43.613281 17.34375 C 43.585938 18.132812 43.445312 18.707031 42.941406 19.324219 C 42.199219 19.847656 41.648438 19.867188 40.78125 19.730469 C 40.339844 19.636719 39.976562 19.558594 39.585938 19.324219 C 39.269531 18.707031 39.226562 18.207031 39.21875 17.519531 C 39.175781 16.792969 39.175781 16.792969 38.824219 16.175781 C 38.164062 15.621094 37.679688 15.339844 36.808594 15.34375 C 36.582031 15.347656 36.582031 15.347656 36.351562 15.347656 C 36.195312 15.347656 36.039062 15.351562 35.875 15.351562 C 35.71875 15.351562 35.558594 15.351562 35.394531 15.355469 C 35.003906 15.355469 34.613281 15.359375 34.21875 15.363281 C 34.21875 16.289062 34.21875 17.214844 34.21875 18.167969 C 35.160156 18.289062 35.160156 18.289062 36.105469 18.335938 C 36.847656 18.335938 36.847656 18.335938 37.238281 18.5 C 37.355469 18.71875 37.464844 18.9375 37.574219 19.160156 C 38.574219 20.757812 38.574219 20.757812 40.058594 21.808594 C 40.484375 21.832031 40.484375 21.832031 40.894531 21.804688 C 41.339844 21.804688 41.507812 21.898438 41.851562 22.164062 C 42.464844 22.84375 42.625 23.304688 42.574219 24.207031 C 42.410156 24.894531 42.289062 25.382812 41.65625 25.773438 C 40.878906 26.121094 40.246094 26.152344 39.429688 25.914062 C 38.992188 25.726562 38.65625 25.507812 38.371094 25.128906 C 38.195312 24.640625 38.277344 24.238281 38.328125 23.722656 C 38.382812 22.394531 37.820312 21.648438 36.972656 20.648438 C 36.5 20.144531 36.1875 19.859375 35.507812 19.65625 C 35.046875 19.65625 34.660156 19.695312 34.21875 19.820312 C 34.175781 19.9375 34.132812 20.050781 34.089844 20.171875 C 34.03125 20.320312 33.976562 20.472656 33.914062 20.625 C 33.859375 20.777344 33.800781 20.925781 33.746094 21.078125 C 33.546875 21.472656 33.546875 21.472656 33.046875 21.804688 C 32.386719 21.976562 31.738281 22 31.058594 22.019531 C 30.863281 22.027344 30.667969 22.035156 30.46875 22.039062 C 30.097656 22.050781 30.097656 22.050781 29.722656 22.0625 C 28.9375 22.085938 28.152344 22.109375 27.34375 22.132812 C 27.34375 24.476562 27.34375 26.820312 27.34375 29.238281 C 28.074219 28.996094 28.699219 28.75 29.386719 28.421875 C 31.546875 27.429688 33.570312 27.226562 35.929688 27.234375 C 36.195312 27.234375 36.195312 27.234375 36.464844 27.230469 C 37.300781 27.234375 38.09375 27.242188 38.917969 27.417969 C 39.105469 28.203125 39.105469 28.203125 38.917969 28.574219 C 38.753906 28.582031 38.59375 28.589844 38.429688 28.597656 C 37.824219 28.625 37.214844 28.65625 36.609375 28.691406 C 36.347656 28.703125 36.085938 28.714844 35.828125 28.726562 C 33.644531 28.828125 31.558594 29.054688 29.523438 29.898438 C 29.523438 29.953125 29.523438 30.007812 29.523438 30.0625 C 35.5 30.0625 41.480469 30.0625 47.640625 30.0625 C 47.640625 21.777344 47.640625 13.492188 47.640625 4.957031 C 47.195312 4.957031 46.753906 4.957031 46.296875 4.957031 C 46.296875 5.070312 46.296875 5.1875 46.296875 5.304688 C 46.285156 8.125 46.273438 10.945312 46.257812 13.765625 C 46.25 15.128906 46.242188 16.492188 46.238281 17.855469 C 46.234375 19.042969 46.230469 20.230469 46.222656 21.417969 C 46.21875 22.046875 46.214844 22.675781 46.214844 23.304688 C 46.210938 23.898438 46.207031 24.492188 46.203125 25.082031 C 46.203125 25.40625 46.203125 25.726562 46.203125 26.046875 C 46.199219 26.332031 46.199219 26.332031 46.195312 26.625 C 46.195312 26.792969 46.195312 26.957031 46.195312 27.128906 C 46.117188 27.667969 45.957031 27.980469 45.625 28.410156 C 45.125 28.574219 44.792969 28.597656 44.273438 28.597656 C 44.109375 28.597656 43.945312 28.597656 43.773438 28.597656 C 43.605469 28.597656 43.433594 28.597656 43.257812 28.597656 C 43.085938 28.597656 42.910156 28.597656 42.734375 28.597656 C 42.570312 28.597656 42.40625 28.597656 42.238281 28.597656 C 42.085938 28.597656 41.9375 28.597656 41.78125 28.597656 C 41.433594 28.574219 41.433594 28.574219 41.265625 28.410156 C 41.222656 28.007812 41.222656 28.007812 41.265625 27.585938 C 41.769531 27.253906 41.769531 27.253906 44.621094 27.089844 C 44.621094 18.804688 44.621094 10.519531 44.621094 1.980469 C 36.863281 1.347656 36.863281 1.347656 29.15625 3.3125 Z M 11.910156 4.789062 C 11.964844 5.0625 12.019531 5.335938 12.078125 5.617188 C 12.480469 5.726562 12.480469 5.726562 12.917969 5.78125 C 13.027344 5.671875 13.136719 5.5625 13.25 5.449219 C 13.199219 5.019531 13.199219 5.019531 13.082031 4.625 C 12.5 4.425781 12.464844 4.425781 11.910156 4.789062 Z M 40.089844 4.460938 C 39.980469 4.570312 39.867188 4.679688 39.753906 4.789062 C 39.808594 5.21875 39.808594 5.21875 39.921875 5.617188 C 40.199219 5.671875 40.476562 5.726562 40.761719 5.78125 C 40.871094 5.507812 40.984375 5.234375 41.097656 4.957031 C 40.875 4.699219 40.875 4.699219 40.59375 4.460938 C 40.425781 4.460938 40.261719 4.460938 40.089844 4.460938 Z M 11.238281 10.738281 C 11.128906 10.84375 11.015625 10.953125 10.902344 11.066406 C 10.957031 11.496094 10.957031 11.496094 11.070312 11.894531 C 11.472656 12.003906 11.472656 12.003906 11.910156 12.058594 C 12.019531 11.949219 12.132812 11.839844 12.246094 11.726562 C 12.191406 11.296875 12.191406 11.296875 12.078125 10.902344 C 11.675781 10.789062 11.675781 10.789062 11.238281 10.738281 Z M 41.097656 10.738281 C 40.984375 10.84375 40.875 10.953125 40.761719 11.066406 C 40.816406 11.496094 40.816406 11.496094 40.929688 11.894531 C 41.238281 12.019531 41.238281 12.019531 41.601562 12.058594 C 41.898438 11.835938 41.898438 11.835938 42.101562 11.5625 C 41.992188 11.289062 41.882812 11.015625 41.769531 10.738281 C 41.546875 10.738281 41.324219 10.738281 41.097656 10.738281 Z M 11.238281 17.011719 C 11.128906 17.121094 11.015625 17.230469 10.902344 17.34375 C 10.957031 17.773438 10.957031 17.773438 11.070312 18.167969 C 11.378906 18.285156 11.378906 18.285156 11.742188 18.335938 C 11.90625 18.226562 12.074219 18.117188 12.246094 18.003906 C 12.191406 17.730469 12.132812 17.460938 12.078125 17.179688 C 11.675781 17.066406 11.675781 17.066406 11.238281 17.011719 Z M 40.761719 17.179688 C 40.734375 17.578125 40.734375 17.578125 40.761719 18.003906 C 40.871094 18.113281 40.984375 18.222656 41.097656 18.335938 C 41.535156 18.28125 41.535156 18.28125 41.933594 18.167969 C 42.050781 17.863281 42.050781 17.863281 42.101562 17.507812 C 41.992188 17.34375 41.882812 17.183594 41.769531 17.011719 C 41.132812 16.964844 41.132812 16.964844 40.761719 17.179688 Z M 11.910156 23.621094 C 11.964844 24.050781 11.964844 24.050781 12.078125 24.445312 C 12.386719 24.5625 12.386719 24.5625 12.75 24.613281 C 12.914062 24.503906 13.082031 24.394531 13.25 24.28125 C 13.195312 23.953125 13.140625 23.628906 13.082031 23.289062 C 12.421875 23.234375 12.421875 23.234375 11.910156 23.621094 Z M 39.753906 23.457031 C 39.746094 23.730469 39.746094 24.007812 39.753906 24.28125 C 40.085938 24.445312 40.085938 24.445312 40.425781 24.613281 C 40.648438 24.449219 40.867188 24.285156 41.097656 24.117188 C 40.984375 23.84375 40.875 23.570312 40.761719 23.289062 C 40.210938 23.230469 40.210938 23.230469 39.753906 23.457031 Z M 25.328125 31.21875 C 25.328125 31.816406 25.328125 32.417969 25.328125 33.035156 C 26.160156 33.199219 26.835938 33.214844 27.675781 33.199219 C 27.675781 32.546875 27.675781 31.894531 27.675781 31.21875 C 26.902344 31.21875 26.128906 31.21875 25.328125 31.21875 Z M 25.328125 31.21875 " style="stroke: none; fill-rule: nonzero; fill: rgb(25, 50, 92); fill-opacity: 1;"></path><path d="M 29.019531 7.761719 C 29.683594 7.761719 30.347656 7.761719 31.03125 7.761719 C 31.199219 8.089844 31.199219 8.089844 31.367188 8.425781 C 31.960938 8.640625 31.960938 8.640625 32.542969 8.753906 C 32.546875 10.257812 32.546875 11.765625 32.550781 13.269531 C 32.550781 13.96875 32.550781 14.664062 32.554688 15.363281 C 32.554688 16.039062 32.558594 16.710938 32.558594 17.386719 C 32.558594 17.644531 32.558594 17.902344 32.558594 18.15625 C 32.5625 18.519531 32.5625 18.878906 32.5625 19.238281 C 32.5625 19.441406 32.5625 19.648438 32.5625 19.859375 C 32.542969 20.316406 32.542969 20.316406 32.375 20.480469 C 32.003906 20.496094 31.632812 20.5 31.261719 20.5 C 31.144531 20.5 31.027344 20.5 30.902344 20.5 C 30.519531 20.5 30.136719 20.5 29.753906 20.5 C 29.515625 20.496094 29.28125 20.496094 29.042969 20.496094 C 28.164062 20.496094 27.289062 20.496094 26.410156 20.492188 C 23.464844 20.488281 23.464844 20.488281 20.464844 20.480469 C 20.464844 16.558594 20.464844 12.632812 20.464844 8.589844 C 24.457031 8.515625 24.457031 8.515625 25.71875 8.496094 C 26.046875 8.488281 26.375 8.484375 26.707031 8.476562 C 26.878906 8.472656 27.046875 8.472656 27.226562 8.46875 C 27.386719 8.464844 27.550781 8.460938 27.71875 8.457031 C 27.933594 8.453125 27.933594 8.453125 28.148438 8.449219 C 28.546875 8.4375 28.546875 8.4375 29.019531 8.257812 C 29.019531 8.09375 29.019531 7.933594 29.019531 7.761719 Z M 29.019531 7.761719 " style="stroke: none; fill-rule: nonzero; fill: rgb(94, 200, 123); fill-opacity: 1;"></path><path d="M 25.328125 10.738281 C 26.1875 11.644531 26.480469 12.707031 26.839844 13.875 C 27.148438 14.832031 27.453125 15.765625 27.898438 16.671875 C 28.125 17.148438 28.183594 17.3125 28.140625 17.851562 C 28.097656 17.957031 28.054688 18.0625 28.011719 18.167969 C 27.636719 18.292969 27.636719 18.292969 27.175781 18.335938 C 26.796875 18.03125 26.519531 17.695312 26.214844 17.324219 C 25.707031 16.910156 25.386719 16.925781 24.730469 16.929688 C 24.445312 16.929688 24.445312 16.929688 24.152344 16.925781 C 23.636719 16.964844 23.636719 16.964844 23.34375 17.324219 C 23.15625 17.660156 22.976562 17.988281 22.8125 18.335938 C 22.476562 18.34375 22.140625 18.339844 21.804688 18.335938 C 21.75 18.28125 21.695312 18.226562 21.640625 18.167969 C 21.644531 17.109375 21.945312 16.164062 22.332031 15.1875 C 22.382812 15.050781 22.433594 14.917969 22.488281 14.78125 C 22.847656 13.859375 23.226562 12.945312 23.621094 12.039062 C 23.667969 11.925781 23.71875 11.8125 23.765625 11.695312 C 24.128906 10.890625 24.398438 10.566406 25.328125 10.738281 Z M 25.328125 10.738281 " style="stroke: none; fill-rule: nonzero; fill: rgb(21, 56, 84); fill-opacity: 1;"></path><path d="M 29.523438 10.738281 C 29.859375 10.730469 30.195312 10.730469 30.527344 10.738281 C 30.789062 10.992188 30.71875 11.230469 30.71875 11.585938 C 30.71875 11.730469 30.71875 11.875 30.71875 12.023438 C 30.71875 12.183594 30.71875 12.339844 30.71875 12.5 C 30.71875 12.664062 30.71875 12.824219 30.71875 12.988281 C 30.71875 13.328125 30.71875 13.667969 30.71875 14.011719 C 30.71875 14.535156 30.71875 15.054688 30.71875 15.578125 C 30.71875 15.910156 30.71875 16.238281 30.71875 16.570312 C 30.71875 16.726562 30.71875 16.882812 30.71875 17.046875 C 30.71875 17.191406 30.71875 17.335938 30.71875 17.488281 C 30.71875 17.613281 30.71875 17.742188 30.71875 17.875 C 30.695312 18.167969 30.695312 18.167969 30.527344 18.335938 C 30.035156 18.375 30.035156 18.375 29.523438 18.335938 C 29.09375 17.699219 29.140625 17.179688 29.140625 16.445312 C 29.140625 16.308594 29.140625 16.171875 29.140625 16.03125 C 29.140625 15.742188 29.140625 15.453125 29.144531 15.164062 C 29.144531 14.722656 29.144531 14.285156 29.140625 13.84375 C 29.140625 13.5625 29.140625 13.28125 29.140625 13 C 29.140625 12.867188 29.140625 12.734375 29.140625 12.601562 C 29.144531 11.90625 29.199219 11.371094 29.523438 10.738281 Z M 29.523438 10.738281 " style="stroke: none; fill-rule: nonzero; fill: rgb(26, 53, 95); fill-opacity: 1;"></path><path d="M 25.328125 10.738281 C 25.894531 11.285156 26.296875 11.929688 26.335938 12.71875 C 26.289062 13.621094 26.125 13.917969 25.496094 14.535156 C 25.519531 14.984375 25.519531 14.984375 25.664062 15.363281 C 25.109375 15.363281 24.558594 15.363281 23.988281 15.363281 C 23.875 14.925781 23.765625 14.488281 23.652344 14.039062 C 23.109375 14.316406 23.109375 14.316406 23.03125 14.804688 C 23.015625 14.933594 23 15.0625 22.980469 15.195312 C 22.816406 15.25 22.648438 15.304688 22.476562 15.363281 C 22.734375 14.230469 23.109375 13.179688 23.578125 12.121094 C 23.628906 12.003906 23.679688 11.886719 23.734375 11.765625 C 24.109375 10.933594 24.355469 10.558594 25.328125 10.738281 Z M 25.328125 10.738281 " style="stroke: none; fill-rule: nonzero; fill: rgb(26, 58, 91); fill-opacity: 1;"></path><path d="M 31.03125 7.761719 C 31.214844 7.882812 31.214844 7.882812 31.398438 8 C 31.855469 8.25 32.199219 8.335938 32.710938 8.425781 C 32.734375 9.992188 32.761719 11.5625 32.785156 13.132812 C 32.796875 13.859375 32.804688 14.589844 32.820312 15.316406 C 32.828125 16.019531 32.839844 16.722656 32.851562 17.425781 C 32.855469 17.695312 32.859375 17.964844 32.863281 18.230469 C 32.871094 18.605469 32.875 18.980469 32.882812 19.355469 C 32.882812 19.570312 32.886719 19.785156 32.890625 20.003906 C 32.878906 20.480469 32.878906 20.480469 32.710938 20.648438 C 32.347656 20.664062 31.988281 20.667969 31.628906 20.667969 C 31.457031 20.667969 31.457031 20.667969 31.285156 20.667969 C 30.910156 20.667969 30.535156 20.664062 30.160156 20.664062 C 29.902344 20.664062 29.644531 20.664062 29.382812 20.664062 C 28.699219 20.664062 28.015625 20.660156 27.332031 20.660156 C 26.636719 20.65625 25.9375 20.65625 25.242188 20.65625 C 23.871094 20.652344 22.503906 20.652344 21.136719 20.648438 C 21.050781 20.8125 21.050781 20.8125 20.96875 20.976562 C 20.800781 20.976562 20.636719 20.976562 20.464844 20.976562 C 20.464844 20.8125 20.464844 20.652344 20.464844 20.480469 C 26.359375 20.398438 26.359375 20.398438 32.375 20.316406 C 32.429688 16.5 32.484375 12.6875 32.542969 8.753906 C 32.15625 8.699219 31.765625 8.644531 31.367188 8.589844 C 31.257812 8.316406 31.144531 8.042969 31.03125 7.761719 Z M 31.03125 7.761719 " style="stroke: none; fill-rule: nonzero; fill: rgb(18, 62, 78); fill-opacity: 1;"></path><path d="M 29.523438 10.902344 C 29.808594 11.460938 29.691406 12.097656 29.671875 12.710938 C 29.667969 12.855469 29.660156 13.003906 29.65625 13.152344 C 29.644531 13.621094 29.632812 14.089844 29.617188 14.554688 C 29.609375 14.875 29.597656 15.191406 29.589844 15.507812 C 29.570312 16.285156 29.546875 17.0625 29.523438 17.839844 C 29.742188 17.839844 29.964844 17.839844 30.195312 17.839844 C 30.195312 17.457031 30.195312 17.074219 30.195312 16.683594 C 30.304688 16.738281 30.414062 16.792969 30.527344 16.847656 C 30.605469 17.148438 30.605469 17.148438 30.644531 17.507812 C 30.660156 17.628906 30.671875 17.746094 30.6875 17.871094 C 30.691406 18.019531 30.691406 18.019531 30.695312 18.167969 C 30.527344 18.335938 30.527344 18.335938 30.035156 18.375 C 29.867188 18.363281 29.695312 18.347656 29.523438 18.335938 C 29.09375 17.699219 29.140625 17.175781 29.140625 16.441406 C 29.140625 16.304688 29.140625 16.167969 29.140625 16.027344 C 29.140625 15.734375 29.140625 15.445312 29.144531 15.15625 C 29.144531 14.714844 29.144531 14.269531 29.140625 13.828125 C 29.140625 13.546875 29.140625 13.265625 29.140625 12.984375 C 29.140625 12.851562 29.140625 12.71875 29.140625 12.582031 C 29.144531 11.945312 29.15625 11.441406 29.523438 10.902344 Z M 29.523438 10.902344 " style="stroke: none; fill-rule: nonzero; fill: rgb(24, 72, 85); fill-opacity: 1;"></path><path d="M 30.863281 7.929688 C 30.921875 8.003906 30.980469 8.078125 31.042969 8.15625 C 31.457031 8.535156 31.457031 8.535156 32.542969 8.753906 C 32.542969 12.515625 32.542969 16.277344 32.542969 20.152344 C 32.488281 20.152344 32.429688 20.152344 32.375 20.152344 C 32.320312 16.5 32.261719 12.847656 32.207031 9.085938 C 31.761719 9.03125 31.320312 8.976562 30.863281 8.917969 C 30.863281 8.59375 30.863281 8.265625 30.863281 7.929688 Z M 30.863281 7.929688 " style="stroke: none; fill-rule: nonzero; fill: rgb(112, 195, 147); fill-opacity: 1;"></path><path d="M 24.824219 13.378906 C 25.378906 13.921875 25.664062 14.59375 25.664062 15.363281 C 25.109375 15.363281 24.558594 15.363281 23.988281 15.363281 C 24.265625 14.707031 24.539062 14.054688 24.824219 13.378906 Z M 24.824219 13.378906 " style="stroke: none; fill-rule: nonzero; fill: rgb(104, 182, 139); fill-opacity: 1;"></path><path d="M 29.699219 10.5625 C 29.945312 10.566406 29.945312 10.566406 30.195312 10.570312 C 29.972656 10.625 29.75 10.679688 29.523438 10.738281 C 29.332031 11.488281 29.328125 12.226562 29.328125 12.992188 C 29.324219 13.128906 29.324219 13.265625 29.324219 13.40625 C 29.324219 13.695312 29.324219 13.984375 29.324219 14.269531 C 29.324219 14.710938 29.320312 15.148438 29.316406 15.589844 C 29.316406 15.871094 29.316406 16.152344 29.316406 16.429688 C 29.316406 16.5625 29.3125 16.691406 29.3125 16.828125 C 29.316406 17.464844 29.324219 17.960938 29.691406 18.5 C 29.523438 18.445312 29.359375 18.390625 29.1875 18.335938 C 28.992188 17.953125 29 17.730469 28.996094 17.300781 C 28.996094 17.15625 28.996094 17.011719 28.996094 16.863281 C 28.996094 16.707031 28.996094 16.550781 28.996094 16.386719 C 28.996094 16.226562 28.996094 16.066406 28.996094 15.902344 C 28.996094 15.5625 28.996094 15.222656 28.996094 14.882812 C 29 14.363281 28.996094 13.839844 28.996094 13.320312 C 28.996094 12.988281 28.996094 12.660156 28.996094 12.332031 C 28.996094 12.175781 28.996094 12.015625 28.996094 11.855469 C 28.996094 11.710938 28.996094 11.566406 28.996094 11.417969 C 28.996094 11.289062 28.996094 11.160156 29 11.03125 C 29.035156 10.511719 29.164062 10.570312 29.699219 10.5625 Z M 29.699219 10.5625 " style="stroke: none; fill-rule: nonzero; fill: rgb(100, 192, 140); fill-opacity: 1;"></path><path d="M 22.140625 15.691406 C 22.476562 16.023438 22.476562 16.023438 22.519531 16.433594 C 22.476562 16.847656 22.476562 16.847656 22.140625 17.179688 C 22.195312 17.527344 22.195312 17.527344 22.308594 17.839844 C 22.421875 17.839844 22.53125 17.839844 22.644531 17.839844 C 22.699219 17.566406 22.757812 17.292969 22.8125 17.011719 C 22.921875 17.011719 23.035156 17.011719 23.148438 17.011719 C 23 18.148438 23 18.148438 22.8125 18.335938 C 22.308594 18.355469 22.308594 18.355469 21.804688 18.335938 C 21.75 18.28125 21.695312 18.226562 21.640625 18.167969 C 21.664062 17.304688 21.828125 16.5 22.140625 15.691406 Z M 22.140625 15.691406 " style="stroke: none; fill-rule: nonzero; fill: rgb(12, 63, 81); fill-opacity: 1;"></path><path d="M 28.347656 7.929688 C 28.570312 7.929688 28.792969 7.929688 29.019531 7.929688 C 29.019531 8.039062 29.019531 8.148438 29.019531 8.257812 C 28.480469 8.613281 28.339844 8.628906 27.71875 8.625 C 27.558594 8.625 27.398438 8.625 27.230469 8.625 C 27.058594 8.625 26.882812 8.625 26.707031 8.621094 C 26.4375 8.621094 26.4375 8.621094 26.167969 8.621094 C 25.597656 8.617188 25.027344 8.613281 24.457031 8.609375 C 24.074219 8.609375 23.6875 8.605469 23.300781 8.605469 C 22.355469 8.601562 21.410156 8.597656 20.464844 8.589844 C 20.464844 8.535156 20.464844 8.480469 20.464844 8.425781 C 24.285156 8.34375 24.285156 8.34375 28.179688 8.257812 C 28.234375 8.148438 28.292969 8.039062 28.347656 7.929688 Z M 28.347656 7.929688 " style="stroke: none; fill-rule: nonzero; fill: rgb(28, 73, 81); fill-opacity: 1;"></path><path d="M 29.859375 10.738281 C 30.273438 10.820312 30.273438 10.820312 30.695312 10.902344 C 30.695312 13.246094 30.695312 15.589844 30.695312 18.003906 C 30.640625 18.003906 30.585938 18.003906 30.527344 18.003906 C 30.523438 17.824219 30.519531 17.640625 30.515625 17.453125 C 30.5 16.777344 30.484375 16.105469 30.464844 15.429688 C 30.460938 15.136719 30.453125 14.847656 30.445312 14.554688 C 30.4375 14.132812 30.425781 13.714844 30.414062 13.292969 C 30.410156 13.097656 30.410156 13.097656 30.40625 12.898438 C 30.382812 12.027344 30.351562 11.464844 29.859375 10.738281 Z M 29.859375 10.738281 " style="stroke: none; fill-rule: nonzero; fill: rgb(16, 56, 70); fill-opacity: 1;"></path><path d="M 27.175781 16.1875 C 27.460938 16.457031 27.667969 16.660156 27.84375 17.011719 C 27.851562 17.34375 27.851562 17.675781 27.84375 18.003906 C 27.570312 18.003906 27.292969 18.003906 27.007812 18.003906 C 27.007812 17.785156 27.007812 17.570312 27.007812 17.34375 C 26.894531 17.34375 26.785156 17.34375 26.671875 17.34375 C 26.773438 16.855469 26.882812 16.621094 27.175781 16.1875 Z M 27.175781 16.1875 " style="stroke: none; fill-rule: nonzero; fill: rgb(27, 52, 93); fill-opacity: 1;"></path><path d="M 24.324219 15.855469 C 24.988281 15.855469 25.652344 15.855469 26.335938 15.855469 C 26.226562 16.074219 26.113281 16.292969 26 16.519531 C 25.777344 16.519531 25.558594 16.519531 25.328125 16.519531 C 25.328125 16.410156 25.328125 16.300781 25.328125 16.1875 C 24.996094 16.1875 24.664062 16.1875 24.324219 16.1875 C 24.324219 16.078125 24.324219 15.96875 24.324219 15.855469 Z M 24.324219 15.855469 " style="stroke: none; fill-rule: nonzero; fill: rgb(18, 54, 103); fill-opacity: 1;"></path><path d="M 28.179688 17.179688 C 28.453125 17.601562 28.523438 17.785156 28.453125 18.292969 C 28.417969 18.417969 28.382812 18.539062 28.347656 18.664062 C 27.960938 18.664062 27.574219 18.664062 27.175781 18.664062 C 27.175781 18.5 27.175781 18.339844 27.175781 18.167969 C 27.394531 18.167969 27.617188 18.167969 27.84375 18.167969 C 27.957031 17.84375 28.066406 17.515625 28.179688 17.179688 Z M 28.179688 17.179688 " style="stroke: none; fill-rule: nonzero; fill: rgb(96, 194, 139); fill-opacity: 1;"></path><path d="M 23.484375 17.011719 C 23.59375 17.121094 23.707031 17.230469 23.820312 17.34375 C 23.652344 17.398438 23.488281 17.453125 23.316406 17.507812 C 23.316406 17.835938 23.316406 18.164062 23.316406 18.5 C 22.875 18.554688 22.429688 18.609375 21.972656 18.664062 C 21.917969 18.554688 21.863281 18.445312 21.804688 18.335938 C 21.960938 18.328125 22.117188 18.320312 22.277344 18.3125 C 22.859375 18.222656 22.859375 18.222656 23.117188 17.675781 C 23.183594 17.511719 23.25 17.347656 23.316406 17.179688 C 23.371094 17.125 23.425781 17.070312 23.484375 17.011719 Z M 23.484375 17.011719 " style="stroke: none; fill-rule: nonzero; fill: rgb(105, 188, 137); fill-opacity: 1;"></path><path d="M 22.308594 16.847656 C 22.65625 16.921875 22.65625 16.921875 22.980469 17.011719 C 22.871094 17.339844 22.757812 17.667969 22.644531 18.003906 C 22.421875 17.894531 22.203125 17.785156 21.972656 17.675781 C 22.121094 17.035156 22.121094 17.035156 22.308594 16.847656 Z M 22.308594 16.847656 " style="stroke: none; fill-rule: nonzero; fill: rgb(28, 51, 104); fill-opacity: 1;"></path><path d="M 25.496094 11.726562 C 25.609375 11.78125 25.71875 11.835938 25.832031 11.894531 C 25.914062 12.214844 25.914062 12.214844 25.957031 12.617188 C 25.972656 12.746094 25.992188 12.878906 26.007812 13.011719 C 26 13.378906 26 13.378906 25.664062 13.875 C 25.386719 13.601562 25.429688 13.269531 25.390625 12.894531 C 25.375 12.746094 25.359375 12.597656 25.34375 12.445312 C 25.328125 12.058594 25.328125 12.058594 25.496094 11.726562 Z M 25.496094 11.726562 " style="stroke: none; fill-rule: nonzero; fill: rgb(30, 49, 111); fill-opacity: 1;"></path><path d="M 30.863281 7.929688 C 30.921875 8.003906 30.980469 8.078125 31.042969 8.15625 C 31.496094 8.53125 31.972656 8.617188 32.542969 8.753906 C 32.488281 8.917969 32.429688 9.082031 32.375 9.25 C 32.261719 9.195312 32.152344 9.140625 32.039062 9.085938 C 31.648438 9.023438 31.257812 8.96875 30.863281 8.917969 C 30.863281 8.59375 30.863281 8.265625 30.863281 7.929688 Z M 30.863281 7.929688 " style="stroke: none; fill-rule: nonzero; fill: rgb(103, 185, 136); fill-opacity: 1;"></path><path d="M 25.109375 14.835938 C 25.382812 14.851562 25.382812 14.851562 25.664062 14.867188 C 25.664062 15.03125 25.664062 15.191406 25.664062 15.363281 C 25.109375 15.363281 24.558594 15.363281 23.988281 15.363281 C 24.492188 14.867188 24.492188 14.867188 25.109375 14.835938 Z M 25.109375 14.835938 " style="stroke: none; fill-rule: nonzero; fill: rgb(109, 169, 141); fill-opacity: 1;"></path><path d="M 25.328125 10.738281 C 25.441406 10.953125 25.550781 11.171875 25.664062 11.398438 C 25.222656 11.289062 24.777344 11.179688 24.324219 11.066406 C 24.265625 11.230469 24.210938 11.394531 24.15625 11.5625 C 24.097656 11.453125 24.042969 11.34375 23.988281 11.230469 C 24.402344 10.71875 24.675781 10.683594 25.328125 10.738281 Z M 25.328125 10.738281 " style="stroke: none; fill-rule: nonzero; fill: rgb(14, 64, 78); fill-opacity: 1;"></path><path d="M 31.03125 7.761719 C 31.152344 7.839844 31.273438 7.921875 31.398438 8 C 31.851562 8.25 32.199219 8.351562 32.710938 8.425781 C 32.65625 8.640625 32.597656 8.859375 32.542969 9.085938 C 32.542969 8.976562 32.542969 8.867188 32.542969 8.753906 C 32.15625 8.699219 31.765625 8.644531 31.367188 8.589844 C 31.257812 8.316406 31.144531 8.042969 31.03125 7.761719 Z M 31.03125 7.761719 " style="stroke: none; fill-rule: nonzero; fill: rgb(25, 68, 73); fill-opacity: 1;"></path><path d="M 27.84375 15.363281 C 27.957031 15.363281 28.066406 15.363281 28.179688 15.363281 C 28.179688 15.796875 28.179688 16.234375 28.179688 16.683594 C 28.015625 16.765625 28.015625 16.765625 27.84375 16.847656 C 27.734375 16.464844 27.625 16.085938 27.507812 15.691406 C 27.621094 15.691406 27.730469 15.691406 27.84375 15.691406 C 27.84375 15.582031 27.84375 15.472656 27.84375 15.363281 Z M 27.84375 15.363281 " style="stroke: none; fill-rule: nonzero; fill: rgb(106, 190, 138); fill-opacity: 1;"></path><path d="M 22.140625 15.691406 C 22.476562 16.023438 22.476562 16.023438 22.53125 16.433594 C 22.511719 16.570312 22.496094 16.707031 22.476562 16.847656 C 22.3125 16.957031 22.144531 17.066406 21.972656 17.179688 C 21.761719 16.554688 21.910156 16.292969 22.140625 15.691406 Z M 22.140625 15.691406 " style="stroke: none; fill-rule: nonzero; fill: rgb(18, 77, 88); fill-opacity: 1;"></path><path d="M 23.652344 11.894531 C 23.761719 11.949219 23.871094 12 23.988281 12.058594 C 23.820312 12.601562 23.65625 13.148438 23.484375 13.710938 C 23.375 13.710938 23.261719 13.710938 23.148438 13.710938 C 23.261719 13.082031 23.4375 12.496094 23.652344 11.894531 Z M 23.652344 11.894531 " style="stroke: none; fill-rule: nonzero; fill: rgb(14, 66, 69); fill-opacity: 1;"></path><path d="M 25.328125 16.1875 C 25.382812 16.351562 25.441406 16.515625 25.496094 16.683594 C 24.75 16.765625 24.75 16.765625 23.988281 16.847656 C 24.574219 16.1875 24.574219 16.1875 25.328125 16.1875 Z M 25.328125 16.1875 " style="stroke: none; fill-rule: nonzero; fill: rgb(27, 67, 94); fill-opacity: 1;"></path><path d="M 22.308594 14.535156 C 22.421875 14.535156 22.53125 14.535156 22.644531 14.535156 C 22.554688 15.167969 22.394531 15.535156 21.972656 16.023438 C 22.121094 14.722656 22.121094 14.722656 22.308594 14.535156 Z M 22.308594 14.535156 " style="stroke: none; fill-rule: nonzero; fill: rgb(103, 187, 142); fill-opacity: 1;"></path><path d="M 29.699219 10.5625 C 29.945312 10.566406 29.945312 10.566406 30.195312 10.570312 C 29.972656 10.625 29.75 10.679688 29.523438 10.738281 C 29.46875 11.007812 29.410156 11.28125 29.355469 11.5625 C 29.242188 11.5625 29.132812 11.5625 29.019531 11.5625 C 29.011719 11.289062 29.011719 11.011719 29.019531 10.738281 C 29.1875 10.570312 29.1875 10.570312 29.699219 10.5625 Z M 29.699219 10.5625 " style="stroke: none; fill-rule: nonzero; fill: rgb(98, 178, 136); fill-opacity: 1;"></path><path d="M 29.355469 17.675781 C 29.796875 17.78125 30.242188 17.890625 30.695312 18.003906 C 30.640625 18.113281 30.585938 18.222656 30.527344 18.335938 C 30.195312 18.335938 29.863281 18.335938 29.523438 18.335938 C 29.46875 18.117188 29.410156 17.898438 29.355469 17.675781 Z M 29.355469 17.675781 " style="stroke: none; fill-rule: nonzero; fill: rgb(24, 79, 77); fill-opacity: 1;"></path></g></svg>