<svg width="50" height="45" viewBox="0 0 50 45" fill="none" xmlns="http://www.w3.org/2000/svg">
<g clip-path="url(#clip0_2606_1776)">
<path d="M39 22.4082V15.4082L11 15.4082V22.4082H39Z" fill="#FFC907"/>
<path d="M50 34.2887C49.9374 34.4896 49.8774 34.6905 49.8121 34.8901C49.3308 36.3617 47.987 37.3884 46.4424 37.4106C44.6368 37.4354 42.83 37.4223 41.0232 37.4184C40.4961 37.4171 40.1686 37.1197 40.1739 36.6813C40.1778 36.2482 40.5118 35.956 41.0388 35.9547C42.7478 35.9494 44.4568 35.9547 46.1645 35.9507C47.6256 35.9468 48.5271 35.0362 48.5323 33.566C48.535 32.8184 48.5323 32.0709 48.5323 31.2842H1.51247C1.51247 32.2483 1.41853 33.2281 1.53724 34.183C1.67423 35.2958 2.61614 35.9507 3.82158 35.9507C10.4932 35.9534 17.1662 35.9507 23.8378 35.9507C28.4104 35.9507 32.9843 35.9507 37.5569 35.9507C37.7199 35.9507 37.8856 35.9338 38.0435 35.9625C38.444 36.0342 38.6905 36.2704 38.684 36.6944C38.6775 37.1144 38.4375 37.3506 38.0278 37.408C37.8843 37.4288 37.7356 37.4184 37.5895 37.4184C35.3117 37.4184 33.0326 37.4184 30.7547 37.4184C30.5799 37.4184 30.4064 37.4184 30.1938 37.4184C30.4443 39.3309 30.6869 41.1808 30.9348 43.0673C31.7684 43.0673 32.5629 43.0647 33.3574 43.0673C33.9288 43.0699 34.2654 43.3386 34.2706 43.7861C34.2758 44.2375 33.9366 44.5297 33.3757 44.5297C27.7933 44.5323 22.2123 44.5323 16.63 44.5297C16.0625 44.5297 15.7272 44.2479 15.7259 43.7965C15.7246 43.3477 16.0612 43.0712 16.6287 43.0686C17.4245 43.0647 18.2203 43.0686 19.0617 43.0686C19.3083 41.1913 19.551 39.3414 19.8041 37.4197H19.2053C14.0795 37.4197 8.95252 37.4236 3.8268 37.4171C2.04213 37.4145 0.650133 36.4269 0.173959 34.8184C0.0643737 34.4505 0.00827391 34.0513 0.00827391 33.6664C-0.000858192 23.8377 -0.00216787 14.0076 0.00305047 4.17886C0.00305047 2.00933 1.59855 0.412521 3.76417 0.411216C11.5591 0.405998 19.354 0.408607 27.1502 0.411216C27.2963 0.411216 27.4502 0.402084 27.5859 0.443831C27.9551 0.55733 28.1612 0.818247 28.1221 1.21223C28.083 1.601 27.8455 1.82539 27.4542 1.86713C27.2937 1.88409 27.1293 1.87496 26.9662 1.87496C19.3175 1.87496 11.6687 1.87496 4.01988 1.87496C2.32522 1.87496 1.46679 2.73207 1.46679 4.42282C1.46679 12.673 1.46679 20.9245 1.46679 29.1747V29.737H4.98397C4.98397 29.5204 4.98397 29.33 4.98397 29.1382C4.98397 21.9447 4.98397 14.7525 4.98397 7.55904C4.98397 5.87221 5.8476 5.00858 7.54226 5.00858C19.1779 5.00858 30.8135 5.00858 42.4491 5.00858C44.1646 5.00858 45.0152 5.87091 45.0152 7.59948C45.0152 14.776 45.0152 21.9525 45.0152 29.1304C45.0152 29.3234 45.0152 29.5152 45.0152 29.7383H48.5089C48.5167 29.5713 48.531 29.4017 48.531 29.2308C48.531 20.931 48.5323 12.6313 48.531 4.3315C48.531 2.7686 47.6413 1.87366 46.0836 1.87366C41.0062 1.87235 35.9287 1.87366 30.8513 1.87366C30.7704 1.87366 30.6882 1.87366 30.6073 1.87366C29.9524 1.87105 29.6015 1.61535 29.6028 1.14439C29.6028 0.672133 29.9589 0.409911 30.6086 0.409911C35.767 0.409911 40.9266 0.408607 46.0849 0.409911C48.0953 0.409911 49.4156 1.44184 49.9283 3.40133C49.94 3.44568 49.9739 3.48482 49.9974 3.52657V34.2874L50 34.2887ZM43.5332 12.3482H6.48814V29.7422H10.0301C10.0301 28.7586 10.0301 27.8036 10.0301 26.8486C10.0301 25.9511 10.2141 25.7685 11.1168 25.7685C15.0384 25.7685 18.9587 25.7685 22.8803 25.7685C22.9938 25.7685 23.1086 25.7685 23.2221 25.7724C23.693 25.7893 23.9344 26.0476 23.9709 26.5042C23.9879 26.7143 23.9787 26.9269 23.9787 27.1383C23.9787 27.9967 23.9787 28.8551 23.9787 29.7422H26.0204C26.0204 28.7729 26.0204 27.8323 26.0204 26.8917C26.0204 25.9485 26.1965 25.7698 27.1215 25.7698C30.0007 25.7698 32.8812 25.7698 35.7604 25.7698C36.8837 25.7698 38.0056 25.7632 39.1289 25.7737C39.712 25.7789 39.9495 26.0255 39.9677 26.6086C39.9756 26.8356 39.9703 27.0639 39.9703 27.2922C39.9703 28.1011 39.9703 28.9086 39.9703 29.7383H43.5319V12.3482H43.5332ZM6.45293 10.8009H43.5501C43.5501 9.73901 43.5501 8.71491 43.5501 7.69081C43.5501 6.64844 43.3818 6.48276 42.3264 6.48276C30.7756 6.48276 19.2248 6.48276 7.67402 6.48276C7.51095 6.48276 7.34657 6.47232 7.18611 6.49059C6.73472 6.54016 6.46205 6.79325 6.45683 7.25377C6.44379 8.42398 6.45293 9.5942 6.45293 10.8022V10.8009ZM20.5542 43.0451H29.4502C29.2036 41.1573 28.9596 39.3009 28.7183 37.4497H21.2848C21.0408 39.3205 20.8008 41.1665 20.5555 43.0451H20.5542ZM11.5173 29.7722C11.743 29.7722 11.9191 29.7722 12.094 29.7722C14.5335 29.7722 16.9744 29.7722 19.414 29.7722C20.3089 29.7722 21.2039 29.7814 22.0975 29.7618C22.2345 29.7592 22.4824 29.63 22.4863 29.5518C22.5163 28.7951 22.5045 28.0384 22.5045 27.2752H11.5173V29.7722ZM27.5246 29.7396H38.4753V27.27H27.5246V29.7396Z" fill="white"/>
<path d="M38.4823 22.4978V16.0897H11.5244V22.4978C12.1949 22.4978 12.8407 22.4978 13.4864 22.4978C14.3162 22.4978 15.1472 22.49 15.9769 22.5017C16.5183 22.5096 16.8197 22.7888 16.8157 23.2441C16.8118 23.7007 16.5183 23.9577 15.9612 23.9603C14.2692 23.9668 12.5758 23.9668 10.8838 23.9603C10.2954 23.9577 10.0384 23.7124 10.0371 23.1345C10.0293 20.5631 10.0293 17.9918 10.0371 15.4205C10.0384 14.8712 10.298 14.6247 10.8447 14.5907C10.9582 14.5842 11.073 14.5881 11.1865 14.5881C20.3981 14.5881 29.6085 14.5881 38.8202 14.5881C38.9337 14.5881 39.0485 14.5829 39.162 14.5907C39.7073 14.6247 39.9656 14.8725 39.9682 15.4231C39.9761 17.9944 39.9761 20.5657 39.9682 23.1371C39.9656 23.7568 39.7034 23.9629 38.9728 23.9629C32.7565 23.9629 26.5388 23.9629 20.3225 23.9629C19.9154 23.9629 19.5084 23.9707 19.1014 23.959C18.6109 23.9446 18.2951 23.6459 18.3017 23.2271C18.3069 22.8292 18.6161 22.5357 19.0727 22.5017C19.2188 22.4913 19.3649 22.4991 19.5123 22.4991C25.6152 22.4991 31.718 22.4991 37.8209 22.4991H38.4862L38.4823 22.4978Z" fill="white"/>
<path d="M17.5995 8.61552C17.5943 9.23651 17.1063 9.72181 16.4867 9.72312C15.8748 9.72312 15.3686 9.22868 15.3595 8.61813C15.3504 7.99324 15.8774 7.47401 16.5088 7.48706C17.1285 7.4988 17.6047 7.99193 17.5995 8.61552Z" fill="white"/>
<path d="M13.9822 8.61949C13.9757 9.24047 13.4852 9.72447 12.8655 9.72317C12.2549 9.72186 11.7488 9.22221 11.7422 8.61427C11.7357 7.98937 12.2654 7.47276 12.8955 7.48711C13.5165 7.50276 13.9888 7.99459 13.9822 8.61949Z" fill="white"/>
<path d="M10.365 8.62237C10.3572 9.24205 9.86405 9.72736 9.24698 9.72475C8.63643 9.72214 8.13026 9.22118 8.12504 8.61324C8.11982 7.98965 8.65078 7.47173 9.27959 7.48869C9.89927 7.50434 10.3728 8.00008 10.365 8.62237Z" fill="white"/>
</g>
<defs>
<clipPath id="clip0_2606_1776">
<rect width="50" height="45" fill="white"/>
</clipPath>
</defs>
</svg>
